M48
METRIC,LZ,000.000
;FILE_FORMAT=3:3
;TYPE=PLATED
;Layer: PTH_Through
;EasyEDA v6.5.50, 2025-07-01 14:26:41
;10da637b71844612bdca41047c5aba70,f23c0848bd594b818c0f9a27fb038be7,10
;Gerber Generator version 0.2
;Holesize 1 = 0.310 mm
T01C0.310
;Holesize 2 = 0.701 mm
T02C0.701
;Holesize 3 = 1.101 mm
T03C1.101
%
G05
G90
T01
X041783Y083693
X020701Y083693
X037211Y085217
X040386Y082677
X017780Y087630
X037338Y089535
X017653Y089535
X034417Y096647
X032766Y096647
X030988Y096647
X030988Y081280
X032766Y081280
X034417Y081280
X044450Y096520
X046609Y096520
X044450Y081280
X046609Y081280
X015240Y097155
X017780Y097155
X020320Y097155
X015240Y080645
X017780Y080645
X020320Y080645
X041021Y093472
X032131Y093472
T02
X055540Y094750G85X053740Y094750
X055540Y083050G85X053740Y083050
T03
X008890Y095250
X008890Y092710
X008890Y090170
X008890Y087630
X008890Y085090
X008890Y082550
M30
