G04 Layer: BottomLayer*
G04 EasyEDA v6.5.50, 2025-07-01 14:26:41*
G04 10da637b71844612bdca41047c5aba70,f23c0848bd594b818c0f9a27fb038be7,10*
G04 Gerber Generator version 0.2*
G04 Scale: 100 percent, Rotated: No, Reflected: No *
G04 Dimensions in millimeters *
G04 leading zeros omitted , absolute positions ,4 integer and 5 decimal *
%FSLAX45Y45*%
%MOMM*%

%ADD10C,0.2540*%
%ADD11R,1.8000X1.8000*%
%ADD12C,1.8000*%
%ADD13O,3.1999936X1.2999974*%
%ADD14C,0.6200*%
%ADD15C,0.0119*%

%LPD*%
G36*
X467868Y8014208D02*
G01*
X463956Y8014970D01*
X460705Y8017205D01*
X458470Y8020456D01*
X457708Y8024368D01*
X457708Y9755632D01*
X458470Y9759543D01*
X460705Y9762794D01*
X463956Y9765030D01*
X467868Y9765792D01*
X5804458Y9765792D01*
X5808319Y9765030D01*
X5811621Y9762794D01*
X5813806Y9759543D01*
X5814618Y9755632D01*
X5816041Y8024368D01*
X5815279Y8020507D01*
X5813094Y8017205D01*
X5809792Y8014970D01*
X5805881Y8014208D01*
G37*

%LPC*%
G36*
X889000Y8139125D02*
G01*
X903528Y8140039D01*
X917803Y8142731D01*
X931671Y8147253D01*
X944829Y8153450D01*
X957122Y8161223D01*
X968349Y8170519D01*
X978306Y8181136D01*
X986840Y8192922D01*
X993851Y8205673D01*
X995578Y8209991D01*
X997762Y8213344D01*
X1001064Y8215579D01*
X1005027Y8216392D01*
X4012336Y8216392D01*
X4016146Y8215680D01*
X4021937Y8213344D01*
X4031386Y8211312D01*
X4041038Y8210854D01*
X4050588Y8212124D01*
X4059783Y8214918D01*
X4068419Y8219287D01*
X4076192Y8225028D01*
X4082846Y8231987D01*
X4088231Y8239963D01*
X4092244Y8248751D01*
X4094632Y8258098D01*
X4095496Y8267700D01*
X4094632Y8277301D01*
X4092244Y8286648D01*
X4088231Y8295436D01*
X4082846Y8303412D01*
X4076192Y8310372D01*
X4073499Y8312353D01*
X4070705Y8315502D01*
X4069435Y8319516D01*
X4069892Y8323732D01*
X4072026Y8327339D01*
X4075429Y8329828D01*
X4079544Y8330692D01*
X4132579Y8330692D01*
X4136136Y8330031D01*
X4139285Y8328152D01*
X4144467Y8323580D01*
X4152696Y8318500D01*
X4161637Y8314944D01*
X4171086Y8312912D01*
X4180738Y8312454D01*
X4190288Y8313724D01*
X4199483Y8316518D01*
X4208119Y8320887D01*
X4215892Y8326628D01*
X4222546Y8333587D01*
X4227931Y8341563D01*
X4231944Y8350351D01*
X4234332Y8359698D01*
X4235196Y8369300D01*
X4234332Y8378901D01*
X4231944Y8388248D01*
X4227931Y8397036D01*
X4222546Y8405012D01*
X4215892Y8411972D01*
X4208119Y8417712D01*
X4199483Y8422081D01*
X4190288Y8424875D01*
X4180738Y8426145D01*
X4171086Y8425688D01*
X4161637Y8423656D01*
X4152696Y8420100D01*
X4144467Y8415020D01*
X4139285Y8410448D01*
X4136136Y8408568D01*
X4132579Y8407908D01*
X2115921Y8407908D01*
X2111959Y8408720D01*
X2099919Y8417712D01*
X2091283Y8422081D01*
X2082088Y8424875D01*
X2072538Y8426145D01*
X2062886Y8425688D01*
X2053437Y8423656D01*
X2044496Y8420100D01*
X2036267Y8415020D01*
X2029053Y8408670D01*
X2022957Y8401151D01*
X2018284Y8392718D01*
X2015083Y8383625D01*
X2013457Y8374125D01*
X2013457Y8364474D01*
X2015083Y8354974D01*
X2018284Y8345881D01*
X2022957Y8337448D01*
X2029053Y8329930D01*
X2036267Y8323580D01*
X2044496Y8318500D01*
X2053437Y8314944D01*
X2059127Y8313724D01*
X2062988Y8311997D01*
X2065782Y8308848D01*
X2067102Y8304834D01*
X2066645Y8300618D01*
X2064512Y8296960D01*
X2061108Y8294471D01*
X2056993Y8293608D01*
X1005027Y8293608D01*
X1001064Y8294420D01*
X997762Y8296656D01*
X995578Y8300008D01*
X993851Y8304326D01*
X986840Y8317077D01*
X978306Y8328863D01*
X968349Y8339480D01*
X957122Y8348776D01*
X944829Y8356549D01*
X931671Y8362746D01*
X917803Y8367268D01*
X903528Y8369960D01*
X889000Y8370874D01*
X874471Y8369960D01*
X860196Y8367268D01*
X846328Y8362746D01*
X833170Y8356549D01*
X820877Y8348776D01*
X809650Y8339480D01*
X799693Y8328863D01*
X791159Y8317077D01*
X784148Y8304326D01*
X778764Y8290814D01*
X775157Y8276691D01*
X773328Y8262264D01*
X773328Y8247735D01*
X775157Y8233308D01*
X778764Y8219186D01*
X784148Y8205673D01*
X791159Y8192922D01*
X799693Y8181136D01*
X809650Y8170519D01*
X820877Y8161223D01*
X833170Y8153450D01*
X846328Y8147253D01*
X860196Y8142731D01*
X874471Y8140039D01*
G37*
G36*
X5369356Y8214106D02*
G01*
X5377637Y8214106D01*
X5377637Y8266125D01*
X5287010Y8266125D01*
X5288280Y8263178D01*
X5294731Y8252612D01*
X5302554Y8242960D01*
X5311648Y8234476D01*
X5321757Y8227364D01*
X5332780Y8221624D01*
X5344464Y8217509D01*
X5356606Y8214969D01*
G37*
G36*
X5550357Y8214106D02*
G01*
X5558637Y8214106D01*
X5571388Y8214969D01*
X5583529Y8217509D01*
X5595213Y8221624D01*
X5606237Y8227364D01*
X5616346Y8234476D01*
X5625439Y8242960D01*
X5633262Y8252612D01*
X5639714Y8263178D01*
X5640984Y8266125D01*
X5550357Y8266125D01*
G37*
G36*
X5287010Y8343849D02*
G01*
X5377637Y8343849D01*
X5377637Y8395919D01*
X5369356Y8395919D01*
X5356606Y8395055D01*
X5344464Y8392515D01*
X5332780Y8388350D01*
X5321757Y8382660D01*
X5311648Y8375497D01*
X5302554Y8367014D01*
X5294731Y8357412D01*
X5288280Y8346795D01*
G37*
G36*
X5550357Y8343849D02*
G01*
X5640984Y8343849D01*
X5639714Y8346795D01*
X5633262Y8357412D01*
X5625439Y8367014D01*
X5616346Y8375497D01*
X5606237Y8382660D01*
X5595213Y8388350D01*
X5583529Y8392515D01*
X5571388Y8395055D01*
X5558637Y8395919D01*
X5550357Y8395919D01*
G37*
G36*
X889000Y8393125D02*
G01*
X903528Y8394039D01*
X917803Y8396732D01*
X931671Y8401253D01*
X944829Y8407450D01*
X957122Y8415223D01*
X968349Y8424519D01*
X978306Y8435136D01*
X986840Y8446922D01*
X993851Y8459673D01*
X995578Y8463991D01*
X997762Y8467344D01*
X1001064Y8469579D01*
X1005027Y8470392D01*
X3694836Y8470392D01*
X3698646Y8469680D01*
X3704437Y8467344D01*
X3713886Y8465312D01*
X3723538Y8464854D01*
X3733088Y8466124D01*
X3742283Y8468918D01*
X3750919Y8473287D01*
X3758692Y8479028D01*
X3765346Y8485987D01*
X3770731Y8493963D01*
X3774744Y8502751D01*
X3777132Y8512098D01*
X3777996Y8521700D01*
X3777132Y8531301D01*
X3774744Y8540648D01*
X3770731Y8549436D01*
X3765346Y8557412D01*
X3758692Y8564372D01*
X3750919Y8570112D01*
X3742283Y8574481D01*
X3733088Y8577275D01*
X3723538Y8578545D01*
X3713886Y8578088D01*
X3704437Y8576056D01*
X3695496Y8572500D01*
X3687267Y8567420D01*
X3680053Y8561070D01*
X3671315Y8550046D01*
X3668217Y8548217D01*
X3664712Y8547608D01*
X1005027Y8547608D01*
X1001064Y8548420D01*
X997762Y8550656D01*
X995578Y8554008D01*
X993851Y8558326D01*
X986840Y8571077D01*
X978306Y8582863D01*
X968349Y8593480D01*
X957122Y8602776D01*
X944829Y8610549D01*
X931671Y8616746D01*
X917803Y8621268D01*
X903528Y8623960D01*
X889000Y8624874D01*
X874471Y8623960D01*
X860196Y8621268D01*
X846328Y8616746D01*
X833170Y8610549D01*
X820877Y8602776D01*
X809650Y8593480D01*
X799693Y8582863D01*
X791159Y8571077D01*
X784148Y8558326D01*
X778764Y8544814D01*
X775157Y8530691D01*
X773328Y8516264D01*
X773328Y8501735D01*
X775157Y8487308D01*
X778764Y8473186D01*
X784148Y8459673D01*
X791159Y8446922D01*
X799693Y8435136D01*
X809650Y8424519D01*
X820877Y8415223D01*
X833170Y8407450D01*
X846328Y8401253D01*
X860196Y8396732D01*
X874471Y8394039D01*
G37*
G36*
X5461050Y8584133D02*
G01*
X5472836Y8584590D01*
X5484469Y8586724D01*
X5495645Y8590534D01*
X5506110Y8595918D01*
X5515711Y8602827D01*
X5524246Y8611006D01*
X5531459Y8620353D01*
X5537250Y8630666D01*
X5541467Y8641689D01*
X5544007Y8653221D01*
X5544870Y8664956D01*
X5544007Y8676741D01*
X5541467Y8688273D01*
X5537250Y8699296D01*
X5531459Y8709609D01*
X5524246Y8718956D01*
X5515711Y8727135D01*
X5506110Y8734044D01*
X5495645Y8739428D01*
X5484469Y8743238D01*
X5472836Y8745372D01*
X5461050Y8745829D01*
X5449316Y8744508D01*
X5437886Y8741511D01*
X5427014Y8736888D01*
X5416956Y8730742D01*
X5407863Y8723223D01*
X5399989Y8714435D01*
X5393486Y8704580D01*
X5388457Y8693861D01*
X5385054Y8682583D01*
X5383326Y8670899D01*
X5383326Y8659063D01*
X5385054Y8647379D01*
X5388457Y8636101D01*
X5393486Y8625382D01*
X5399989Y8615527D01*
X5407863Y8606739D01*
X5416956Y8599220D01*
X5427014Y8593074D01*
X5437886Y8588451D01*
X5449316Y8585454D01*
G37*
G36*
X889000Y8647125D02*
G01*
X903528Y8648039D01*
X917803Y8650732D01*
X931671Y8655253D01*
X944829Y8661450D01*
X957122Y8669223D01*
X968349Y8678519D01*
X978306Y8689136D01*
X986840Y8700922D01*
X993851Y8713673D01*
X995578Y8717991D01*
X997762Y8721344D01*
X1001064Y8723579D01*
X1005027Y8724392D01*
X1732280Y8724392D01*
X1735836Y8723731D01*
X1738985Y8721852D01*
X1744167Y8717280D01*
X1752396Y8712200D01*
X1761337Y8708644D01*
X1770786Y8706612D01*
X1780438Y8706154D01*
X1789988Y8707424D01*
X1799183Y8710218D01*
X1807819Y8714587D01*
X1815592Y8720328D01*
X1822246Y8727287D01*
X1827631Y8735263D01*
X1831644Y8744051D01*
X1834032Y8753398D01*
X1834896Y8763000D01*
X1834032Y8772601D01*
X1831644Y8781948D01*
X1827631Y8790736D01*
X1822246Y8798712D01*
X1815592Y8805672D01*
X1807819Y8811412D01*
X1799183Y8815781D01*
X1789988Y8818575D01*
X1780438Y8819845D01*
X1770786Y8819388D01*
X1761337Y8817356D01*
X1752396Y8813800D01*
X1744167Y8808720D01*
X1738985Y8804148D01*
X1735836Y8802268D01*
X1732280Y8801608D01*
X1005027Y8801608D01*
X1001064Y8802420D01*
X997762Y8804656D01*
X995578Y8808008D01*
X993851Y8812326D01*
X986840Y8825077D01*
X978306Y8836863D01*
X968349Y8847480D01*
X957122Y8856776D01*
X944829Y8864549D01*
X931671Y8870746D01*
X917803Y8875268D01*
X903528Y8877960D01*
X889000Y8878874D01*
X874471Y8877960D01*
X860196Y8875268D01*
X846328Y8870746D01*
X833170Y8864549D01*
X820877Y8856776D01*
X809650Y8847480D01*
X799693Y8836863D01*
X791159Y8825077D01*
X784148Y8812326D01*
X778764Y8798814D01*
X775157Y8784691D01*
X773328Y8770264D01*
X773328Y8755735D01*
X775157Y8741308D01*
X778764Y8727186D01*
X784148Y8713673D01*
X791159Y8700922D01*
X799693Y8689136D01*
X809650Y8678519D01*
X820877Y8669223D01*
X833170Y8661450D01*
X846328Y8655253D01*
X860196Y8650732D01*
X874471Y8648039D01*
G37*
G36*
X1767738Y8896654D02*
G01*
X1777288Y8897924D01*
X1786483Y8900718D01*
X1795119Y8905087D01*
X1807159Y8914079D01*
X1811121Y8914892D01*
X3688079Y8914892D01*
X3691636Y8914231D01*
X3694785Y8912352D01*
X3699967Y8907780D01*
X3708196Y8902700D01*
X3717137Y8899144D01*
X3726586Y8897112D01*
X3736238Y8896654D01*
X3745788Y8897924D01*
X3754983Y8900718D01*
X3763619Y8905087D01*
X3771392Y8910828D01*
X3778046Y8917787D01*
X3783431Y8925763D01*
X3787444Y8934551D01*
X3789832Y8943898D01*
X3790696Y8953500D01*
X3789832Y8963101D01*
X3787444Y8972448D01*
X3783431Y8981236D01*
X3778046Y8989212D01*
X3771392Y8996172D01*
X3763619Y9001912D01*
X3754983Y9006281D01*
X3745788Y9009075D01*
X3736238Y9010345D01*
X3726586Y9009888D01*
X3717137Y9007856D01*
X3708196Y9004300D01*
X3699967Y8999220D01*
X3694785Y8994648D01*
X3691636Y8992768D01*
X3688079Y8992108D01*
X1811121Y8992108D01*
X1807159Y8992920D01*
X1795119Y9001912D01*
X1786483Y9006281D01*
X1777288Y9009075D01*
X1767738Y9010345D01*
X1758086Y9009888D01*
X1748637Y9007856D01*
X1739696Y9004300D01*
X1731467Y8999220D01*
X1724253Y8992870D01*
X1718157Y8985351D01*
X1713484Y8976918D01*
X1710283Y8967825D01*
X1708657Y8958326D01*
X1708657Y8948674D01*
X1710283Y8939174D01*
X1713484Y8930081D01*
X1718157Y8921648D01*
X1724253Y8914130D01*
X1731467Y8907780D01*
X1739696Y8902700D01*
X1748637Y8899144D01*
X1758086Y8897112D01*
G37*
G36*
X889000Y8901125D02*
G01*
X903528Y8902039D01*
X917803Y8904732D01*
X931671Y8909253D01*
X944829Y8915450D01*
X957122Y8923223D01*
X968349Y8932519D01*
X978306Y8943136D01*
X986840Y8954922D01*
X993851Y8967673D01*
X999236Y8981186D01*
X1002842Y8995308D01*
X1004671Y9009735D01*
X1004671Y9024264D01*
X1002842Y9038691D01*
X999236Y9052814D01*
X993851Y9066326D01*
X986840Y9079077D01*
X978306Y9090863D01*
X968349Y9101480D01*
X957122Y9110776D01*
X944829Y9118549D01*
X931671Y9124746D01*
X917803Y9129268D01*
X903528Y9131960D01*
X889000Y9132874D01*
X874471Y9131960D01*
X860196Y9129268D01*
X846328Y9124746D01*
X833170Y9118549D01*
X820877Y9110776D01*
X809650Y9101480D01*
X799693Y9090863D01*
X791159Y9079077D01*
X784148Y9066326D01*
X778764Y9052814D01*
X775157Y9038691D01*
X773328Y9024264D01*
X773328Y9009735D01*
X775157Y8995308D01*
X778764Y8981186D01*
X784148Y8967673D01*
X791159Y8954922D01*
X799693Y8943136D01*
X809650Y8932519D01*
X820877Y8923223D01*
X833170Y8915450D01*
X846328Y8909253D01*
X860196Y8904732D01*
X874471Y8902039D01*
G37*
G36*
X5461050Y9034170D02*
G01*
X5472836Y9034576D01*
X5484469Y9036761D01*
X5495645Y9040571D01*
X5506110Y9045956D01*
X5515711Y9052814D01*
X5524246Y9061043D01*
X5531459Y9070340D01*
X5537250Y9080652D01*
X5541467Y9091676D01*
X5544007Y9103207D01*
X5544870Y9114993D01*
X5544007Y9126778D01*
X5541467Y9138310D01*
X5537250Y9149334D01*
X5531459Y9159646D01*
X5524246Y9168942D01*
X5515711Y9177172D01*
X5506110Y9184030D01*
X5495645Y9189415D01*
X5484469Y9193225D01*
X5472836Y9195409D01*
X5461050Y9195816D01*
X5449316Y9194546D01*
X5437886Y9191548D01*
X5427014Y9186926D01*
X5416956Y9180779D01*
X5407863Y9173210D01*
X5399989Y9164421D01*
X5393486Y9154566D01*
X5388457Y9143898D01*
X5385054Y9132570D01*
X5383326Y9120886D01*
X5383326Y9109100D01*
X5385054Y9097416D01*
X5388457Y9086088D01*
X5393486Y9075420D01*
X5399989Y9065564D01*
X5407863Y9056776D01*
X5416956Y9049207D01*
X5427014Y9043060D01*
X5437886Y9038437D01*
X5449316Y9035440D01*
G37*
G36*
X889000Y9155125D02*
G01*
X903528Y9156039D01*
X917803Y9158732D01*
X931671Y9163253D01*
X944829Y9169450D01*
X957122Y9177223D01*
X968349Y9186519D01*
X978306Y9197136D01*
X986840Y9208922D01*
X993851Y9221673D01*
X999236Y9235186D01*
X1002842Y9249308D01*
X1004671Y9263735D01*
X1004671Y9278264D01*
X1002842Y9292691D01*
X999236Y9306814D01*
X993851Y9320326D01*
X986840Y9333077D01*
X978306Y9344863D01*
X968349Y9355480D01*
X957122Y9364776D01*
X944829Y9372549D01*
X931671Y9378746D01*
X917803Y9383268D01*
X903528Y9385960D01*
X889000Y9386874D01*
X874471Y9385960D01*
X860196Y9383268D01*
X846328Y9378746D01*
X833170Y9372549D01*
X820877Y9364776D01*
X809650Y9355480D01*
X799693Y9344863D01*
X791159Y9333077D01*
X784148Y9320326D01*
X778764Y9306814D01*
X775157Y9292691D01*
X773328Y9278264D01*
X773328Y9263735D01*
X775157Y9249308D01*
X778764Y9235186D01*
X784148Y9221673D01*
X791159Y9208922D01*
X799693Y9197136D01*
X809650Y9186519D01*
X820877Y9177223D01*
X833170Y9169450D01*
X846328Y9163253D01*
X860196Y9158732D01*
X874471Y9156039D01*
G37*
G36*
X3215538Y9290354D02*
G01*
X3225088Y9291624D01*
X3234283Y9294418D01*
X3242919Y9298787D01*
X3254959Y9307779D01*
X3258921Y9308592D01*
X4056379Y9308592D01*
X4059936Y9307931D01*
X4063085Y9306052D01*
X4068267Y9301480D01*
X4076496Y9296400D01*
X4085437Y9292844D01*
X4094886Y9290812D01*
X4104538Y9290354D01*
X4114088Y9291624D01*
X4123283Y9294418D01*
X4131919Y9298787D01*
X4139692Y9304528D01*
X4146346Y9311487D01*
X4151731Y9319463D01*
X4155744Y9328251D01*
X4158132Y9337598D01*
X4158996Y9347200D01*
X4158132Y9356801D01*
X4155744Y9366148D01*
X4151731Y9374936D01*
X4146346Y9382912D01*
X4139692Y9389872D01*
X4131919Y9395612D01*
X4123283Y9399981D01*
X4114088Y9402775D01*
X4104538Y9404045D01*
X4094886Y9403588D01*
X4085437Y9401556D01*
X4076496Y9398000D01*
X4068267Y9392920D01*
X4063085Y9388348D01*
X4059936Y9386468D01*
X4056379Y9385808D01*
X3258921Y9385808D01*
X3254959Y9386620D01*
X3242919Y9395612D01*
X3234283Y9399981D01*
X3225088Y9402775D01*
X3215538Y9404045D01*
X3205886Y9403588D01*
X3196437Y9401556D01*
X3187496Y9398000D01*
X3179267Y9392920D01*
X3172053Y9386570D01*
X3165957Y9379051D01*
X3161284Y9370618D01*
X3158083Y9361525D01*
X3156458Y9352026D01*
X3156458Y9342374D01*
X3158083Y9332874D01*
X3161284Y9323781D01*
X3165957Y9315348D01*
X3172053Y9307830D01*
X3179267Y9301480D01*
X3187496Y9296400D01*
X3196437Y9292844D01*
X3205886Y9290812D01*
G37*
G36*
X5550357Y9384080D02*
G01*
X5558637Y9384080D01*
X5571388Y9384944D01*
X5583529Y9387484D01*
X5595213Y9391650D01*
X5606237Y9397339D01*
X5616346Y9404502D01*
X5625439Y9412986D01*
X5633262Y9422587D01*
X5639714Y9433204D01*
X5640984Y9436150D01*
X5550357Y9436150D01*
G37*
G36*
X5369356Y9384080D02*
G01*
X5377637Y9384080D01*
X5377637Y9436150D01*
X5287010Y9436150D01*
X5288280Y9433204D01*
X5294731Y9422587D01*
X5302554Y9412986D01*
X5311648Y9404502D01*
X5321757Y9397339D01*
X5332780Y9391650D01*
X5344464Y9387484D01*
X5356606Y9384944D01*
G37*
G36*
X799592Y9409074D02*
G01*
X837641Y9409074D01*
X837641Y9473641D01*
X773074Y9473641D01*
X773074Y9435592D01*
X773785Y9429242D01*
X775716Y9423806D01*
X778814Y9418878D01*
X782878Y9414814D01*
X787806Y9411716D01*
X793242Y9409785D01*
G37*
G36*
X940358Y9409074D02*
G01*
X978408Y9409074D01*
X984758Y9409785D01*
X990193Y9411716D01*
X995121Y9414814D01*
X999185Y9418878D01*
X1002284Y9423806D01*
X1004214Y9429242D01*
X1004925Y9435592D01*
X1004925Y9473641D01*
X940358Y9473641D01*
G37*
G36*
X5550357Y9513874D02*
G01*
X5640984Y9513874D01*
X5639714Y9516821D01*
X5633262Y9527387D01*
X5625439Y9537039D01*
X5616346Y9545523D01*
X5606237Y9552635D01*
X5595213Y9558375D01*
X5583529Y9562490D01*
X5571388Y9565030D01*
X5558637Y9565894D01*
X5550357Y9565894D01*
G37*
G36*
X5287010Y9513874D02*
G01*
X5377637Y9513874D01*
X5377637Y9565894D01*
X5369356Y9565894D01*
X5356606Y9565030D01*
X5344464Y9562490D01*
X5332780Y9558375D01*
X5321757Y9552635D01*
X5311648Y9545523D01*
X5302554Y9537039D01*
X5294731Y9527387D01*
X5288280Y9516821D01*
G37*
G36*
X940358Y9576358D02*
G01*
X1004925Y9576358D01*
X1004925Y9614408D01*
X1004214Y9620758D01*
X1002284Y9626193D01*
X999185Y9631121D01*
X995121Y9635185D01*
X990193Y9638284D01*
X984758Y9640214D01*
X978408Y9640925D01*
X940358Y9640925D01*
G37*
G36*
X773074Y9576358D02*
G01*
X837641Y9576358D01*
X837641Y9640925D01*
X799592Y9640925D01*
X793242Y9640214D01*
X787806Y9638284D01*
X782878Y9635185D01*
X778814Y9631121D01*
X775716Y9626193D01*
X773785Y9620758D01*
X773074Y9614408D01*
G37*

%LPD*%
D10*
X4038600Y8267700D02*
G01*
X4025900Y8255000D01*
X889000Y8255000D01*
X1765300Y8953500D02*
G01*
X3733800Y8953500D01*
X2070100Y8369300D02*
G01*
X4178300Y8369300D01*
X4102100Y9347200D02*
G01*
X3213100Y9347200D01*
X3721100Y8521700D02*
G01*
X3708400Y8509000D01*
X889000Y8509000D01*
X1778000Y8763000D02*
G01*
X889000Y8763000D01*
D11*
G01*
X889000Y9525000D03*
D12*
G01*
X889000Y9271000D03*
G01*
X889000Y9017000D03*
G01*
X889000Y8763000D03*
G01*
X889000Y8509000D03*
G01*
X889000Y8255000D03*
D13*
G01*
X5463997Y9474987D03*
G01*
X5463997Y8304987D03*
D14*
G01*
X4178300Y8369300D03*
G01*
X2070100Y8369300D03*
G01*
X3721100Y8521700D03*
G01*
X4038600Y8267700D03*
G01*
X1778000Y8763000D03*
G01*
X3733800Y8953500D03*
G01*
X1765300Y8953500D03*
G01*
X3441700Y9664700D03*
G01*
X3276600Y9664700D03*
G01*
X3098800Y9664700D03*
G01*
X3098800Y8128000D03*
G01*
X3276600Y8128000D03*
G01*
X3441700Y8128000D03*
G01*
X4445000Y9652000D03*
G01*
X4660900Y9652000D03*
G01*
X4445000Y8128000D03*
G01*
X4660900Y8128000D03*
G01*
X1524000Y9715500D03*
G01*
X1778000Y9715500D03*
G01*
X2032000Y9715500D03*
G01*
X1524000Y8064500D03*
G01*
X1778000Y8064500D03*
G01*
X2032000Y8064500D03*
G01*
X4102100Y9347200D03*
G01*
X3213100Y9347200D03*
M02*
