G04 Layer: TopSilkscreenLayer*
G04 EasyEDA v6.5.50, 2025-07-01 14:26:41*
G04 10da637b71844612bdca41047c5aba70,f23c0848bd594b818c0f9a27fb038be7,10*
G04 Gerber Generator version 0.2*
G04 Scale: 100 percent, Rotated: No, Reflected: No *
G04 Dimensions in millimeters *
G04 leading zeros omitted , absolute positions ,4 integer and 5 decimal *
%FSLAX45Y45*%
%MOMM*%

%ADD10C,0.2032*%
%ADD11C,0.1524*%
%ADD12C,0.1500*%
%ADD13C,0.2540*%
%ADD14C,0.1520*%
%ADD15C,0.2000*%
%ADD16C,0.3000*%
%ADD17C,0.0140*%

%LPD*%
D10*
X1447800Y8178037D02*
G01*
X1447800Y8082534D01*
X1447800Y8178037D02*
G01*
X1506981Y8178037D01*
X1447800Y8132571D02*
G01*
X1484121Y8132571D01*
X1447800Y8082534D02*
G01*
X1506981Y8082534D01*
X1600454Y8164576D02*
G01*
X1591310Y8173465D01*
X1577847Y8178037D01*
X1559560Y8178037D01*
X1546097Y8173465D01*
X1536954Y8164576D01*
X1536954Y8155431D01*
X1541526Y8146287D01*
X1546097Y8141715D01*
X1554987Y8137144D01*
X1582420Y8128000D01*
X1591310Y8123681D01*
X1595881Y8119110D01*
X1600454Y8109965D01*
X1600454Y8096250D01*
X1591310Y8087105D01*
X1577847Y8082534D01*
X1559560Y8082534D01*
X1546097Y8087105D01*
X1536954Y8096250D01*
X1630426Y8178037D02*
G01*
X1630426Y8082534D01*
X1630426Y8178037D02*
G01*
X1671320Y8178037D01*
X1685036Y8173465D01*
X1689607Y8168894D01*
X1694179Y8160004D01*
X1694179Y8146287D01*
X1689607Y8137144D01*
X1685036Y8132571D01*
X1671320Y8128000D01*
X1630426Y8128000D01*
X1794255Y8178037D02*
G01*
X1794255Y8082534D01*
X1794255Y8178037D02*
G01*
X1835150Y8178037D01*
X1848612Y8173465D01*
X1853184Y8168894D01*
X1857755Y8160004D01*
X1857755Y8146287D01*
X1853184Y8137144D01*
X1848612Y8132571D01*
X1835150Y8128000D01*
X1794255Y8128000D01*
X1887728Y8146287D02*
G01*
X1887728Y8082534D01*
X1887728Y8119110D02*
G01*
X1892300Y8132571D01*
X1901444Y8141715D01*
X1910587Y8146287D01*
X1924050Y8146287D01*
X1976881Y8146287D02*
G01*
X1967738Y8141715D01*
X1958593Y8132571D01*
X1954275Y8119110D01*
X1954275Y8109965D01*
X1958593Y8096250D01*
X1967738Y8087105D01*
X1976881Y8082534D01*
X1990597Y8082534D01*
X1999741Y8087105D01*
X2008631Y8096250D01*
X2013204Y8109965D01*
X2013204Y8119110D01*
X2008631Y8132571D01*
X1999741Y8141715D01*
X1990597Y8146287D01*
X1976881Y8146287D01*
X2097786Y8146287D02*
G01*
X2097786Y8073644D01*
X2093213Y8059928D01*
X2088641Y8055355D01*
X2079497Y8050784D01*
X2066036Y8050784D01*
X2056891Y8055355D01*
X2097786Y8132571D02*
G01*
X2088641Y8141715D01*
X2079497Y8146287D01*
X2066036Y8146287D01*
X2056891Y8141715D01*
X2047747Y8132571D01*
X2043175Y8119110D01*
X2043175Y8109965D01*
X2047747Y8096250D01*
X2056891Y8087105D01*
X2066036Y8082534D01*
X2079497Y8082534D01*
X2088641Y8087105D01*
X2097786Y8096250D01*
X2127758Y8146287D02*
G01*
X2127758Y8082534D01*
X2127758Y8119110D02*
G01*
X2132329Y8132571D01*
X2141474Y8141715D01*
X2150618Y8146287D01*
X2164079Y8146287D01*
X2248661Y8146287D02*
G01*
X2248661Y8082534D01*
X2248661Y8132571D02*
G01*
X2239518Y8141715D01*
X2230627Y8146287D01*
X2216911Y8146287D01*
X2207768Y8141715D01*
X2198624Y8132571D01*
X2194052Y8119110D01*
X2194052Y8109965D01*
X2198624Y8096250D01*
X2207768Y8087105D01*
X2216911Y8082534D01*
X2230627Y8082534D01*
X2239518Y8087105D01*
X2248661Y8096250D01*
X2278634Y8146287D02*
G01*
X2278634Y8082534D01*
X2278634Y8128000D02*
G01*
X2292350Y8141715D01*
X2301493Y8146287D01*
X2314956Y8146287D01*
X2324100Y8141715D01*
X2328672Y8128000D01*
X2328672Y8082534D01*
X2328672Y8128000D02*
G01*
X2342388Y8141715D01*
X2351531Y8146287D01*
X2364993Y8146287D01*
X2374138Y8141715D01*
X2378709Y8128000D01*
X2378709Y8082534D01*
X2408681Y8146287D02*
G01*
X2408681Y8082534D01*
X2408681Y8128000D02*
G01*
X2422397Y8141715D01*
X2431541Y8146287D01*
X2445004Y8146287D01*
X2454147Y8141715D01*
X2458720Y8128000D01*
X2458720Y8082534D01*
X2458720Y8128000D02*
G01*
X2472436Y8141715D01*
X2481325Y8146287D01*
X2495041Y8146287D01*
X2504186Y8141715D01*
X2508758Y8128000D01*
X2508758Y8082534D01*
X2538729Y8178037D02*
G01*
X2543302Y8173465D01*
X2547874Y8178037D01*
X2543302Y8182610D01*
X2538729Y8178037D01*
X2543302Y8146287D02*
G01*
X2543302Y8082534D01*
X2577845Y8146287D02*
G01*
X2577845Y8082534D01*
X2577845Y8128000D02*
G01*
X2591308Y8141715D01*
X2600452Y8146287D01*
X2614168Y8146287D01*
X2623311Y8141715D01*
X2627884Y8128000D01*
X2627884Y8082534D01*
X2712465Y8146287D02*
G01*
X2712465Y8073644D01*
X2707893Y8059928D01*
X2703322Y8055355D01*
X2694177Y8050784D01*
X2680461Y8050784D01*
X2671318Y8055355D01*
X2712465Y8132571D02*
G01*
X2703322Y8141715D01*
X2694177Y8146287D01*
X2680461Y8146287D01*
X2671318Y8141715D01*
X2662427Y8132571D01*
X2657856Y8119110D01*
X2657856Y8109965D01*
X2662427Y8096250D01*
X2671318Y8087105D01*
X2680461Y8082534D01*
X2694177Y8082534D01*
X2703322Y8087105D01*
X2712465Y8096250D01*
X2812288Y8178037D02*
G01*
X2812288Y8082534D01*
X2812288Y8178037D02*
G01*
X2844038Y8178037D01*
X2857754Y8173465D01*
X2866897Y8164576D01*
X2871470Y8155431D01*
X2876041Y8141715D01*
X2876041Y8119110D01*
X2871470Y8105394D01*
X2866897Y8096250D01*
X2857754Y8087105D01*
X2844038Y8082534D01*
X2812288Y8082534D01*
X2928620Y8146287D02*
G01*
X2919729Y8141715D01*
X2910586Y8132571D01*
X2906013Y8119110D01*
X2906013Y8109965D01*
X2910586Y8096250D01*
X2919729Y8087105D01*
X2928620Y8082534D01*
X2942336Y8082534D01*
X2951479Y8087105D01*
X2960624Y8096250D01*
X2965195Y8109965D01*
X2965195Y8119110D01*
X2960624Y8132571D01*
X2951479Y8141715D01*
X2942336Y8146287D01*
X2928620Y8146287D01*
X2995168Y8146287D02*
G01*
X2995168Y8082534D01*
X2995168Y8128000D02*
G01*
X3008629Y8141715D01*
X3017774Y8146287D01*
X3031490Y8146287D01*
X3040634Y8141715D01*
X3044952Y8128000D01*
X3044952Y8082534D01*
X3129534Y8146287D02*
G01*
X3129534Y8073644D01*
X3124961Y8059928D01*
X3120643Y8055355D01*
X3111500Y8050784D01*
X3097784Y8050784D01*
X3088640Y8055355D01*
X3129534Y8132571D02*
G01*
X3120643Y8141715D01*
X3111500Y8146287D01*
X3097784Y8146287D01*
X3088640Y8141715D01*
X3079495Y8132571D01*
X3075177Y8119110D01*
X3075177Y8109965D01*
X3079495Y8096250D01*
X3088640Y8087105D01*
X3097784Y8082534D01*
X3111500Y8082534D01*
X3120643Y8087105D01*
X3129534Y8096250D01*
X3159506Y8178037D02*
G01*
X3159506Y8082534D01*
X3189731Y8119110D02*
G01*
X3244088Y8119110D01*
X3244088Y8128000D01*
X3239515Y8137144D01*
X3234943Y8141715D01*
X3226054Y8146287D01*
X3212338Y8146287D01*
X3203193Y8141715D01*
X3194050Y8132571D01*
X3189731Y8119110D01*
X3189731Y8109965D01*
X3194050Y8096250D01*
X3203193Y8087105D01*
X3212338Y8082534D01*
X3226054Y8082534D01*
X3234943Y8087105D01*
X3244088Y8096250D01*
X4792472Y8155431D02*
G01*
X4792472Y8160004D01*
X4797043Y8168894D01*
X4801615Y8173465D01*
X4810506Y8178037D01*
X4828793Y8178037D01*
X4837938Y8173465D01*
X4842509Y8168894D01*
X4847081Y8160004D01*
X4847081Y8150860D01*
X4842509Y8141715D01*
X4833365Y8128000D01*
X4787900Y8082534D01*
X4851654Y8082534D01*
X4908804Y8178037D02*
G01*
X4895088Y8173465D01*
X4886197Y8160004D01*
X4881625Y8137144D01*
X4881625Y8123681D01*
X4886197Y8100821D01*
X4895088Y8087105D01*
X4908804Y8082534D01*
X4917947Y8082534D01*
X4931409Y8087105D01*
X4940554Y8100821D01*
X4945125Y8123681D01*
X4945125Y8137144D01*
X4940554Y8160004D01*
X4931409Y8173465D01*
X4917947Y8178037D01*
X4908804Y8178037D01*
X4979670Y8155431D02*
G01*
X4979670Y8160004D01*
X4984241Y8168894D01*
X4988813Y8173465D01*
X4997958Y8178037D01*
X5015991Y8178037D01*
X5025136Y8173465D01*
X5029708Y8168894D01*
X5034279Y8160004D01*
X5034279Y8150860D01*
X5029708Y8141715D01*
X5020563Y8128000D01*
X4975097Y8082534D01*
X5038852Y8082534D01*
X5123434Y8178037D02*
G01*
X5077968Y8178037D01*
X5073395Y8137144D01*
X5077968Y8141715D01*
X5091429Y8146287D01*
X5105145Y8146287D01*
X5118861Y8141715D01*
X5128006Y8132571D01*
X5132324Y8119110D01*
X5132324Y8109965D01*
X5128006Y8096250D01*
X5118861Y8087105D01*
X5105145Y8082534D01*
X5091429Y8082534D01*
X5077968Y8087105D01*
X5073395Y8091678D01*
X5068824Y8100821D01*
X5162550Y8123681D02*
G01*
X5244338Y8123681D01*
X5301488Y8178037D02*
G01*
X5288025Y8173465D01*
X5278881Y8160004D01*
X5274309Y8137144D01*
X5274309Y8123681D01*
X5278881Y8100821D01*
X5288025Y8087105D01*
X5301488Y8082534D01*
X5310631Y8082534D01*
X5324347Y8087105D01*
X5333238Y8100821D01*
X5337809Y8123681D01*
X5337809Y8137144D01*
X5333238Y8160004D01*
X5324347Y8173465D01*
X5310631Y8178037D01*
X5301488Y8178037D01*
X5422391Y8164576D02*
G01*
X5417820Y8173465D01*
X5404358Y8178037D01*
X5395213Y8178037D01*
X5381497Y8173465D01*
X5372354Y8160004D01*
X5367781Y8137144D01*
X5367781Y8114537D01*
X5372354Y8096250D01*
X5381497Y8087105D01*
X5395213Y8082534D01*
X5399786Y8082534D01*
X5413247Y8087105D01*
X5422391Y8096250D01*
X5426963Y8109965D01*
X5426963Y8114537D01*
X5422391Y8128000D01*
X5413247Y8137144D01*
X5399786Y8141715D01*
X5395213Y8141715D01*
X5381497Y8137144D01*
X5372354Y8128000D01*
X5367781Y8114537D01*
X5456936Y8123681D02*
G01*
X5538724Y8123681D01*
X5596127Y8178037D02*
G01*
X5582411Y8173465D01*
X5573268Y8160004D01*
X5568695Y8137144D01*
X5568695Y8123681D01*
X5573268Y8100821D01*
X5582411Y8087105D01*
X5596127Y8082534D01*
X5605272Y8082534D01*
X5618734Y8087105D01*
X5627877Y8100821D01*
X5632450Y8123681D01*
X5632450Y8137144D01*
X5627877Y8160004D01*
X5618734Y8173465D01*
X5605272Y8178037D01*
X5596127Y8178037D01*
X5717031Y8178037D02*
G01*
X5671565Y8178037D01*
X5666993Y8137144D01*
X5671565Y8141715D01*
X5685281Y8146287D01*
X5698743Y8146287D01*
X5712459Y8141715D01*
X5721604Y8132571D01*
X5726175Y8119110D01*
X5726175Y8109965D01*
X5721604Y8096250D01*
X5712459Y8087105D01*
X5698743Y8082534D01*
X5685281Y8082534D01*
X5671565Y8087105D01*
X5666993Y8091678D01*
X5662422Y8100821D01*
D11*
X1106678Y9563608D02*
G01*
X1101344Y9574021D01*
X1090929Y9584436D01*
X1080770Y9589515D01*
X1059942Y9589515D01*
X1049528Y9584436D01*
X1039113Y9574021D01*
X1033779Y9563608D01*
X1028700Y9547860D01*
X1028700Y9521952D01*
X1033779Y9506458D01*
X1039113Y9496044D01*
X1049528Y9485629D01*
X1059942Y9480550D01*
X1080770Y9480550D01*
X1090929Y9485629D01*
X1101344Y9496044D01*
X1106678Y9506458D01*
X1106678Y9521952D01*
X1080770Y9521952D02*
G01*
X1106678Y9521952D01*
X1140968Y9589515D02*
G01*
X1140968Y9480550D01*
X1140968Y9589515D02*
G01*
X1213612Y9480550D01*
X1213612Y9589515D02*
G01*
X1213612Y9480550D01*
X1247902Y9589515D02*
G01*
X1247902Y9480550D01*
X1247902Y9589515D02*
G01*
X1284223Y9589515D01*
X1299971Y9584436D01*
X1310386Y9574021D01*
X1315465Y9563608D01*
X1320800Y9547860D01*
X1320800Y9521952D01*
X1315465Y9506458D01*
X1310386Y9496044D01*
X1299971Y9485629D01*
X1284223Y9480550D01*
X1247902Y9480550D01*
X1039113Y9335515D02*
G01*
X1096263Y9335515D01*
X1065021Y9293860D01*
X1080770Y9293860D01*
X1090929Y9288779D01*
X1096263Y9283700D01*
X1101344Y9267952D01*
X1101344Y9257537D01*
X1096263Y9242044D01*
X1085850Y9231629D01*
X1070355Y9226550D01*
X1054607Y9226550D01*
X1039113Y9231629D01*
X1033779Y9236710D01*
X1028700Y9247124D01*
X1135634Y9335515D02*
G01*
X1177289Y9226550D01*
X1218945Y9335515D02*
G01*
X1177289Y9226550D01*
X1263650Y9335515D02*
G01*
X1320800Y9335515D01*
X1289557Y9293860D01*
X1305052Y9293860D01*
X1315465Y9288779D01*
X1320800Y9283700D01*
X1325879Y9267952D01*
X1325879Y9257537D01*
X1320800Y9242044D01*
X1310386Y9231629D01*
X1294637Y9226550D01*
X1279144Y9226550D01*
X1263650Y9231629D01*
X1258315Y9236710D01*
X1253236Y9247124D01*
X1028700Y9081515D02*
G01*
X1028700Y8972550D01*
X1094231Y9081515D02*
G01*
X1083818Y9076436D01*
X1073404Y9066021D01*
X1068070Y9055608D01*
X1062989Y9039860D01*
X1062989Y9013952D01*
X1068070Y8998458D01*
X1073404Y8988044D01*
X1083818Y8977629D01*
X1094231Y8972550D01*
X1115060Y8972550D01*
X1125220Y8977629D01*
X1135634Y8988044D01*
X1140968Y8998458D01*
X1146047Y9013952D01*
X1146047Y9039860D01*
X1140968Y9055608D01*
X1135634Y9066021D01*
X1125220Y9076436D01*
X1115060Y9081515D01*
X1094231Y9081515D01*
X1211579Y9081515D02*
G01*
X1196086Y9076436D01*
X1185671Y9060687D01*
X1180337Y9034779D01*
X1180337Y9019286D01*
X1185671Y8993124D01*
X1196086Y8977629D01*
X1211579Y8972550D01*
X1221994Y8972550D01*
X1237487Y8977629D01*
X1247902Y8993124D01*
X1253236Y9019286D01*
X1253236Y9034779D01*
X1247902Y9060687D01*
X1237487Y9076436D01*
X1221994Y9081515D01*
X1211579Y9081515D01*
X1028700Y8814815D02*
G01*
X1028700Y8705850D01*
X1028700Y8814815D02*
G01*
X1096263Y8814815D01*
X1028700Y8763000D02*
G01*
X1070355Y8763000D01*
X1028700Y8705850D02*
G01*
X1096263Y8705850D01*
X1130554Y8814815D02*
G01*
X1130554Y8705850D01*
X1130554Y8814815D02*
G01*
X1203197Y8705850D01*
X1203197Y8814815D02*
G01*
X1203197Y8705850D01*
X1065021Y8560815D02*
G01*
X1065021Y8451850D01*
X1028700Y8560815D02*
G01*
X1101344Y8560815D01*
X1135634Y8560815D02*
G01*
X1208531Y8451850D01*
X1208531Y8560815D02*
G01*
X1135634Y8451850D01*
X1028700Y8306815D02*
G01*
X1028700Y8197850D01*
X1028700Y8306815D02*
G01*
X1075436Y8306815D01*
X1090929Y8301736D01*
X1096263Y8296402D01*
X1101344Y8285987D01*
X1101344Y8275573D01*
X1096263Y8265160D01*
X1090929Y8260079D01*
X1075436Y8255000D01*
X1028700Y8255000D01*
X1065021Y8255000D02*
G01*
X1101344Y8197850D01*
X1135634Y8306815D02*
G01*
X1208531Y8197850D01*
X1208531Y8306815D02*
G01*
X1135634Y8197850D01*
X3492754Y8080502D02*
G01*
X3540506Y8080502D01*
X3492754Y8064500D02*
G01*
X3492754Y8096250D01*
X3492754Y8111236D02*
G01*
X3540506Y8143239D01*
X3492754Y8143239D02*
G01*
X3540506Y8111236D01*
X3949954Y8077200D02*
G01*
X3997706Y8077200D01*
X3949954Y8077200D02*
G01*
X3949954Y8097773D01*
X3952240Y8104378D01*
X3954525Y8106663D01*
X3959097Y8108950D01*
X3963670Y8108950D01*
X3968241Y8106663D01*
X3970527Y8104378D01*
X3972813Y8097773D01*
X3972813Y8077200D01*
X3972813Y8093202D02*
G01*
X3997706Y8108950D01*
X3949954Y8123936D02*
G01*
X3997706Y8155939D01*
X3949954Y8155939D02*
G01*
X3997706Y8123936D01*
X3734054Y8064500D02*
G01*
X3781806Y8064500D01*
X3734054Y8064500D02*
G01*
X3734054Y8085073D01*
X3736340Y8091678D01*
X3738625Y8093963D01*
X3743197Y8096250D01*
X3747770Y8096250D01*
X3752341Y8093963D01*
X3754627Y8091678D01*
X3756913Y8085073D01*
X3756913Y8064500D01*
X3756913Y8080502D02*
G01*
X3781806Y8096250D01*
X3734054Y8127237D02*
G01*
X3781806Y8127237D01*
X3734054Y8111236D02*
G01*
X3734054Y8143239D01*
X3740911Y8189976D02*
G01*
X3736340Y8185404D01*
X3734054Y8178545D01*
X3734054Y8169402D01*
X3736340Y8162797D01*
X3740911Y8158226D01*
X3745484Y8158226D01*
X3750056Y8160512D01*
X3752341Y8162797D01*
X3754627Y8167115D01*
X3759200Y8180831D01*
X3761486Y8185404D01*
X3763772Y8187689D01*
X3768343Y8189976D01*
X3774947Y8189976D01*
X3779520Y8185404D01*
X3781806Y8178545D01*
X3781806Y8169402D01*
X3779520Y8162797D01*
X3774947Y8158226D01*
X4177284Y8111236D02*
G01*
X4172711Y8108950D01*
X4168140Y8104378D01*
X4165854Y8099805D01*
X4165854Y8090915D01*
X4168140Y8086344D01*
X4172711Y8081771D01*
X4177284Y8079486D01*
X4184141Y8077200D01*
X4195572Y8077200D01*
X4202429Y8079486D01*
X4206747Y8081771D01*
X4211320Y8086344D01*
X4213606Y8090915D01*
X4213606Y8099805D01*
X4211320Y8104378D01*
X4206747Y8108950D01*
X4202429Y8111236D01*
X4165854Y8142223D02*
G01*
X4213606Y8142223D01*
X4165854Y8126221D02*
G01*
X4165854Y8158226D01*
X4172711Y8204962D02*
G01*
X4168140Y8200389D01*
X4165854Y8193531D01*
X4165854Y8184387D01*
X4168140Y8177529D01*
X4172711Y8173212D01*
X4177284Y8173212D01*
X4181856Y8175497D01*
X4184141Y8177529D01*
X4186427Y8182102D01*
X4191000Y8195818D01*
X4193286Y8200389D01*
X4195572Y8202676D01*
X4200143Y8204962D01*
X4206747Y8204962D01*
X4211320Y8200389D01*
X4213606Y8193531D01*
X4213606Y8184387D01*
X4211320Y8177529D01*
X4206747Y8173212D01*
X2222500Y8306815D02*
G01*
X2222500Y8197850D01*
X2222500Y8306815D02*
G01*
X2269236Y8306815D01*
X2284729Y8301736D01*
X2290063Y8296402D01*
X2295143Y8285987D01*
X2295143Y8275573D01*
X2290063Y8265160D01*
X2284729Y8260079D01*
X2269236Y8255000D01*
X2222500Y8255000D01*
X2258822Y8255000D02*
G01*
X2295143Y8197850D01*
X2391918Y8306815D02*
G01*
X2339847Y8306815D01*
X2334768Y8260079D01*
X2339847Y8265160D01*
X2355595Y8270494D01*
X2371090Y8270494D01*
X2386584Y8265160D01*
X2396997Y8255000D01*
X2402331Y8239252D01*
X2402331Y8228837D01*
X2396997Y8213344D01*
X2386584Y8202929D01*
X2371090Y8197850D01*
X2355595Y8197850D01*
X2339847Y8202929D01*
X2334768Y8208010D01*
X2329434Y8218423D01*
X2590800Y8294115D02*
G01*
X2590800Y8216137D01*
X2595879Y8200644D01*
X2606293Y8190229D01*
X2622041Y8185150D01*
X2632456Y8185150D01*
X2647950Y8190229D01*
X2658363Y8200644D01*
X2663443Y8216137D01*
X2663443Y8294115D01*
X2749804Y8294115D02*
G01*
X2697734Y8221471D01*
X2775711Y8221471D01*
X2749804Y8294115D02*
G01*
X2749804Y8185150D01*
X3494277Y9589008D02*
G01*
X3488943Y9599421D01*
X3478529Y9609836D01*
X3468370Y9614915D01*
X3447541Y9614915D01*
X3437127Y9609836D01*
X3426713Y9599421D01*
X3421379Y9589008D01*
X3416300Y9573260D01*
X3416300Y9547352D01*
X3421379Y9531858D01*
X3426713Y9521444D01*
X3437127Y9511029D01*
X3447541Y9505950D01*
X3468370Y9505950D01*
X3478529Y9511029D01*
X3488943Y9521444D01*
X3494277Y9531858D01*
X3528568Y9594087D02*
G01*
X3538981Y9599421D01*
X3554475Y9614915D01*
X3554475Y9505950D01*
X3494277Y8903208D02*
G01*
X3488943Y8913621D01*
X3478529Y8924036D01*
X3468370Y8929115D01*
X3447541Y8929115D01*
X3437127Y8924036D01*
X3426713Y8913621D01*
X3421379Y8903208D01*
X3416300Y8887460D01*
X3416300Y8861552D01*
X3421379Y8846058D01*
X3426713Y8835644D01*
X3437127Y8825229D01*
X3447541Y8820150D01*
X3468370Y8820150D01*
X3478529Y8825229D01*
X3488943Y8835644D01*
X3494277Y8846058D01*
X3533647Y8903208D02*
G01*
X3533647Y8908287D01*
X3538981Y8918702D01*
X3544061Y8924036D01*
X3554475Y8929115D01*
X3575304Y8929115D01*
X3585718Y8924036D01*
X3590797Y8918702D01*
X3596131Y8908287D01*
X3596131Y8897874D01*
X3590797Y8887460D01*
X3580384Y8871965D01*
X3528568Y8820150D01*
X3601211Y8820150D01*
X4700777Y9347708D02*
G01*
X4695443Y9358121D01*
X4685029Y9368536D01*
X4674870Y9373615D01*
X4654041Y9373615D01*
X4643627Y9368536D01*
X4633213Y9358121D01*
X4627879Y9347708D01*
X4622800Y9331960D01*
X4622800Y9306052D01*
X4627879Y9290558D01*
X4633213Y9280144D01*
X4643627Y9269729D01*
X4654041Y9264650D01*
X4674870Y9264650D01*
X4685029Y9269729D01*
X4695443Y9280144D01*
X4700777Y9290558D01*
X4797297Y9358121D02*
G01*
X4792218Y9368536D01*
X4776470Y9373615D01*
X4766309Y9373615D01*
X4750561Y9368536D01*
X4740147Y9352787D01*
X4735068Y9326879D01*
X4735068Y9300971D01*
X4740147Y9280144D01*
X4750561Y9269729D01*
X4766309Y9264650D01*
X4771390Y9264650D01*
X4786884Y9269729D01*
X4797297Y9280144D01*
X4802631Y9295637D01*
X4802631Y9300971D01*
X4797297Y9316465D01*
X4786884Y9326879D01*
X4771390Y9331960D01*
X4766309Y9331960D01*
X4750561Y9326879D01*
X4740147Y9316465D01*
X4735068Y9300971D01*
X5118100Y9741915D02*
G01*
X5118100Y9632950D01*
X5118100Y9741915D02*
G01*
X5154422Y9741915D01*
X5170170Y9736836D01*
X5180329Y9726421D01*
X5185663Y9716008D01*
X5190743Y9700260D01*
X5190743Y9674352D01*
X5185663Y9658858D01*
X5180329Y9648444D01*
X5170170Y9638029D01*
X5154422Y9632950D01*
X5118100Y9632950D01*
X5225034Y9721087D02*
G01*
X5235447Y9726421D01*
X5251195Y9741915D01*
X5251195Y9632950D01*
X4851400Y9297415D02*
G01*
X4851400Y9188450D01*
X4851400Y9297415D02*
G01*
X4887722Y9297415D01*
X4903470Y9292336D01*
X4913629Y9281921D01*
X4918963Y9271508D01*
X4924043Y9255760D01*
X4924043Y9229852D01*
X4918963Y9214358D01*
X4913629Y9203944D01*
X4903470Y9193529D01*
X4887722Y9188450D01*
X4851400Y9188450D01*
X4963668Y9271508D02*
G01*
X4963668Y9276587D01*
X4968747Y9287002D01*
X4974081Y9292336D01*
X4984495Y9297415D01*
X5005070Y9297415D01*
X5015484Y9292336D01*
X5020818Y9287002D01*
X5025897Y9276587D01*
X5025897Y9266174D01*
X5020818Y9255760D01*
X5010404Y9240265D01*
X4958334Y9188450D01*
X5031231Y9188450D01*
X4851400Y8586215D02*
G01*
X4851400Y8477250D01*
X4851400Y8586215D02*
G01*
X4887722Y8586215D01*
X4903470Y8581136D01*
X4913629Y8570721D01*
X4918963Y8560308D01*
X4924043Y8544560D01*
X4924043Y8518652D01*
X4918963Y8503158D01*
X4913629Y8492744D01*
X4903470Y8482329D01*
X4887722Y8477250D01*
X4851400Y8477250D01*
X4968747Y8586215D02*
G01*
X5025897Y8586215D01*
X4994909Y8544560D01*
X5010404Y8544560D01*
X5020818Y8539479D01*
X5025897Y8534400D01*
X5031231Y8518652D01*
X5031231Y8508237D01*
X5025897Y8492744D01*
X5015484Y8482329D01*
X4999990Y8477250D01*
X4984495Y8477250D01*
X4968747Y8482329D01*
X4963668Y8487410D01*
X4958334Y8497824D01*
X3441700Y9284715D02*
G01*
X3441700Y9175750D01*
X3441700Y9175750D02*
G01*
X3503929Y9175750D01*
X3538220Y9263887D02*
G01*
X3548634Y9269221D01*
X3564381Y9284715D01*
X3564381Y9175750D01*
X1402842Y8433815D02*
G01*
X1392428Y8428736D01*
X1382013Y8418321D01*
X1376679Y8407908D01*
X1371600Y8392160D01*
X1371600Y8366252D01*
X1376679Y8350758D01*
X1382013Y8340344D01*
X1392428Y8329929D01*
X1402842Y8324850D01*
X1423670Y8324850D01*
X1433829Y8329929D01*
X1444244Y8340344D01*
X1449578Y8350758D01*
X1454657Y8366252D01*
X1454657Y8392160D01*
X1449578Y8407908D01*
X1444244Y8418321D01*
X1433829Y8428736D01*
X1423670Y8433815D01*
X1402842Y8433815D01*
X1418336Y8345423D02*
G01*
X1449578Y8314436D01*
X1488947Y8412987D02*
G01*
X1499362Y8418321D01*
X1515110Y8433815D01*
X1515110Y8324850D01*
X1440942Y9513315D02*
G01*
X1430528Y9508236D01*
X1420113Y9497821D01*
X1414779Y9487408D01*
X1409700Y9471660D01*
X1409700Y9445752D01*
X1414779Y9430258D01*
X1420113Y9419844D01*
X1430528Y9409429D01*
X1440942Y9404350D01*
X1461770Y9404350D01*
X1471929Y9409429D01*
X1482344Y9419844D01*
X1487678Y9430258D01*
X1492757Y9445752D01*
X1492757Y9471660D01*
X1487678Y9487408D01*
X1482344Y9497821D01*
X1471929Y9508236D01*
X1461770Y9513315D01*
X1440942Y9513315D01*
X1456436Y9424924D02*
G01*
X1487678Y9393936D01*
X1532381Y9487408D02*
G01*
X1532381Y9492487D01*
X1537462Y9502902D01*
X1542795Y9508236D01*
X1553210Y9513315D01*
X1573784Y9513315D01*
X1584197Y9508236D01*
X1589531Y9502902D01*
X1594612Y9492487D01*
X1594612Y9482074D01*
X1589531Y9471660D01*
X1579118Y9456165D01*
X1527047Y9404350D01*
X1599945Y9404350D01*
X1611884Y8826500D02*
G01*
X1720850Y8826500D01*
X1611884Y8826500D02*
G01*
X1611884Y8873236D01*
X1616963Y8888729D01*
X1622297Y8894063D01*
X1632712Y8899144D01*
X1643126Y8899144D01*
X1653539Y8894063D01*
X1658620Y8888729D01*
X1663700Y8873236D01*
X1663700Y8826500D01*
X1663700Y8862821D02*
G01*
X1720850Y8899144D01*
X1611884Y8943847D02*
G01*
X1611884Y9000997D01*
X1653539Y8970010D01*
X1653539Y8985504D01*
X1658620Y8995918D01*
X1663700Y9000997D01*
X1679447Y9006331D01*
X1689862Y9006331D01*
X1705355Y9000997D01*
X1715770Y8990584D01*
X1720850Y8975089D01*
X1720850Y8959595D01*
X1715770Y8943847D01*
X1710689Y8938768D01*
X1700276Y8933434D01*
X5638800Y9653015D02*
G01*
X5638800Y9575037D01*
X5643879Y9559544D01*
X5654293Y9549129D01*
X5670041Y9544050D01*
X5680456Y9544050D01*
X5695950Y9549129D01*
X5706363Y9559544D01*
X5711443Y9575037D01*
X5711443Y9653015D01*
X5745734Y9632187D02*
G01*
X5756147Y9637521D01*
X5771895Y9653015D01*
X5771895Y9544050D01*
X3810000Y9411715D02*
G01*
X3810000Y9333737D01*
X3815079Y9318244D01*
X3825493Y9307829D01*
X3841241Y9302750D01*
X3851656Y9302750D01*
X3867150Y9307829D01*
X3877563Y9318244D01*
X3882643Y9333737D01*
X3882643Y9411715D01*
X3922268Y9385808D02*
G01*
X3922268Y9390887D01*
X3927347Y9401302D01*
X3932681Y9406636D01*
X3943095Y9411715D01*
X3963670Y9411715D01*
X3974084Y9406636D01*
X3979418Y9401302D01*
X3984497Y9390887D01*
X3984497Y9380474D01*
X3979418Y9370060D01*
X3969004Y9354565D01*
X3916934Y9302750D01*
X3989831Y9302750D01*
X2768600Y9703815D02*
G01*
X2768600Y9625837D01*
X2773679Y9610344D01*
X2784093Y9599929D01*
X2799841Y9594850D01*
X2810256Y9594850D01*
X2825750Y9599929D01*
X2836163Y9610344D01*
X2841243Y9625837D01*
X2841243Y9703815D01*
X2885947Y9703815D02*
G01*
X2943097Y9703815D01*
X2912109Y9662160D01*
X2927604Y9662160D01*
X2938018Y9657079D01*
X2943097Y9652000D01*
X2948431Y9636252D01*
X2948431Y9625837D01*
X2943097Y9610344D01*
X2932684Y9599929D01*
X2917190Y9594850D01*
X2901695Y9594850D01*
X2885947Y9599929D01*
X2880868Y9605010D01*
X2875534Y9615424D01*
X3481522Y8573008D02*
G01*
X3476442Y8583421D01*
X3466028Y8593836D01*
X3455614Y8598915D01*
X3434786Y8598915D01*
X3424372Y8593836D01*
X3413958Y8583421D01*
X3408878Y8573008D01*
X3403544Y8557260D01*
X3403544Y8531352D01*
X3408878Y8515858D01*
X3413958Y8505444D01*
X3424372Y8495029D01*
X3434786Y8489950D01*
X3455614Y8489950D01*
X3466028Y8495029D01*
X3476442Y8505444D01*
X3481522Y8515858D01*
X3526226Y8598915D02*
G01*
X3583376Y8598915D01*
X3552134Y8557260D01*
X3567882Y8557260D01*
X3578042Y8552179D01*
X3583376Y8547100D01*
X3588456Y8531352D01*
X3588456Y8520937D01*
X3583376Y8505444D01*
X3572962Y8495029D01*
X3557468Y8489950D01*
X3541720Y8489950D01*
X3526226Y8495029D01*
X3520892Y8500110D01*
X3515812Y8510524D01*
X2656022Y8623808D02*
G01*
X2650942Y8634221D01*
X2640528Y8644636D01*
X2630114Y8649715D01*
X2609286Y8649715D01*
X2598872Y8644636D01*
X2588458Y8634221D01*
X2583378Y8623808D01*
X2578044Y8608060D01*
X2578044Y8582152D01*
X2583378Y8566658D01*
X2588458Y8556244D01*
X2598872Y8545829D01*
X2609286Y8540750D01*
X2630114Y8540750D01*
X2640528Y8545829D01*
X2650942Y8556244D01*
X2656022Y8566658D01*
X2742382Y8649715D02*
G01*
X2690312Y8577071D01*
X2768290Y8577071D01*
X2742382Y8649715D02*
G01*
X2742382Y8540750D01*
X2287722Y8623808D02*
G01*
X2282642Y8634221D01*
X2272228Y8644636D01*
X2261814Y8649715D01*
X2240986Y8649715D01*
X2230572Y8644636D01*
X2220158Y8634221D01*
X2215078Y8623808D01*
X2209744Y8608060D01*
X2209744Y8582152D01*
X2215078Y8566658D01*
X2220158Y8556244D01*
X2230572Y8545829D01*
X2240986Y8540750D01*
X2261814Y8540750D01*
X2272228Y8545829D01*
X2282642Y8556244D01*
X2287722Y8566658D01*
X2384242Y8649715D02*
G01*
X2332426Y8649715D01*
X2327092Y8602979D01*
X2332426Y8608060D01*
X2347920Y8613394D01*
X2363668Y8613394D01*
X2379162Y8608060D01*
X2389576Y8597900D01*
X2394656Y8582152D01*
X2394656Y8571737D01*
X2389576Y8556244D01*
X2379162Y8545829D01*
X2363668Y8540750D01*
X2347920Y8540750D01*
X2332426Y8545829D01*
X2327092Y8550910D01*
X2322012Y8561324D01*
X4700722Y8496808D02*
G01*
X4695642Y8507221D01*
X4685228Y8517636D01*
X4674814Y8522715D01*
X4653986Y8522715D01*
X4643572Y8517636D01*
X4633158Y8507221D01*
X4628078Y8496808D01*
X4622744Y8481060D01*
X4622744Y8455152D01*
X4628078Y8439658D01*
X4633158Y8429244D01*
X4643572Y8418829D01*
X4653986Y8413750D01*
X4674814Y8413750D01*
X4685228Y8418829D01*
X4695642Y8429244D01*
X4700722Y8439658D01*
X4807656Y8522715D02*
G01*
X4755840Y8413750D01*
X4735012Y8522715D02*
G01*
X4807656Y8522715D01*
X3124118Y9373615D02*
G01*
X3124118Y9264650D01*
X3124118Y9373615D02*
G01*
X3160694Y9373615D01*
X3176188Y9368536D01*
X3186602Y9358121D01*
X3191682Y9347708D01*
X3197016Y9331960D01*
X3197016Y9306052D01*
X3191682Y9290558D01*
X3186602Y9280144D01*
X3176188Y9269729D01*
X3160694Y9264650D01*
X3124118Y9264650D01*
X3283122Y9373615D02*
G01*
X3231306Y9300971D01*
X3309284Y9300971D01*
X3283122Y9373615D02*
G01*
X3283122Y9264650D01*
X4432300Y9373615D02*
G01*
X4432300Y9264650D01*
X4432300Y9373615D02*
G01*
X4479036Y9373615D01*
X4494529Y9368536D01*
X4499863Y9363202D01*
X4504943Y9352787D01*
X4504943Y9342374D01*
X4499863Y9331960D01*
X4494529Y9326879D01*
X4479036Y9321800D01*
X4432300Y9321800D01*
X4468622Y9321800D02*
G01*
X4504943Y9264650D01*
X4539234Y9352787D02*
G01*
X4549647Y9358121D01*
X4565395Y9373615D01*
X4565395Y9264650D01*
X4394200Y8522715D02*
G01*
X4394200Y8413750D01*
X4394200Y8522715D02*
G01*
X4440936Y8522715D01*
X4456429Y8517636D01*
X4461763Y8512302D01*
X4466843Y8501887D01*
X4466843Y8491474D01*
X4461763Y8481060D01*
X4456429Y8475979D01*
X4440936Y8470900D01*
X4394200Y8470900D01*
X4430522Y8470900D02*
G01*
X4466843Y8413750D01*
X4506468Y8496808D02*
G01*
X4506468Y8501887D01*
X4511547Y8512302D01*
X4516881Y8517636D01*
X4527295Y8522715D01*
X4547870Y8522715D01*
X4558284Y8517636D01*
X4563618Y8512302D01*
X4568697Y8501887D01*
X4568697Y8491474D01*
X4563618Y8481060D01*
X4553204Y8465565D01*
X4501134Y8413750D01*
X4574031Y8413750D01*
X1827784Y8839121D02*
G01*
X1936750Y8839121D01*
X1827784Y8839121D02*
G01*
X1827784Y8885857D01*
X1832863Y8901605D01*
X1838197Y8906685D01*
X1848612Y8912019D01*
X1859026Y8912019D01*
X1869439Y8906685D01*
X1874520Y8901605D01*
X1879600Y8885857D01*
X1879600Y8839121D01*
X1879600Y8875443D02*
G01*
X1936750Y8912019D01*
X1827784Y8998125D02*
G01*
X1900428Y8946309D01*
X1900428Y9024033D01*
X1827784Y8998125D02*
G01*
X1936750Y8998125D01*
X4027677Y9639808D02*
G01*
X4022343Y9650221D01*
X4011929Y9660636D01*
X4001770Y9665715D01*
X3980941Y9665715D01*
X3970527Y9660636D01*
X3960113Y9650221D01*
X3954779Y9639808D01*
X3949700Y9624060D01*
X3949700Y9598152D01*
X3954779Y9582658D01*
X3960113Y9572244D01*
X3970527Y9561829D01*
X3980941Y9556750D01*
X4001770Y9556750D01*
X4011929Y9561829D01*
X4022343Y9572244D01*
X4027677Y9582658D01*
X4087875Y9665715D02*
G01*
X4072381Y9660636D01*
X4067047Y9650221D01*
X4067047Y9639808D01*
X4072381Y9629394D01*
X4082795Y9624060D01*
X4103370Y9618979D01*
X4119118Y9613900D01*
X4129531Y9603486D01*
X4134611Y9593071D01*
X4134611Y9577324D01*
X4129531Y9566910D01*
X4124197Y9561829D01*
X4108704Y9556750D01*
X4087875Y9556750D01*
X4072381Y9561829D01*
X4067047Y9566910D01*
X4061968Y9577324D01*
X4061968Y9593071D01*
X4067047Y9603486D01*
X4077461Y9613900D01*
X4093209Y9618979D01*
X4113784Y9624060D01*
X4124197Y9629394D01*
X4129531Y9639808D01*
X4129531Y9650221D01*
X4124197Y9660636D01*
X4108704Y9665715D01*
X4087875Y9665715D01*
G36*
X3306622Y9183217D02*
G01*
X3306622Y9137497D01*
X3353358Y9137497D01*
X3353358Y9183217D01*
G37*
G36*
X3072841Y9183217D02*
G01*
X3072841Y9137497D01*
X3119577Y9137497D01*
X3119577Y9183217D01*
G37*
X2392121Y8328639D02*
G01*
X2488008Y8328639D01*
X2488008Y8460760D01*
X2392121Y8460760D01*
X2306878Y8328639D02*
G01*
X2210991Y8328639D01*
X2210991Y8460760D01*
X2306878Y8460760D01*
D12*
X2765242Y8362348D02*
G01*
X2764246Y8362348D01*
X2731241Y8395352D01*
X2765242Y8430351D02*
G01*
X2765242Y8429353D01*
X2731241Y8395352D01*
X2765242Y8430351D02*
G01*
X2765242Y8362348D01*
X2767246Y8470358D02*
G01*
X2882247Y8470358D01*
X2767246Y8320346D02*
G01*
X2882247Y8320346D01*
X2882247Y8470348D02*
G01*
X2882247Y8322355D01*
X2729245Y8320115D02*
G01*
X2624234Y8320115D01*
X2594239Y8360122D02*
G01*
X2594239Y8350120D01*
X2624234Y8320115D01*
X2594239Y8430117D02*
G01*
X2594239Y8360122D01*
X2594239Y8430117D02*
G01*
X2594239Y8440132D01*
X2624234Y8470127D01*
X2729245Y8470127D02*
G01*
X2624234Y8470127D01*
X2765242Y8395352D02*
G01*
X2731241Y8395352D01*
D13*
X3584018Y9468957D02*
G01*
X3664016Y9468957D01*
X3527973Y9469003D02*
G01*
X3447976Y9469003D01*
X3584018Y9326989D02*
G01*
X3664016Y9326989D01*
X3527973Y9327037D02*
G01*
X3447976Y9327037D01*
X3694991Y9437974D02*
G01*
X3694991Y9357969D01*
X3416998Y9358022D02*
G01*
X3416998Y9438025D01*
X3527981Y8641242D02*
G01*
X3447983Y8641242D01*
X3584026Y8641196D02*
G01*
X3664023Y8641196D01*
X3527981Y8783210D02*
G01*
X3447983Y8783210D01*
X3584026Y8783162D02*
G01*
X3664023Y8783162D01*
X3417008Y8672225D02*
G01*
X3417008Y8752230D01*
X3695001Y8752177D02*
G01*
X3695001Y8672174D01*
X4782657Y9039781D02*
G01*
X4782657Y8959783D01*
X4782703Y9095826D02*
G01*
X4782703Y9175823D01*
X4640689Y9039781D02*
G01*
X4640689Y8959783D01*
X4640737Y9095826D02*
G01*
X4640737Y9175823D01*
X4751674Y8928808D02*
G01*
X4671669Y8928808D01*
X4671722Y9206801D02*
G01*
X4751725Y9206801D01*
D12*
X5068496Y9589206D02*
G01*
X5068496Y9541205D01*
X5068496Y9538208D01*
X5058493Y9528205D01*
X4984495Y9528205D01*
X4973495Y9528205D01*
X4966495Y9535205D01*
X4966495Y9588205D01*
X5057498Y9510204D02*
G01*
X4981496Y9510204D01*
X4975499Y9692187D02*
G01*
X5051501Y9692187D01*
X4964501Y9613186D02*
G01*
X4964501Y9661187D01*
X4964501Y9664184D01*
X4974503Y9674186D01*
X5048501Y9674186D01*
X5059502Y9674186D01*
X5066502Y9667186D01*
X5066502Y9614187D01*
X4862903Y8762293D02*
G01*
X4862903Y8810294D01*
X4862903Y8813292D01*
X4872906Y8823294D01*
X4946904Y8823294D01*
X4957904Y8823294D01*
X4964904Y8816294D01*
X4964904Y8763294D01*
X4873901Y8841295D02*
G01*
X4949903Y8841295D01*
X4955900Y8659312D02*
G01*
X4879898Y8659312D01*
X4966898Y8738313D02*
G01*
X4966898Y8690312D01*
X4966898Y8687315D01*
X4956896Y8677313D01*
X4882898Y8677313D01*
X4871897Y8677313D01*
X4864897Y8684313D01*
X4864897Y8737312D01*
X4966896Y9017706D02*
G01*
X4966896Y8969705D01*
X4966896Y8966708D01*
X4956893Y8956705D01*
X4882895Y8956705D01*
X4871895Y8956705D01*
X4864895Y8963705D01*
X4864895Y9016705D01*
X4955898Y8938704D02*
G01*
X4879896Y8938704D01*
X4873899Y9120687D02*
G01*
X4949901Y9120687D01*
X4862901Y9041686D02*
G01*
X4862901Y9089687D01*
X4862901Y9092684D01*
X4872903Y9102686D01*
X4946901Y9102686D01*
X4957902Y9102686D01*
X4964902Y9095686D01*
X4964902Y9042687D01*
D13*
X479000Y9671999D02*
G01*
X479000Y8108000D01*
X733000Y8108000D02*
G01*
X479000Y8108000D01*
X733000Y9671999D02*
G01*
X733000Y8108000D01*
X478995Y8801999D02*
G01*
X-80634Y8801999D01*
X-120997Y8761628D01*
X478995Y8715908D02*
G01*
X-82897Y8715908D01*
X-120997Y8754008D01*
X449000Y9054183D02*
G01*
X-110629Y9054183D01*
X449000Y8968092D02*
G01*
X-112897Y8968092D01*
X479000Y9054183D02*
G01*
X-80629Y9054183D01*
X-120997Y9013812D01*
X479000Y8968092D02*
G01*
X-82897Y8968092D01*
X-120997Y9006192D01*
X479000Y9308089D02*
G01*
X-80629Y9308089D01*
X-120997Y9267718D01*
X479000Y9221998D02*
G01*
X-82897Y9221998D01*
X-120997Y9260098D01*
X449000Y9568091D02*
G01*
X-110629Y9568091D01*
X449000Y9482000D02*
G01*
X-112897Y9482000D01*
X479000Y9568091D02*
G01*
X-80629Y9568091D01*
X-120997Y9527722D01*
X479000Y9482000D02*
G01*
X-82897Y9482000D01*
X-120997Y9520100D01*
X449000Y8298091D02*
G01*
X-110629Y8298091D01*
X449000Y8212000D02*
G01*
X-112897Y8212000D01*
X479000Y8298091D02*
G01*
X-80629Y8298091D01*
X-120997Y8257722D01*
X479000Y8212000D02*
G01*
X-82897Y8212000D01*
X-120997Y8250100D01*
X479000Y8551999D02*
G01*
X-80629Y8551999D01*
X-120997Y8511628D01*
X479000Y8465908D02*
G01*
X-82897Y8465908D01*
X-120997Y8504008D01*
X479000Y9671999D02*
G01*
X733000Y9671999D01*
D11*
X3683000Y9132935D02*
G01*
X3698410Y9117700D01*
X3698410Y9016057D01*
X3683000Y9002801D01*
X3429000Y9002801D02*
G01*
X3413584Y9017901D01*
X3413584Y9119544D01*
X3429000Y9132801D01*
D14*
X3683200Y9002801D02*
G01*
X3607000Y9002801D01*
X3428794Y9132801D02*
G01*
X3504994Y9132801D01*
X3683200Y9132801D02*
G01*
X3607000Y9132801D01*
X3428794Y9002801D02*
G01*
X3504994Y9002801D01*
D13*
X1632000Y8479789D02*
G01*
X1632000Y8561298D01*
X1697989Y8561298D01*
X1858010Y8561298D02*
G01*
X1923999Y8561298D01*
X1858010Y8561298D01*
X1923999Y8561298D01*
X1923999Y8479789D01*
D15*
X1748002Y8406307D02*
G01*
X1807997Y8406307D01*
D13*
X1923999Y9300210D02*
G01*
X1923999Y9218701D01*
X1858010Y9218701D01*
X1697989Y9218701D02*
G01*
X1632000Y9218701D01*
X1697989Y9218701D01*
X1632000Y9218701D01*
X1632000Y9300210D01*
D15*
X1807997Y9373692D02*
G01*
X1748002Y9373692D01*
D11*
X1457939Y8847378D02*
G01*
X1457939Y8751491D01*
X1590060Y8751491D01*
X1590060Y8847378D01*
X1457939Y8932621D02*
G01*
X1457939Y9028508D01*
X1590060Y9028508D01*
X1590060Y8932621D01*
D13*
X6709600Y8998389D02*
G01*
X6709600Y9248388D01*
X6959600Y9248388D01*
X6959600Y8998389D01*
X6709600Y8998389D01*
X6709600Y8498390D02*
G01*
X6709600Y8748389D01*
X6959600Y8748389D01*
X6959600Y8498390D01*
X6709600Y8498390D01*
X7238997Y8290001D02*
G01*
X7238997Y9489998D01*
X7238997Y9489998D02*
G01*
X5645823Y9489998D01*
X7238997Y8290001D02*
G01*
X5645823Y8290001D01*
X5364002Y8392970D02*
G01*
X5364002Y9387029D01*
D11*
X3819077Y8712883D02*
G01*
X3819077Y9067167D01*
X4334322Y9067167D01*
X4334322Y8712883D01*
X3819077Y8712883D01*
D13*
X2185001Y9476402D02*
G01*
X2185001Y9116400D01*
X2894998Y9476402D02*
G01*
X2894998Y9116400D01*
X2185001Y9116400D02*
G01*
X2894998Y9116400D01*
X2185001Y9476402D02*
G01*
X2894998Y9476399D01*
X3527981Y8311042D02*
G01*
X3447983Y8311042D01*
X3584026Y8310996D02*
G01*
X3664023Y8310996D01*
X3527981Y8453010D02*
G01*
X3447983Y8453010D01*
X3584026Y8452962D02*
G01*
X3664023Y8452962D01*
X3417008Y8342025D02*
G01*
X3417008Y8422030D01*
X3695001Y8421977D02*
G01*
X3695001Y8341974D01*
X2771218Y8821257D02*
G01*
X2851216Y8821257D01*
X2715173Y8821303D02*
G01*
X2635176Y8821303D01*
X2771218Y8679289D02*
G01*
X2851216Y8679289D01*
X2715173Y8679337D02*
G01*
X2635176Y8679337D01*
X2882191Y8790274D02*
G01*
X2882191Y8710269D01*
X2604198Y8710322D02*
G01*
X2604198Y8790325D01*
X2377518Y8821257D02*
G01*
X2457516Y8821257D01*
X2321473Y8821303D02*
G01*
X2241476Y8821303D01*
X2377518Y8679289D02*
G01*
X2457516Y8679289D01*
X2321473Y8679337D02*
G01*
X2241476Y8679337D01*
X2488491Y8790274D02*
G01*
X2488491Y8710269D01*
X2210498Y8710322D02*
G01*
X2210498Y8790325D01*
X4640742Y8740218D02*
G01*
X4640742Y8820216D01*
X4640696Y8684173D02*
G01*
X4640696Y8604176D01*
X4782710Y8740218D02*
G01*
X4782710Y8820216D01*
X4782662Y8684173D02*
G01*
X4782662Y8604176D01*
X4671725Y8851191D02*
G01*
X4751730Y8851191D01*
X4751677Y8573198D02*
G01*
X4671674Y8573198D01*
D11*
X3345721Y9145120D02*
G01*
X3345721Y8634879D01*
X3080478Y9145120D02*
G01*
X3080478Y8634879D01*
X3345721Y9002930D02*
G01*
X3080478Y9002930D01*
X3345721Y8634879D02*
G01*
X3311720Y8634879D01*
X3080478Y8634879D02*
G01*
X3114479Y8634879D01*
X4561860Y9110421D02*
G01*
X4561860Y9206308D01*
X4429739Y9206308D01*
X4429739Y9110421D01*
X4561860Y9025178D02*
G01*
X4561860Y8929291D01*
X4429739Y8929291D01*
X4429739Y9025178D01*
X4429739Y8669578D02*
G01*
X4429739Y8573691D01*
X4561860Y8573691D01*
X4561860Y8669578D01*
X4429739Y8754821D02*
G01*
X4429739Y8850708D01*
X4561860Y8850708D01*
X4561860Y8754821D01*
X2098060Y8932621D02*
G01*
X2098060Y9028508D01*
X1965939Y9028508D01*
X1965939Y8932621D01*
X2098060Y8847378D02*
G01*
X2098060Y8751491D01*
X1965939Y8751491D01*
X1965939Y8847378D01*
D13*
X4170842Y9476818D02*
G01*
X4170842Y9556816D01*
X4170796Y9420773D02*
G01*
X4170796Y9340776D01*
X4312810Y9476818D02*
G01*
X4312810Y9556816D01*
X4312762Y9420773D02*
G01*
X4312762Y9340776D01*
X4201825Y9587791D02*
G01*
X4281830Y9587791D01*
X4281777Y9309798D02*
G01*
X4201774Y9309798D01*
G75*
G01*
X3447981Y9327037D02*
G02*
X3416999Y9358023I0J30983D01*
G75*
G01*
X3416999Y9438020D02*
G02*
X3447981Y9469003I30982J0D01*
G75*
G01*
X3664011Y9468957D02*
G02*
X3694991Y9437975I-3J-30982D01*
G75*
G01*
X3694991Y9357977D02*
G02*
X3664011Y9326989I-30983J-5D01*
G75*
G01*
X3664019Y8783163D02*
G02*
X3695001Y8752177I0J-30983D01*
G75*
G01*
X3695001Y8672180D02*
G02*
X3664019Y8641197I-30982J0D01*
G75*
G01*
X3447989Y8641243D02*
G02*
X3417009Y8672225I3J30982D01*
G75*
G01*
X3417009Y8752223D02*
G02*
X3447989Y8783211I30983J5D01*
G75*
G01*
X4640737Y9175819D02*
G02*
X4671723Y9206801I30983J0D01*
G75*
G01*
X4751720Y9206801D02*
G02*
X4782703Y9175819I0J-30982D01*
G75*
G01*
X4782657Y8959789D02*
G02*
X4751675Y8928809I-30982J3D01*
G75*
G01*
X4671677Y8928809D02*
G02*
X4640689Y8959789I-5J30983D01*
G75*
G01*
X3664019Y8452963D02*
G02*
X3695001Y8421977I0J-30983D01*
G75*
G01*
X3695001Y8341980D02*
G02*
X3664019Y8310997I-30982J0D01*
G75*
G01*
X3447989Y8311043D02*
G02*
X3417009Y8342025I3J30982D01*
G75*
G01*
X3417009Y8422023D02*
G02*
X3447989Y8453011I30983J5D01*
G75*
G01*
X2635181Y8679337D02*
G02*
X2604199Y8710323I0J30983D01*
G75*
G01*
X2604199Y8790320D02*
G02*
X2635181Y8821303I30982J0D01*
G75*
G01*
X2851211Y8821257D02*
G02*
X2882191Y8790275I-3J-30982D01*
G75*
G01*
X2882191Y8710277D02*
G02*
X2851211Y8679289I-30983J-5D01*
G75*
G01*
X2241481Y8679337D02*
G02*
X2210499Y8710323I0J30983D01*
G75*
G01*
X2210499Y8790320D02*
G02*
X2241481Y8821303I30982J0D01*
G75*
G01*
X2457511Y8821257D02*
G02*
X2488491Y8790275I-3J-30982D01*
G75*
G01*
X2488491Y8710277D02*
G02*
X2457511Y8679289I-30983J-5D01*
G75*
G01*
X4782663Y8604181D02*
G02*
X4751677Y8573199I-30983J0D01*
G75*
G01*
X4671680Y8573199D02*
G02*
X4640697Y8604181I0J30982D01*
G75*
G01*
X4640743Y8820211D02*
G02*
X4671725Y8851191I30982J-3D01*
G75*
G01*
X4751723Y8851191D02*
G02*
X4782711Y8820211I5J-30983D01*
G75*
G01*
X4312763Y9340781D02*
G02*
X4281777Y9309799I-30983J0D01*
G75*
G01*
X4201780Y9309799D02*
G02*
X4170797Y9340781I0J30982D01*
G75*
G01*
X4170843Y9556811D02*
G02*
X4201825Y9587791I30982J-3D01*
G75*
G01*
X4281823Y9587791D02*
G02*
X4312811Y9556811I5J-30983D01*
D16*
G75*
G01
X3801821Y8603412D02*
G03X3801821Y8603412I-15011J0D01*
G75*
G01
X3864204Y8788095D02*
G03X3864204Y8788095I-15011J0D01*
M02*
