G04 Layer: TopLayer*
G04 EasyEDA v6.5.50, 2025-07-01 14:26:41*
G04 10da637b71844612bdca41047c5aba70,f23c0848bd594b818c0f9a27fb038be7,10*
G04 Gerber Generator version 0.2*
G04 Scale: 100 percent, Rotated: No, Reflected: No *
G04 Dimensions in millimeters *
G04 leading zeros omitted , absolute positions ,4 integer and 5 decimal *
%FSLAX45Y45*%
%MOMM*%

%AMMACRO1*21,1,$1,$2,0,0,$3*%
%ADD10C,0.2540*%
%ADD11R,1.2700X1.2700*%
%ADD12MACRO1,0.864X0.8065X90.0000*%
%ADD13R,0.8000X0.8000*%
%ADD14R,0.8000X0.9000*%
%ADD15R,0.9000X0.8000*%
%ADD16R,0.7000X0.4000*%
%ADD17R,0.8000X0.8640*%
%ADD18R,0.7000X1.2500*%
%ADD19MACRO1,0.864X0.8065X0.0000*%
%ADD20R,0.8640X0.8065*%
%ADD21R,2.0000X1.2000*%
%ADD22O,0.3430016X1.7314926000000002*%
%ADD23R,3.5000X2.2000*%
%ADD24R,1.1000X2.2000*%
%ADD25MACRO1,1.566X2.1075X0.0000*%
%ADD26R,1.8000X1.8000*%
%ADD27C,1.8000*%
%ADD28O,3.1999936X1.2999974*%
%ADD29C,0.6200*%
%ADD30C,0.0164*%

%LPD*%
G36*
X467868Y8014208D02*
G01*
X463956Y8014970D01*
X460705Y8017205D01*
X458470Y8020456D01*
X457708Y8024368D01*
X457708Y9755632D01*
X458470Y9759543D01*
X460705Y9762794D01*
X463956Y9765030D01*
X467868Y9765792D01*
X3914648Y9765792D01*
X3918559Y9765030D01*
X3921861Y9762794D01*
X3924046Y9759543D01*
X3924808Y9755632D01*
X3924046Y9751720D01*
X3921861Y9748469D01*
X3645306Y9471863D01*
X3642004Y9469678D01*
X3638092Y9468916D01*
X3586581Y9468916D01*
X3580231Y9468205D01*
X3574796Y9466275D01*
X3569868Y9463227D01*
X3565804Y9459112D01*
X3564585Y9457232D01*
X3561791Y9454286D01*
X3558032Y9452660D01*
X3553968Y9452660D01*
X3550208Y9454286D01*
X3547414Y9457232D01*
X3546195Y9459112D01*
X3542131Y9463227D01*
X3537204Y9466275D01*
X3531768Y9468205D01*
X3525418Y9468916D01*
X3512362Y9468916D01*
X3512362Y9426854D01*
X3549904Y9426854D01*
X3553815Y9426092D01*
X3557117Y9423857D01*
X3559301Y9420555D01*
X3560064Y9416694D01*
X3560064Y9379305D01*
X3559301Y9375444D01*
X3557117Y9372142D01*
X3553815Y9369907D01*
X3549904Y9369145D01*
X3512362Y9369145D01*
X3512362Y9327083D01*
X3525418Y9327083D01*
X3531768Y9327794D01*
X3537204Y9329724D01*
X3542131Y9332772D01*
X3546195Y9336887D01*
X3547414Y9338767D01*
X3550208Y9341713D01*
X3553968Y9343339D01*
X3558032Y9343339D01*
X3561791Y9341713D01*
X3564585Y9338767D01*
X3565804Y9336887D01*
X3569868Y9332772D01*
X3574796Y9329724D01*
X3580587Y9327692D01*
X3584143Y9325559D01*
X3586530Y9322155D01*
X3587394Y9318091D01*
X3587394Y9145879D01*
X3586530Y9141815D01*
X3584143Y9138462D01*
X3580587Y9136278D01*
X3574796Y9134297D01*
X3569868Y9131198D01*
X3565804Y9127083D01*
X3564585Y9125204D01*
X3561791Y9122257D01*
X3558032Y9120682D01*
X3553968Y9120682D01*
X3550208Y9122257D01*
X3547414Y9125204D01*
X3546195Y9127083D01*
X3542131Y9131198D01*
X3537204Y9134297D01*
X3531768Y9136176D01*
X3525418Y9136888D01*
X3446576Y9136888D01*
X3440277Y9136176D01*
X3434791Y9134297D01*
X3429914Y9131198D01*
X3425799Y9127083D01*
X3422700Y9122206D01*
X3420821Y9116720D01*
X3420110Y9110421D01*
X3420110Y9025178D01*
X3420821Y9018828D01*
X3422700Y9013393D01*
X3425799Y9008465D01*
X3429914Y9004401D01*
X3434791Y9001302D01*
X3440582Y8999270D01*
X3444138Y8997137D01*
X3446576Y8993733D01*
X3447389Y8989669D01*
X3447389Y8792108D01*
X3446526Y8788044D01*
X3444138Y8784640D01*
X3440582Y8782507D01*
X3434791Y8780475D01*
X3429914Y8777427D01*
X3425799Y8773312D01*
X3422700Y8768435D01*
X3420821Y8762949D01*
X3420110Y8756650D01*
X3420110Y8667750D01*
X3420821Y8661450D01*
X3422700Y8655964D01*
X3425799Y8651087D01*
X3429914Y8646972D01*
X3434791Y8643924D01*
X3440582Y8641892D01*
X3444138Y8639759D01*
X3446526Y8636355D01*
X3447389Y8632291D01*
X3447389Y8499754D01*
X3446627Y8495842D01*
X3444392Y8492540D01*
X3441141Y8490356D01*
X3437229Y8489594D01*
X3433318Y8490356D01*
X3430066Y8492540D01*
X3320287Y8602319D01*
X3318103Y8605621D01*
X3317290Y8609482D01*
X3317290Y8756192D01*
X3316579Y8762492D01*
X3314700Y8767978D01*
X3311601Y8772855D01*
X3307537Y8776970D01*
X3302609Y8780018D01*
X3297174Y8781948D01*
X3290824Y8782659D01*
X3135376Y8782659D01*
X3129026Y8781948D01*
X3123590Y8780018D01*
X3118662Y8776970D01*
X3114598Y8772855D01*
X3111500Y8767978D01*
X3109620Y8762492D01*
X3108909Y8756192D01*
X3108909Y8546592D01*
X3109620Y8540242D01*
X3111500Y8534806D01*
X3114598Y8529878D01*
X3118662Y8525814D01*
X3123590Y8522716D01*
X3129026Y8520785D01*
X3135376Y8520074D01*
X3145078Y8520074D01*
X3148939Y8519312D01*
X3152241Y8517128D01*
X3154426Y8513826D01*
X3155238Y8509914D01*
X3154426Y8506053D01*
X3152241Y8502751D01*
X3085795Y8436305D01*
X3082493Y8434070D01*
X3078581Y8433308D01*
X2898038Y8433308D01*
X2893974Y8434171D01*
X2890621Y8436559D01*
X2888488Y8440115D01*
X2886456Y8445906D01*
X2883357Y8450834D01*
X2879242Y8454898D01*
X2874365Y8457996D01*
X2868879Y8459927D01*
X2862580Y8460638D01*
X2783738Y8460638D01*
X2777388Y8459927D01*
X2771952Y8457996D01*
X2767025Y8454898D01*
X2762961Y8450834D01*
X2759862Y8445906D01*
X2757932Y8440470D01*
X2757220Y8434120D01*
X2757220Y8355279D01*
X2757932Y8348980D01*
X2759862Y8343493D01*
X2762961Y8338616D01*
X2767025Y8334502D01*
X2771952Y8331403D01*
X2777388Y8329523D01*
X2783738Y8328812D01*
X2862580Y8328812D01*
X2868879Y8329523D01*
X2874365Y8331403D01*
X2879242Y8334502D01*
X2883357Y8338616D01*
X2886456Y8343493D01*
X2888437Y8349284D01*
X2890621Y8352840D01*
X2893974Y8355228D01*
X2898038Y8356092D01*
X3098292Y8356092D01*
X3106318Y8356904D01*
X3113532Y8359089D01*
X3120237Y8362645D01*
X3126435Y8367775D01*
X3240024Y8481364D01*
X3245154Y8487562D01*
X3248710Y8494268D01*
X3250895Y8501430D01*
X3251758Y8510828D01*
X3252774Y8514435D01*
X3255010Y8517432D01*
X3258210Y8519414D01*
X3261867Y8520074D01*
X3289096Y8520074D01*
X3293008Y8519312D01*
X3296259Y8517128D01*
X3417112Y8396274D01*
X3419348Y8392972D01*
X3420110Y8389112D01*
X3420110Y8337550D01*
X3420821Y8331250D01*
X3422700Y8325764D01*
X3425799Y8320887D01*
X3429914Y8316772D01*
X3434791Y8313724D01*
X3440277Y8311794D01*
X3446576Y8311083D01*
X3525418Y8311083D01*
X3531768Y8311794D01*
X3537204Y8313724D01*
X3542131Y8316772D01*
X3546195Y8320887D01*
X3547414Y8322767D01*
X3550208Y8325713D01*
X3553968Y8327339D01*
X3558032Y8327339D01*
X3561791Y8325713D01*
X3564585Y8322767D01*
X3565804Y8320887D01*
X3569868Y8316772D01*
X3574796Y8313724D01*
X3580231Y8311794D01*
X3586581Y8311083D01*
X3599637Y8311083D01*
X3599637Y8353145D01*
X3562096Y8353145D01*
X3558184Y8353907D01*
X3554882Y8356142D01*
X3552698Y8359444D01*
X3551936Y8363305D01*
X3551936Y8400694D01*
X3552698Y8404555D01*
X3554882Y8407857D01*
X3558184Y8410092D01*
X3562096Y8410854D01*
X3599637Y8410854D01*
X3599637Y8452916D01*
X3586581Y8452916D01*
X3580231Y8452205D01*
X3574796Y8450275D01*
X3569868Y8447227D01*
X3565804Y8443112D01*
X3564585Y8441232D01*
X3561791Y8438286D01*
X3558032Y8436660D01*
X3553968Y8436660D01*
X3550208Y8438286D01*
X3547414Y8441232D01*
X3546195Y8443112D01*
X3542131Y8447227D01*
X3537204Y8450275D01*
X3531412Y8452307D01*
X3527856Y8454440D01*
X3525469Y8457844D01*
X3524605Y8461908D01*
X3524605Y8632291D01*
X3525469Y8636355D01*
X3527856Y8639759D01*
X3531412Y8641892D01*
X3537204Y8643924D01*
X3542131Y8646972D01*
X3546195Y8651087D01*
X3547414Y8652967D01*
X3550208Y8655913D01*
X3553968Y8657539D01*
X3558032Y8657539D01*
X3561791Y8655913D01*
X3564585Y8652967D01*
X3565804Y8651087D01*
X3569868Y8646972D01*
X3574796Y8643924D01*
X3580231Y8641994D01*
X3586581Y8641283D01*
X3599637Y8641283D01*
X3599637Y8683345D01*
X3562096Y8683345D01*
X3558184Y8684107D01*
X3554882Y8686342D01*
X3552698Y8689644D01*
X3551936Y8693505D01*
X3551936Y8730894D01*
X3552698Y8734755D01*
X3554882Y8738057D01*
X3558184Y8740292D01*
X3562096Y8741054D01*
X3599637Y8741054D01*
X3599637Y8783116D01*
X3586581Y8783116D01*
X3580231Y8782405D01*
X3574796Y8780475D01*
X3569868Y8777427D01*
X3565804Y8773312D01*
X3564585Y8771432D01*
X3561791Y8768486D01*
X3558032Y8766860D01*
X3553968Y8766860D01*
X3550208Y8768486D01*
X3547414Y8771432D01*
X3546195Y8773312D01*
X3542131Y8777427D01*
X3537204Y8780475D01*
X3531412Y8782507D01*
X3527856Y8784640D01*
X3525469Y8788044D01*
X3524605Y8792108D01*
X3524605Y8989669D01*
X3525469Y8993733D01*
X3527856Y8997137D01*
X3531412Y8999270D01*
X3537204Y9001302D01*
X3542131Y9004401D01*
X3546195Y9008465D01*
X3547414Y9010345D01*
X3550208Y9013291D01*
X3553968Y9014917D01*
X3558032Y9014917D01*
X3561791Y9013291D01*
X3564585Y9010345D01*
X3565804Y9008465D01*
X3569868Y9004401D01*
X3574796Y9001302D01*
X3580231Y8999372D01*
X3586581Y8998661D01*
X3665423Y8998661D01*
X3671722Y8999372D01*
X3674770Y9000439D01*
X3678783Y9000998D01*
X3682695Y8999931D01*
X3685895Y8997391D01*
X3687826Y8993835D01*
X3688232Y8989771D01*
X3687013Y8985910D01*
X3681984Y8976918D01*
X3678783Y8967825D01*
X3677158Y8958326D01*
X3677158Y8948674D01*
X3678783Y8939174D01*
X3681984Y8930081D01*
X3686657Y8921648D01*
X3692753Y8914130D01*
X3699967Y8907780D01*
X3708196Y8902700D01*
X3717137Y8899144D01*
X3726586Y8897112D01*
X3732072Y8896858D01*
X3735730Y8895994D01*
X3738829Y8893911D01*
X3872585Y8760104D01*
X3874820Y8756802D01*
X3875582Y8752890D01*
X3875582Y8723426D01*
X3874820Y8719566D01*
X3872687Y8716314D01*
X3869436Y8714079D01*
X3865626Y8713266D01*
X3853179Y8715705D01*
X3845255Y8715705D01*
X3837432Y8714232D01*
X3830015Y8711387D01*
X3823258Y8707221D01*
X3817416Y8701836D01*
X3812641Y8695537D01*
X3809085Y8688425D01*
X3806901Y8680754D01*
X3806139Y8672423D01*
X3806139Y8619185D01*
X3805377Y8615273D01*
X3803142Y8612022D01*
X3763010Y8571839D01*
X3759504Y8569553D01*
X3755339Y8568893D01*
X3751275Y8569960D01*
X3742283Y8574481D01*
X3733088Y8577275D01*
X3723538Y8578545D01*
X3713886Y8578088D01*
X3704437Y8576056D01*
X3695496Y8572500D01*
X3687267Y8567420D01*
X3680053Y8561070D01*
X3673957Y8553551D01*
X3669284Y8545118D01*
X3666083Y8536025D01*
X3664458Y8526526D01*
X3664458Y8516874D01*
X3666083Y8507374D01*
X3669284Y8498281D01*
X3673957Y8489848D01*
X3680053Y8482330D01*
X3687267Y8475980D01*
X3695496Y8470900D01*
X3704437Y8467344D01*
X3713886Y8465312D01*
X3719372Y8465058D01*
X3723030Y8464194D01*
X3726129Y8462111D01*
X3742994Y8445195D01*
X3745229Y8441893D01*
X3745992Y8437981D01*
X3745992Y8287918D01*
X3745229Y8284006D01*
X3742994Y8280704D01*
X3682695Y8220405D01*
X3679393Y8218170D01*
X3675481Y8217408D01*
X3569258Y8217408D01*
X3562959Y8216696D01*
X3557473Y8214766D01*
X3552596Y8211718D01*
X3548481Y8207603D01*
X3545433Y8202726D01*
X3543503Y8197240D01*
X3542792Y8190941D01*
X3542792Y8065058D01*
X3543503Y8058759D01*
X3545433Y8053273D01*
X3548481Y8048396D01*
X3552596Y8044281D01*
X3557473Y8041233D01*
X3562959Y8039303D01*
X3569258Y8038592D01*
X3695141Y8038592D01*
X3701440Y8039303D01*
X3706926Y8041233D01*
X3711803Y8044281D01*
X3715918Y8048396D01*
X3718966Y8053273D01*
X3720896Y8058759D01*
X3721608Y8065058D01*
X3721608Y8145881D01*
X3722370Y8149793D01*
X3724605Y8153095D01*
X3754069Y8182559D01*
X3757320Y8184743D01*
X3761232Y8185505D01*
X3765143Y8184743D01*
X3768394Y8182559D01*
X3770629Y8179257D01*
X3771392Y8175345D01*
X3771392Y8065058D01*
X3772103Y8058759D01*
X3774033Y8053273D01*
X3777081Y8048396D01*
X3781196Y8044281D01*
X3786073Y8041233D01*
X3791559Y8039303D01*
X3797858Y8038592D01*
X3923741Y8038592D01*
X3930040Y8039303D01*
X3935526Y8041233D01*
X3940403Y8044281D01*
X3944518Y8048396D01*
X3947566Y8053273D01*
X3949496Y8058759D01*
X3950208Y8065058D01*
X3950208Y8166404D01*
X3950665Y8169351D01*
X3951986Y8173872D01*
X3952798Y8181898D01*
X3952798Y8483498D01*
X3953560Y8487308D01*
X3955694Y8490610D01*
X3958945Y8492794D01*
X3962755Y8493658D01*
X3975252Y8491169D01*
X3983177Y8491169D01*
X3987952Y8492083D01*
X3992372Y8491931D01*
X3996334Y8489899D01*
X3999026Y8486444D01*
X3999992Y8482126D01*
X3999992Y8313674D01*
X3999433Y8310270D01*
X3997756Y8307273D01*
X3991457Y8299551D01*
X3986784Y8291118D01*
X3983583Y8282025D01*
X3981958Y8272525D01*
X3981958Y8262874D01*
X3983583Y8253374D01*
X3986784Y8244281D01*
X3991457Y8235848D01*
X4000449Y8224875D01*
X4001566Y8221370D01*
X4001312Y8217662D01*
X3999737Y8214309D01*
X3992981Y8207603D01*
X3989933Y8202726D01*
X3988003Y8197240D01*
X3987292Y8190941D01*
X3987292Y8065058D01*
X3988003Y8058759D01*
X3989933Y8053273D01*
X3992981Y8048396D01*
X3997096Y8044281D01*
X4001973Y8041233D01*
X4007459Y8039303D01*
X4013758Y8038592D01*
X4139641Y8038592D01*
X4145940Y8039303D01*
X4151426Y8041233D01*
X4156303Y8044281D01*
X4160418Y8048396D01*
X4163466Y8053273D01*
X4165396Y8058759D01*
X4166108Y8065058D01*
X4166108Y8190941D01*
X4165396Y8197240D01*
X4163466Y8202726D01*
X4160418Y8207603D01*
X4156303Y8211718D01*
X4151426Y8214766D01*
X4145940Y8216696D01*
X4139641Y8217408D01*
X4125468Y8217408D01*
X4121556Y8218170D01*
X4118305Y8220405D01*
X4116070Y8223656D01*
X4114495Y8237118D01*
X4112310Y8244331D01*
X4108754Y8251037D01*
X4103624Y8257235D01*
X4098290Y8262569D01*
X4096258Y8265515D01*
X4095343Y8268919D01*
X4094632Y8277301D01*
X4092244Y8286648D01*
X4088231Y8295436D01*
X4082846Y8303412D01*
X4080052Y8306358D01*
X4077919Y8309609D01*
X4077208Y8313420D01*
X4077208Y8485632D01*
X4077970Y8489492D01*
X4080103Y8492794D01*
X4083354Y8494979D01*
X4087164Y8495792D01*
X4091025Y8495131D01*
X4094276Y8493861D01*
X4094276Y8554313D01*
X4090619Y8556447D01*
X4088129Y8559850D01*
X4087266Y8563965D01*
X4087266Y8642908D01*
X4088129Y8647074D01*
X4090619Y8650478D01*
X4094276Y8652611D01*
X4094276Y8713012D01*
X4090060Y8711387D01*
X4082135Y8706358D01*
X4078579Y8704986D01*
X4074820Y8704986D01*
X4071264Y8706358D01*
X4063339Y8711387D01*
X4055973Y8714232D01*
X4048150Y8715705D01*
X4040225Y8715705D01*
X4027728Y8713266D01*
X4023918Y8714079D01*
X4020667Y8716264D01*
X4018534Y8719566D01*
X4017772Y8723376D01*
X4017772Y8759545D01*
X4018534Y8763457D01*
X4020769Y8766759D01*
X4266184Y9012224D01*
X4271314Y9018422D01*
X4274870Y9025128D01*
X4277055Y9032341D01*
X4277868Y9040368D01*
X4277868Y9056624D01*
X4278630Y9060434D01*
X4280763Y9063736D01*
X4284014Y9065920D01*
X4287824Y9066784D01*
X4300220Y9064345D01*
X4308144Y9064345D01*
X4315968Y9065818D01*
X4323384Y9068663D01*
X4330141Y9072829D01*
X4335983Y9078214D01*
X4340758Y9084513D01*
X4344314Y9091625D01*
X4345889Y9097162D01*
X4347921Y9100972D01*
X4351426Y9103614D01*
X4355642Y9104528D01*
X4417568Y9104528D01*
X4421632Y9103664D01*
X4425035Y9101277D01*
X4427169Y9097721D01*
X4429302Y9091574D01*
X4432401Y9086697D01*
X4436465Y9082582D01*
X4441393Y9079534D01*
X4447438Y9077401D01*
X4450994Y9075267D01*
X4453432Y9071864D01*
X4454245Y9067800D01*
X4453432Y9063736D01*
X4450994Y9060332D01*
X4447438Y9058198D01*
X4441393Y9056065D01*
X4436465Y9053017D01*
X4432401Y9048902D01*
X4429302Y9044025D01*
X4427423Y9038539D01*
X4426712Y9032240D01*
X4426712Y8952738D01*
X4427423Y8946388D01*
X4429302Y8940952D01*
X4432401Y8936024D01*
X4436465Y8931960D01*
X4441393Y8928862D01*
X4446828Y8926931D01*
X4453178Y8926220D01*
X4538421Y8926220D01*
X4544771Y8926931D01*
X4550206Y8928862D01*
X4555134Y8931960D01*
X4559198Y8936024D01*
X4562297Y8940952D01*
X4564176Y8946388D01*
X4564634Y8950147D01*
X4565700Y8953703D01*
X4567936Y8956598D01*
X4571085Y8958529D01*
X4574692Y8959189D01*
X4631791Y8959189D01*
X4635855Y8958326D01*
X4639259Y8955938D01*
X4641392Y8952382D01*
X4643424Y8946591D01*
X4646472Y8941714D01*
X4650587Y8937599D01*
X4655464Y8934500D01*
X4660950Y8932621D01*
X4667250Y8931910D01*
X4756150Y8931910D01*
X4762449Y8932621D01*
X4767935Y8934500D01*
X4772812Y8937599D01*
X4776927Y8941714D01*
X4779975Y8946591D01*
X4781905Y8952077D01*
X4784039Y8955633D01*
X4787442Y8958072D01*
X4791506Y8958884D01*
X4858105Y8958732D01*
X4860899Y8958326D01*
X4863490Y8957157D01*
X4868672Y8953906D01*
X4874158Y8951976D01*
X4880457Y8951264D01*
X5067909Y8951366D01*
X5071821Y8950604D01*
X5075123Y8948420D01*
X5077307Y8945118D01*
X5078069Y8941206D01*
X5078069Y8930538D01*
X5078780Y8924239D01*
X5080711Y8918752D01*
X5083810Y8913876D01*
X5087874Y8909761D01*
X5092801Y8906713D01*
X5098237Y8904782D01*
X5104587Y8904071D01*
X5303418Y8904071D01*
X5309768Y8904782D01*
X5315204Y8906713D01*
X5320131Y8909761D01*
X5324195Y8913876D01*
X5327294Y8918752D01*
X5329174Y8924239D01*
X5329885Y8930538D01*
X5329885Y9049410D01*
X5329174Y9055760D01*
X5327294Y9061196D01*
X5324195Y9066123D01*
X5320131Y9070187D01*
X5315204Y9073286D01*
X5309768Y9075166D01*
X5303418Y9075877D01*
X5104587Y9075877D01*
X5098237Y9075166D01*
X5092801Y9073286D01*
X5087874Y9070187D01*
X5083810Y9066123D01*
X5080711Y9061196D01*
X5078780Y9055760D01*
X5078069Y9049410D01*
X5078069Y9038742D01*
X5077307Y9034881D01*
X5075123Y9031579D01*
X5071821Y9029344D01*
X5067909Y9028582D01*
X4985562Y9028582D01*
X4981448Y9029496D01*
X4977993Y9031986D01*
X4975910Y9035694D01*
X4975504Y9039910D01*
X4975809Y9045854D01*
X4935524Y9045854D01*
X4932324Y9043822D01*
X4928565Y9043111D01*
X4901234Y9043111D01*
X4897475Y9043822D01*
X4894275Y9045854D01*
X4853990Y9045854D01*
X4853127Y9042044D01*
X4850892Y9038844D01*
X4847640Y9036710D01*
X4843830Y9035948D01*
X4791710Y9036100D01*
X4787646Y9036964D01*
X4784242Y9039352D01*
X4782108Y9042908D01*
X4779975Y9049004D01*
X4776927Y9053931D01*
X4772812Y9057995D01*
X4770932Y9059214D01*
X4767986Y9062008D01*
X4766360Y9065768D01*
X4766360Y9069832D01*
X4767986Y9073591D01*
X4770932Y9076385D01*
X4772812Y9077604D01*
X4776927Y9081668D01*
X4779975Y9086596D01*
X4781905Y9092031D01*
X4782616Y9098381D01*
X4782616Y9111437D01*
X4740554Y9111437D01*
X4740554Y9073896D01*
X4739792Y9069984D01*
X4737557Y9066682D01*
X4734255Y9064498D01*
X4730394Y9063736D01*
X4693005Y9063736D01*
X4689144Y9064498D01*
X4685842Y9066682D01*
X4683607Y9069984D01*
X4682845Y9073896D01*
X4682845Y9111437D01*
X4640783Y9111437D01*
X4640783Y9098381D01*
X4641494Y9092031D01*
X4643424Y9086596D01*
X4646472Y9081668D01*
X4650587Y9077604D01*
X4652467Y9076385D01*
X4655413Y9073591D01*
X4657039Y9069832D01*
X4657039Y9065768D01*
X4655413Y9062008D01*
X4652467Y9059214D01*
X4650587Y9057995D01*
X4646472Y9053931D01*
X4643424Y9049004D01*
X4641392Y9043212D01*
X4639259Y9039656D01*
X4635855Y9037269D01*
X4631791Y9036405D01*
X4572152Y9036405D01*
X4568088Y9037269D01*
X4564684Y9039656D01*
X4562297Y9044025D01*
X4559198Y9048902D01*
X4555134Y9053017D01*
X4550206Y9056065D01*
X4544161Y9058198D01*
X4540605Y9060332D01*
X4538167Y9063736D01*
X4537354Y9067800D01*
X4538167Y9071864D01*
X4540605Y9075267D01*
X4544161Y9077401D01*
X4550206Y9079534D01*
X4555134Y9082582D01*
X4559198Y9086697D01*
X4562297Y9091574D01*
X4564176Y9097060D01*
X4564888Y9103360D01*
X4564888Y9182862D01*
X4564176Y9189212D01*
X4562297Y9194647D01*
X4559198Y9199575D01*
X4555134Y9203639D01*
X4550206Y9206738D01*
X4544771Y9208668D01*
X4538421Y9209379D01*
X4453178Y9209379D01*
X4446828Y9208668D01*
X4441393Y9206738D01*
X4436465Y9203639D01*
X4432401Y9199575D01*
X4429302Y9194647D01*
X4427169Y9188551D01*
X4425035Y9184995D01*
X4421632Y9182608D01*
X4417568Y9181744D01*
X4357827Y9181744D01*
X4353966Y9182506D01*
X4350258Y9185148D01*
X4348022Y9188450D01*
X4347260Y9192310D01*
X4347260Y9245549D01*
X4346498Y9253931D01*
X4344314Y9261551D01*
X4340758Y9268663D01*
X4335983Y9275013D01*
X4330141Y9280347D01*
X4323384Y9284512D01*
X4315968Y9287408D01*
X4308144Y9288881D01*
X4300220Y9288881D01*
X4292447Y9287408D01*
X4285081Y9284563D01*
X4277156Y9279534D01*
X4273600Y9278112D01*
X4269790Y9278112D01*
X4266285Y9279534D01*
X4258310Y9284563D01*
X4250994Y9287408D01*
X4243171Y9288881D01*
X4235246Y9288881D01*
X4232097Y9288272D01*
X4227830Y9288373D01*
X4223969Y9290253D01*
X4221226Y9293504D01*
X4220108Y9297619D01*
X4220718Y9301835D01*
X4223054Y9305442D01*
X4227525Y9309912D01*
X4230827Y9312148D01*
X4234688Y9312910D01*
X4286250Y9312910D01*
X4292549Y9313621D01*
X4298035Y9315500D01*
X4302912Y9318599D01*
X4307027Y9322714D01*
X4310075Y9327591D01*
X4312005Y9333077D01*
X4312716Y9339376D01*
X4312716Y9418218D01*
X4312005Y9424568D01*
X4310075Y9430004D01*
X4307027Y9434931D01*
X4302912Y9438995D01*
X4301032Y9440214D01*
X4298086Y9443008D01*
X4296460Y9446768D01*
X4296460Y9450832D01*
X4298086Y9454591D01*
X4301032Y9457385D01*
X4302912Y9458604D01*
X4307027Y9462668D01*
X4310075Y9467596D01*
X4312005Y9473031D01*
X4312716Y9479381D01*
X4312716Y9492437D01*
X4270654Y9492437D01*
X4270654Y9454896D01*
X4269892Y9450984D01*
X4267657Y9447682D01*
X4264355Y9445498D01*
X4260494Y9444736D01*
X4223105Y9444736D01*
X4219244Y9445498D01*
X4215942Y9447682D01*
X4213707Y9450984D01*
X4212945Y9454896D01*
X4212945Y9492437D01*
X4170883Y9492437D01*
X4170883Y9479381D01*
X4171594Y9473031D01*
X4173524Y9467596D01*
X4176572Y9462668D01*
X4180687Y9458604D01*
X4182567Y9457385D01*
X4185513Y9454591D01*
X4187139Y9450832D01*
X4187139Y9446768D01*
X4185513Y9443008D01*
X4182567Y9440214D01*
X4180687Y9438995D01*
X4176572Y9434931D01*
X4173524Y9430004D01*
X4171594Y9424568D01*
X4170883Y9418218D01*
X4170883Y9379712D01*
X4169968Y9375546D01*
X4167428Y9372092D01*
X4163669Y9370009D01*
X4159402Y9369653D01*
X4155389Y9371076D01*
X4152290Y9374073D01*
X4146346Y9382963D01*
X4139692Y9389872D01*
X4131919Y9395612D01*
X4123283Y9399981D01*
X4114088Y9402775D01*
X4104538Y9404045D01*
X4094886Y9403588D01*
X4085437Y9401556D01*
X4076496Y9398000D01*
X4068267Y9392920D01*
X4061053Y9386570D01*
X4054957Y9379051D01*
X4050284Y9370618D01*
X4047083Y9361525D01*
X4045458Y9352026D01*
X4045458Y9342374D01*
X4047083Y9332874D01*
X4050284Y9323781D01*
X4054957Y9315348D01*
X4061256Y9307626D01*
X4062933Y9304629D01*
X4063492Y9301226D01*
X4063492Y9298228D01*
X4062984Y9295028D01*
X4061460Y9292132D01*
X4059123Y9289897D01*
X4059123Y9224416D01*
X4061460Y9222181D01*
X4062984Y9219285D01*
X4063492Y9216085D01*
X4063492Y9184182D01*
X4064304Y9176156D01*
X4065727Y9171482D01*
X4066133Y9168536D01*
X4066133Y9137142D01*
X4065270Y9132976D01*
X4062780Y9129572D01*
X4059123Y9127439D01*
X4059123Y9067038D01*
X4063339Y9068663D01*
X4071264Y9073692D01*
X4074820Y9075064D01*
X4078579Y9075064D01*
X4082135Y9073692D01*
X4090060Y9068663D01*
X4097426Y9065818D01*
X4105249Y9064345D01*
X4113174Y9064345D01*
X4120946Y9065818D01*
X4128312Y9068663D01*
X4136237Y9073692D01*
X4139793Y9075064D01*
X4143603Y9075064D01*
X4147159Y9073692D01*
X4155084Y9068663D01*
X4162450Y9065818D01*
X4170222Y9064345D01*
X4178147Y9064345D01*
X4184040Y9065463D01*
X4188307Y9065310D01*
X4192117Y9063482D01*
X4194860Y9060180D01*
X4196029Y9056065D01*
X4195368Y9051848D01*
X4193082Y9048242D01*
X3952240Y8807399D01*
X3948074Y8803690D01*
X3943959Y8802624D01*
X3939844Y8803284D01*
X3936288Y8805621D01*
X3793490Y8948369D01*
X3791458Y8951315D01*
X3790543Y8954719D01*
X3789832Y8963101D01*
X3787444Y8972448D01*
X3783431Y8981236D01*
X3778046Y8989212D01*
X3771392Y8996172D01*
X3763619Y9001912D01*
X3754983Y9006281D01*
X3745788Y9009075D01*
X3736238Y9010345D01*
X3726586Y9009888D01*
X3717137Y9007856D01*
X3708196Y9004300D01*
X3704386Y9001963D01*
X3700526Y9000540D01*
X3696360Y9000794D01*
X3692702Y9002674D01*
X3690061Y9005874D01*
X3688943Y9009837D01*
X3689451Y9013952D01*
X3691178Y9018828D01*
X3691890Y9025178D01*
X3691890Y9110421D01*
X3691178Y9116720D01*
X3689299Y9122206D01*
X3686200Y9127083D01*
X3682085Y9131198D01*
X3677208Y9134297D01*
X3671417Y9136278D01*
X3667861Y9138462D01*
X3665423Y9141815D01*
X3664610Y9145879D01*
X3664610Y9318091D01*
X3665474Y9322155D01*
X3667861Y9325559D01*
X3671417Y9327692D01*
X3677208Y9329724D01*
X3682085Y9332772D01*
X3686200Y9336887D01*
X3689299Y9341764D01*
X3691178Y9347250D01*
X3691890Y9353550D01*
X3691890Y9405112D01*
X3692651Y9408972D01*
X3694887Y9412274D01*
X3969207Y9686594D01*
X3972509Y9688830D01*
X3976420Y9689592D01*
X4678781Y9689592D01*
X4682693Y9688830D01*
X4685995Y9686594D01*
X4830826Y9541764D01*
X4837074Y9536633D01*
X4843729Y9533077D01*
X4850993Y9530892D01*
X4859020Y9530080D01*
X4959908Y9530080D01*
X4962702Y9529673D01*
X4965293Y9528556D01*
X4970272Y9525406D01*
X4975758Y9523476D01*
X4982057Y9522764D01*
X5003596Y9522764D01*
X5007508Y9522002D01*
X5010810Y9519818D01*
X5162397Y9368180D01*
X5164632Y9364878D01*
X5165394Y9361017D01*
X5165394Y9336074D01*
X5164632Y9332163D01*
X5162397Y9328861D01*
X5159095Y9326676D01*
X5155234Y9325914D01*
X5104587Y9325914D01*
X5098237Y9325203D01*
X5092801Y9323273D01*
X5087874Y9320225D01*
X5083810Y9316110D01*
X5080711Y9311233D01*
X5078780Y9305747D01*
X5078069Y9299448D01*
X5078069Y9180576D01*
X5078780Y9174226D01*
X5080711Y9168790D01*
X5083810Y9163862D01*
X5087874Y9159798D01*
X5092801Y9156700D01*
X5098237Y9154820D01*
X5104587Y9154109D01*
X5303418Y9154109D01*
X5309768Y9154820D01*
X5315204Y9156700D01*
X5320131Y9159798D01*
X5324195Y9163862D01*
X5327294Y9168790D01*
X5329174Y9174226D01*
X5329885Y9180576D01*
X5329885Y9299448D01*
X5329174Y9305747D01*
X5327294Y9311233D01*
X5324195Y9316110D01*
X5320131Y9320225D01*
X5315204Y9323273D01*
X5309768Y9325203D01*
X5303418Y9325914D01*
X5252770Y9325914D01*
X5248859Y9326676D01*
X5245608Y9328861D01*
X5243372Y9332163D01*
X5242610Y9336074D01*
X5242610Y9380677D01*
X5241798Y9388703D01*
X5239613Y9395968D01*
X5236057Y9402622D01*
X5230926Y9408871D01*
X5080406Y9559391D01*
X5078171Y9562693D01*
X5077409Y9566605D01*
X5077409Y9588093D01*
X5076698Y9594443D01*
X5075529Y9597847D01*
X5074920Y9601200D01*
X5075529Y9604552D01*
X5076698Y9607956D01*
X5077409Y9614255D01*
X5077409Y9617354D01*
X5037124Y9617354D01*
X5033924Y9615322D01*
X5030165Y9614611D01*
X5002834Y9614611D01*
X4999075Y9615322D01*
X4995875Y9617354D01*
X4955590Y9617354D01*
X4954778Y9613493D01*
X4952593Y9610242D01*
X4949291Y9608058D01*
X4945430Y9607296D01*
X4878679Y9607296D01*
X4874818Y9608058D01*
X4871516Y9610293D01*
X4733340Y9748469D01*
X4731156Y9751720D01*
X4730394Y9755632D01*
X4731156Y9759543D01*
X4733340Y9762794D01*
X4736642Y9765030D01*
X4740554Y9765792D01*
X5804458Y9765792D01*
X5808319Y9765030D01*
X5811621Y9762794D01*
X5813806Y9759543D01*
X5814618Y9755632D01*
X5816041Y8024368D01*
X5815279Y8020507D01*
X5813094Y8017205D01*
X5809792Y8014970D01*
X5805881Y8014208D01*
G37*

%LPC*%
G36*
X4242358Y8038592D02*
G01*
X4368241Y8038592D01*
X4374540Y8039303D01*
X4380026Y8041233D01*
X4384903Y8044281D01*
X4389018Y8048396D01*
X4392066Y8053273D01*
X4393996Y8058759D01*
X4394708Y8065058D01*
X4394708Y8190941D01*
X4393996Y8197240D01*
X4392066Y8202726D01*
X4389018Y8207603D01*
X4384903Y8211718D01*
X4380026Y8214766D01*
X4374540Y8216696D01*
X4368241Y8217408D01*
X4354068Y8217408D01*
X4350156Y8218170D01*
X4346905Y8220405D01*
X4344670Y8223656D01*
X4343908Y8227568D01*
X4343908Y8241792D01*
X4343095Y8249818D01*
X4340910Y8257031D01*
X4337354Y8263737D01*
X4332224Y8269935D01*
X4237990Y8364169D01*
X4235958Y8367115D01*
X4235043Y8370519D01*
X4234332Y8378901D01*
X4231944Y8388248D01*
X4227931Y8397036D01*
X4222546Y8405012D01*
X4219752Y8407958D01*
X4217619Y8411210D01*
X4216908Y8415020D01*
X4216908Y8482380D01*
X4217873Y8486698D01*
X4220565Y8490204D01*
X4224528Y8492236D01*
X4228947Y8492388D01*
X4235246Y8491169D01*
X4243171Y8491169D01*
X4250994Y8492642D01*
X4258310Y8495487D01*
X4266285Y8500516D01*
X4269790Y8501938D01*
X4273600Y8501938D01*
X4277156Y8500516D01*
X4285081Y8495487D01*
X4292447Y8492642D01*
X4300220Y8491169D01*
X4308144Y8491169D01*
X4315968Y8492642D01*
X4323384Y8495538D01*
X4330141Y8499703D01*
X4335983Y8505037D01*
X4340758Y8511387D01*
X4344314Y8518499D01*
X4346498Y8526119D01*
X4347260Y8534501D01*
X4347260Y8587638D01*
X4348022Y8591550D01*
X4350664Y8595258D01*
X4353966Y8597493D01*
X4357878Y8598255D01*
X4417568Y8598255D01*
X4421632Y8597392D01*
X4425035Y8595004D01*
X4427169Y8591448D01*
X4429302Y8585352D01*
X4432401Y8580424D01*
X4436465Y8576360D01*
X4441393Y8573262D01*
X4446828Y8571331D01*
X4453178Y8570620D01*
X4538421Y8570620D01*
X4544771Y8571331D01*
X4550206Y8573262D01*
X4555134Y8576360D01*
X4559198Y8580424D01*
X4562297Y8585352D01*
X4564176Y8590788D01*
X4564888Y8597138D01*
X4564888Y8676640D01*
X4564176Y8682939D01*
X4562297Y8688425D01*
X4559198Y8693302D01*
X4555134Y8697417D01*
X4550206Y8700465D01*
X4544161Y8702598D01*
X4540605Y8704732D01*
X4538167Y8708136D01*
X4537354Y8712200D01*
X4538167Y8716264D01*
X4540605Y8719667D01*
X4544161Y8721801D01*
X4550206Y8723934D01*
X4555134Y8726982D01*
X4559198Y8731097D01*
X4564684Y8740343D01*
X4568088Y8742730D01*
X4572152Y8743594D01*
X4631791Y8743594D01*
X4635855Y8742730D01*
X4639259Y8740343D01*
X4641392Y8736787D01*
X4643424Y8730996D01*
X4646472Y8726068D01*
X4650587Y8722004D01*
X4652467Y8720785D01*
X4655413Y8717991D01*
X4657039Y8714232D01*
X4657039Y8710168D01*
X4655413Y8706408D01*
X4652467Y8703614D01*
X4650587Y8702395D01*
X4646472Y8698331D01*
X4643424Y8693404D01*
X4641494Y8687968D01*
X4640783Y8681618D01*
X4640783Y8668562D01*
X4682845Y8668562D01*
X4682845Y8706104D01*
X4683607Y8710015D01*
X4685842Y8713317D01*
X4689144Y8715502D01*
X4693005Y8716264D01*
X4730394Y8716264D01*
X4734255Y8715502D01*
X4737557Y8713317D01*
X4739792Y8710015D01*
X4740554Y8706104D01*
X4740554Y8668562D01*
X4782616Y8668562D01*
X4782616Y8681618D01*
X4781905Y8687968D01*
X4779975Y8693404D01*
X4776927Y8698331D01*
X4772812Y8702395D01*
X4770932Y8703614D01*
X4767986Y8706408D01*
X4766360Y8710168D01*
X4766360Y8714232D01*
X4767986Y8717991D01*
X4770932Y8720785D01*
X4772812Y8722004D01*
X4776927Y8726068D01*
X4779975Y8730996D01*
X4782108Y8737092D01*
X4784242Y8740648D01*
X4787646Y8743035D01*
X4791710Y8743899D01*
X4843830Y8744000D01*
X4847640Y8743289D01*
X4850892Y8741156D01*
X4853127Y8737955D01*
X4853990Y8734145D01*
X4894275Y8734145D01*
X4897475Y8736177D01*
X4901234Y8736888D01*
X4928565Y8736888D01*
X4932324Y8736177D01*
X4935524Y8734145D01*
X4975809Y8734145D01*
X4975504Y8740089D01*
X4975910Y8744305D01*
X4977993Y8748014D01*
X4981448Y8750503D01*
X4985562Y8751366D01*
X5067909Y8751366D01*
X5071821Y8750604D01*
X5075123Y8748420D01*
X5077307Y8745118D01*
X5078069Y8741206D01*
X5078069Y8730538D01*
X5078780Y8724239D01*
X5080711Y8718753D01*
X5083810Y8713876D01*
X5087874Y8709761D01*
X5092801Y8706713D01*
X5098237Y8704783D01*
X5104587Y8704072D01*
X5303418Y8704072D01*
X5309768Y8704783D01*
X5315204Y8706713D01*
X5320131Y8709761D01*
X5324195Y8713876D01*
X5327294Y8718753D01*
X5329174Y8724239D01*
X5329885Y8730538D01*
X5329885Y8849410D01*
X5329174Y8855760D01*
X5327294Y8861196D01*
X5324195Y8866124D01*
X5320131Y8870188D01*
X5315204Y8873286D01*
X5309768Y8875166D01*
X5303418Y8875877D01*
X5104587Y8875877D01*
X5098237Y8875166D01*
X5092801Y8873286D01*
X5087874Y8870188D01*
X5083810Y8866124D01*
X5080711Y8861196D01*
X5078780Y8855760D01*
X5078069Y8849410D01*
X5078069Y8838742D01*
X5077307Y8834882D01*
X5075123Y8831580D01*
X5071821Y8829344D01*
X5067909Y8828582D01*
X4951018Y8828582D01*
X4949342Y8828735D01*
X4880457Y8828735D01*
X4874158Y8828024D01*
X4868672Y8826093D01*
X4863490Y8822842D01*
X4860899Y8821674D01*
X4858105Y8821267D01*
X4791506Y8821115D01*
X4787442Y8821928D01*
X4784039Y8824366D01*
X4781905Y8827922D01*
X4779975Y8833408D01*
X4776927Y8838285D01*
X4772812Y8842400D01*
X4767935Y8845499D01*
X4762449Y8847378D01*
X4756150Y8848090D01*
X4667250Y8848090D01*
X4660950Y8847378D01*
X4655464Y8845499D01*
X4650587Y8842400D01*
X4646472Y8838285D01*
X4643424Y8833408D01*
X4641392Y8827617D01*
X4639259Y8824061D01*
X4635855Y8821674D01*
X4631791Y8820810D01*
X4574692Y8820810D01*
X4571085Y8821470D01*
X4567936Y8823401D01*
X4565700Y8826296D01*
X4564634Y8829852D01*
X4564176Y8833612D01*
X4562297Y8839047D01*
X4559198Y8843975D01*
X4555134Y8848039D01*
X4550206Y8851138D01*
X4544771Y8853068D01*
X4538421Y8853779D01*
X4453178Y8853779D01*
X4446828Y8853068D01*
X4441393Y8851138D01*
X4436465Y8848039D01*
X4432401Y8843975D01*
X4429302Y8839047D01*
X4427423Y8833612D01*
X4426712Y8827262D01*
X4426712Y8747760D01*
X4427423Y8741460D01*
X4429302Y8735974D01*
X4432401Y8731097D01*
X4436465Y8726982D01*
X4441393Y8723934D01*
X4447438Y8721801D01*
X4450994Y8719667D01*
X4453432Y8716264D01*
X4454245Y8712200D01*
X4453432Y8708136D01*
X4450994Y8704732D01*
X4447438Y8702598D01*
X4441393Y8700465D01*
X4436465Y8697417D01*
X4432401Y8693302D01*
X4429302Y8688425D01*
X4427169Y8682278D01*
X4425035Y8678722D01*
X4421632Y8676335D01*
X4417568Y8675471D01*
X4355642Y8675471D01*
X4351426Y8676386D01*
X4347972Y8679027D01*
X4345889Y8682837D01*
X4344314Y8688425D01*
X4340758Y8695537D01*
X4335983Y8701836D01*
X4330141Y8707221D01*
X4323384Y8711387D01*
X4315968Y8714232D01*
X4308144Y8715705D01*
X4300220Y8715705D01*
X4292447Y8714232D01*
X4285081Y8711387D01*
X4277156Y8706358D01*
X4273600Y8704986D01*
X4269790Y8704986D01*
X4266285Y8706358D01*
X4258310Y8711387D01*
X4250994Y8714232D01*
X4243171Y8715705D01*
X4235246Y8715705D01*
X4227423Y8714232D01*
X4220057Y8711387D01*
X4212132Y8706358D01*
X4208576Y8704986D01*
X4204817Y8704986D01*
X4201261Y8706358D01*
X4193336Y8711387D01*
X4185970Y8714232D01*
X4178147Y8715705D01*
X4170222Y8715705D01*
X4162450Y8714232D01*
X4155084Y8711387D01*
X4147159Y8706358D01*
X4143603Y8704986D01*
X4139793Y8704986D01*
X4136237Y8706358D01*
X4128312Y8711387D01*
X4124147Y8713012D01*
X4124147Y8652611D01*
X4127804Y8650478D01*
X4130243Y8647074D01*
X4131157Y8642908D01*
X4131157Y8563965D01*
X4130243Y8559850D01*
X4127804Y8556447D01*
X4124147Y8554313D01*
X4124147Y8493861D01*
X4125874Y8494572D01*
X4129735Y8495233D01*
X4133545Y8494420D01*
X4136796Y8492185D01*
X4138929Y8488934D01*
X4139692Y8485073D01*
X4139692Y8415274D01*
X4139133Y8411870D01*
X4137456Y8408873D01*
X4131157Y8401151D01*
X4126484Y8392718D01*
X4123283Y8383625D01*
X4121658Y8374125D01*
X4121658Y8364474D01*
X4123283Y8354974D01*
X4126484Y8345881D01*
X4131157Y8337448D01*
X4137253Y8329930D01*
X4144467Y8323580D01*
X4152696Y8318500D01*
X4161637Y8314944D01*
X4171086Y8312912D01*
X4176572Y8312658D01*
X4180230Y8311794D01*
X4183329Y8309711D01*
X4258259Y8234730D01*
X4260443Y8231479D01*
X4261205Y8227568D01*
X4260443Y8223656D01*
X4258259Y8220405D01*
X4254957Y8218170D01*
X4251045Y8217408D01*
X4242358Y8217408D01*
X4236059Y8216696D01*
X4230573Y8214766D01*
X4225696Y8211718D01*
X4221581Y8207603D01*
X4218533Y8202726D01*
X4216603Y8197240D01*
X4215892Y8190941D01*
X4215892Y8065058D01*
X4216603Y8058759D01*
X4218533Y8053273D01*
X4221581Y8048396D01*
X4225696Y8044281D01*
X4230573Y8041233D01*
X4236059Y8039303D01*
G37*
G36*
X889000Y8139125D02*
G01*
X903528Y8140039D01*
X917803Y8142731D01*
X931671Y8147253D01*
X944829Y8153450D01*
X957122Y8161223D01*
X968349Y8170519D01*
X978306Y8181136D01*
X986840Y8192922D01*
X993851Y8205673D01*
X999236Y8219186D01*
X1002842Y8233308D01*
X1004671Y8247735D01*
X1004671Y8262264D01*
X1002842Y8276691D01*
X999236Y8290814D01*
X993851Y8304326D01*
X986840Y8317077D01*
X978306Y8328863D01*
X968349Y8339480D01*
X957122Y8348776D01*
X944829Y8356549D01*
X931671Y8362746D01*
X917803Y8367268D01*
X903528Y8369960D01*
X889000Y8370874D01*
X874471Y8369960D01*
X860196Y8367268D01*
X846328Y8362746D01*
X833170Y8356549D01*
X820877Y8348776D01*
X809650Y8339480D01*
X799693Y8328863D01*
X791159Y8317077D01*
X784148Y8304326D01*
X778764Y8290814D01*
X775157Y8276691D01*
X773328Y8262264D01*
X773328Y8247735D01*
X775157Y8233308D01*
X778764Y8219186D01*
X784148Y8205673D01*
X791159Y8192922D01*
X799693Y8181136D01*
X809650Y8170519D01*
X820877Y8161223D01*
X833170Y8153450D01*
X846328Y8147253D01*
X860196Y8142731D01*
X874471Y8140039D01*
G37*
G36*
X5369356Y8214106D02*
G01*
X5377637Y8214106D01*
X5377637Y8266125D01*
X5287010Y8266125D01*
X5288280Y8263178D01*
X5294731Y8252612D01*
X5302554Y8242960D01*
X5311648Y8234476D01*
X5321757Y8227364D01*
X5332780Y8221624D01*
X5344464Y8217509D01*
X5356606Y8214969D01*
G37*
G36*
X5550357Y8214106D02*
G01*
X5558637Y8214106D01*
X5571388Y8214969D01*
X5583529Y8217509D01*
X5595213Y8221624D01*
X5606237Y8227364D01*
X5616346Y8234476D01*
X5625439Y8242960D01*
X5633262Y8252612D01*
X5639714Y8263178D01*
X5640984Y8266125D01*
X5550357Y8266125D01*
G37*
G36*
X1648561Y8282940D02*
G01*
X1717446Y8282940D01*
X1723745Y8283651D01*
X1729232Y8285530D01*
X1734108Y8288629D01*
X1738223Y8292693D01*
X1741271Y8297621D01*
X1743202Y8303056D01*
X1743913Y8309406D01*
X1743913Y8433257D01*
X1743202Y8439607D01*
X1741271Y8445042D01*
X1738223Y8449970D01*
X1734108Y8454034D01*
X1729232Y8457133D01*
X1723745Y8459012D01*
X1717446Y8459724D01*
X1648561Y8459724D01*
X1642262Y8459012D01*
X1636776Y8457133D01*
X1631899Y8454034D01*
X1627784Y8449970D01*
X1622552Y8441639D01*
X1619250Y8439353D01*
X1615338Y8438489D01*
X1611376Y8439251D01*
X1608023Y8441486D01*
X1565605Y8483904D01*
X1563370Y8487206D01*
X1562608Y8491118D01*
X1562608Y8738920D01*
X1563268Y8742527D01*
X1565198Y8745677D01*
X1568094Y8747963D01*
X1572971Y8749131D01*
X1578406Y8751062D01*
X1583334Y8754160D01*
X1587398Y8758224D01*
X1590497Y8763152D01*
X1592376Y8768588D01*
X1593088Y8774938D01*
X1593088Y8854440D01*
X1592376Y8860739D01*
X1590497Y8866225D01*
X1587398Y8871102D01*
X1583334Y8875217D01*
X1578406Y8878265D01*
X1572361Y8880398D01*
X1568805Y8882532D01*
X1566367Y8885936D01*
X1565554Y8890000D01*
X1566367Y8894064D01*
X1568805Y8897467D01*
X1572361Y8899601D01*
X1578406Y8901734D01*
X1583334Y8904782D01*
X1587398Y8908897D01*
X1590497Y8913774D01*
X1592376Y8919260D01*
X1593088Y8925560D01*
X1593088Y8975648D01*
X1593900Y8979509D01*
X1596085Y8982811D01*
X1702714Y9089440D01*
X1706118Y9091726D01*
X1710131Y9092438D01*
X1714093Y9091523D01*
X1717395Y9089136D01*
X1722780Y9080093D01*
X1725930Y9075877D01*
X1726692Y9072016D01*
X1726692Y8999474D01*
X1726133Y8996070D01*
X1724456Y8993073D01*
X1718157Y8985351D01*
X1713484Y8976918D01*
X1710283Y8967825D01*
X1708657Y8958326D01*
X1708657Y8948674D01*
X1710283Y8939174D01*
X1713484Y8930081D01*
X1718157Y8921648D01*
X1724253Y8914130D01*
X1731467Y8907780D01*
X1739696Y8902700D01*
X1748637Y8899144D01*
X1758086Y8897112D01*
X1767738Y8896654D01*
X1777288Y8897924D01*
X1786483Y8900718D01*
X1795119Y8905087D01*
X1802892Y8910828D01*
X1809546Y8917787D01*
X1814931Y8925763D01*
X1818944Y8934551D01*
X1821332Y8943898D01*
X1822196Y8953500D01*
X1821332Y8963101D01*
X1818944Y8972448D01*
X1814931Y8981236D01*
X1809546Y8989212D01*
X1806752Y8992158D01*
X1804619Y8995410D01*
X1803907Y8999220D01*
X1803907Y9060281D01*
X1804568Y9063888D01*
X1806498Y9067038D01*
X1809394Y9069324D01*
X1812950Y9070390D01*
X1818741Y9071051D01*
X1824228Y9072930D01*
X1829104Y9076029D01*
X1833219Y9080093D01*
X1836267Y9085021D01*
X1838198Y9090456D01*
X1838909Y9096806D01*
X1838909Y9220657D01*
X1838198Y9227007D01*
X1836267Y9232442D01*
X1833219Y9237370D01*
X1829104Y9241434D01*
X1824228Y9244533D01*
X1818741Y9246412D01*
X1812442Y9247124D01*
X1743557Y9247124D01*
X1737258Y9246412D01*
X1731772Y9244533D01*
X1726895Y9241434D01*
X1722780Y9237370D01*
X1719732Y9232442D01*
X1717802Y9227007D01*
X1717090Y9220657D01*
X1717090Y9206280D01*
X1716176Y9202064D01*
X1713636Y9198660D01*
X1709877Y9196527D01*
X1702663Y9194342D01*
X1695957Y9190786D01*
X1689760Y9185656D01*
X1538579Y9034526D01*
X1535277Y9032341D01*
X1531416Y9031579D01*
X1481378Y9031579D01*
X1475028Y9030868D01*
X1469593Y9028938D01*
X1464665Y9025839D01*
X1460601Y9021775D01*
X1457502Y9016847D01*
X1455623Y9011412D01*
X1454912Y9005062D01*
X1454912Y8925560D01*
X1455623Y8919260D01*
X1457502Y8913774D01*
X1460601Y8908897D01*
X1464665Y8904782D01*
X1469593Y8901734D01*
X1475638Y8899601D01*
X1479194Y8897467D01*
X1481632Y8894064D01*
X1482445Y8890000D01*
X1481632Y8885936D01*
X1479194Y8882532D01*
X1475638Y8880398D01*
X1469593Y8878265D01*
X1464665Y8875217D01*
X1460601Y8871102D01*
X1457502Y8866225D01*
X1455623Y8860739D01*
X1454912Y8854440D01*
X1454912Y8774938D01*
X1455623Y8768588D01*
X1457502Y8763152D01*
X1460601Y8758224D01*
X1464665Y8754160D01*
X1469593Y8751062D01*
X1475028Y8749131D01*
X1479905Y8747963D01*
X1482801Y8745677D01*
X1484731Y8742527D01*
X1485392Y8738920D01*
X1485392Y8471408D01*
X1486204Y8463381D01*
X1488389Y8456168D01*
X1491945Y8449462D01*
X1497076Y8443264D01*
X1595932Y8344408D01*
X1602130Y8339277D01*
X1608836Y8335721D01*
X1614881Y8333841D01*
X1618640Y8331758D01*
X1621180Y8328355D01*
X1622094Y8324138D01*
X1622094Y8309406D01*
X1622806Y8303056D01*
X1624736Y8297621D01*
X1627784Y8292693D01*
X1631899Y8288629D01*
X1636776Y8285530D01*
X1642262Y8283651D01*
G37*
G36*
X1838553Y8282940D02*
G01*
X1907438Y8282940D01*
X1913737Y8283651D01*
X1919224Y8285530D01*
X1924100Y8288629D01*
X1928215Y8292693D01*
X1931263Y8297621D01*
X1933193Y8303056D01*
X1933905Y8309406D01*
X1933905Y8321852D01*
X1934667Y8325764D01*
X1936902Y8329066D01*
X1940255Y8331250D01*
X1944166Y8332012D01*
X2023922Y8331149D01*
X2027478Y8330488D01*
X2030526Y8328609D01*
X2036267Y8323580D01*
X2044496Y8318500D01*
X2053437Y8314944D01*
X2062886Y8312912D01*
X2072538Y8312454D01*
X2082088Y8313724D01*
X2091283Y8316518D01*
X2099919Y8320887D01*
X2107692Y8326628D01*
X2114346Y8333587D01*
X2119731Y8341563D01*
X2123744Y8350351D01*
X2126132Y8359698D01*
X2126996Y8369300D01*
X2126132Y8378901D01*
X2123744Y8388248D01*
X2119731Y8397036D01*
X2114346Y8405012D01*
X2107692Y8411972D01*
X2099919Y8417712D01*
X2091283Y8422081D01*
X2082088Y8424875D01*
X2072538Y8426145D01*
X2062886Y8425688D01*
X2053031Y8423605D01*
X2048713Y8423605D01*
X2044801Y8425383D01*
X2041956Y8428685D01*
X2040737Y8432800D01*
X2041347Y8437067D01*
X2043684Y8440724D01*
X2058924Y8455964D01*
X2064054Y8462162D01*
X2067610Y8468868D01*
X2069795Y8476081D01*
X2070607Y8484108D01*
X2070607Y8738920D01*
X2071268Y8742527D01*
X2073198Y8745677D01*
X2076094Y8747963D01*
X2080971Y8749131D01*
X2086406Y8751062D01*
X2091334Y8754160D01*
X2095398Y8758224D01*
X2098497Y8763152D01*
X2100376Y8768588D01*
X2101088Y8774938D01*
X2101088Y8854440D01*
X2100376Y8860739D01*
X2098497Y8866225D01*
X2095398Y8871102D01*
X2091334Y8875217D01*
X2086406Y8878265D01*
X2080361Y8880398D01*
X2076805Y8882532D01*
X2074367Y8885936D01*
X2073554Y8890000D01*
X2074367Y8894064D01*
X2076805Y8897467D01*
X2080361Y8899601D01*
X2086406Y8901734D01*
X2091334Y8904782D01*
X2095398Y8908897D01*
X2098497Y8913774D01*
X2100376Y8919260D01*
X2101088Y8925560D01*
X2101088Y9005062D01*
X2100376Y9011412D01*
X2098497Y9016847D01*
X2095398Y9021775D01*
X2091334Y9025839D01*
X2086406Y9028938D01*
X2080971Y9030868D01*
X2076094Y9032036D01*
X2073198Y9034322D01*
X2071268Y9037472D01*
X2070607Y9041079D01*
X2070607Y9308592D01*
X2069795Y9316618D01*
X2067610Y9323832D01*
X2064054Y9330537D01*
X2058924Y9336735D01*
X1960067Y9435592D01*
X1953869Y9440722D01*
X1947164Y9444278D01*
X1941118Y9446158D01*
X1937359Y9448241D01*
X1934819Y9451644D01*
X1933905Y9455861D01*
X1933905Y9470593D01*
X1933193Y9476943D01*
X1931263Y9482378D01*
X1928215Y9487306D01*
X1924100Y9491370D01*
X1919224Y9494469D01*
X1913737Y9496348D01*
X1907438Y9497060D01*
X1838553Y9497060D01*
X1832254Y9496348D01*
X1826768Y9494469D01*
X1821891Y9491370D01*
X1817776Y9487306D01*
X1814728Y9482378D01*
X1812798Y9476943D01*
X1812086Y9470593D01*
X1812086Y9346742D01*
X1812798Y9340392D01*
X1814728Y9334957D01*
X1817776Y9330029D01*
X1821891Y9325965D01*
X1826768Y9322866D01*
X1832254Y9320987D01*
X1838553Y9320276D01*
X1907438Y9320276D01*
X1913737Y9320987D01*
X1919224Y9322866D01*
X1924100Y9325965D01*
X1928215Y9330029D01*
X1933448Y9338360D01*
X1936750Y9340646D01*
X1940661Y9341510D01*
X1944624Y9340748D01*
X1947976Y9338513D01*
X1990394Y9296095D01*
X1992630Y9292793D01*
X1993392Y9288881D01*
X1993392Y9041079D01*
X1992731Y9037472D01*
X1990801Y9034322D01*
X1987905Y9032036D01*
X1983028Y9030868D01*
X1977593Y9028938D01*
X1972665Y9025839D01*
X1968601Y9021775D01*
X1965502Y9016847D01*
X1963623Y9011412D01*
X1962912Y9005062D01*
X1962912Y8925560D01*
X1963623Y8919260D01*
X1965502Y8913774D01*
X1968601Y8908897D01*
X1972665Y8904782D01*
X1977593Y8901734D01*
X1983638Y8899601D01*
X1987194Y8897467D01*
X1989632Y8894064D01*
X1990445Y8890000D01*
X1989632Y8885936D01*
X1987194Y8882532D01*
X1983638Y8880398D01*
X1977593Y8878265D01*
X1972665Y8875217D01*
X1968601Y8871102D01*
X1965502Y8866225D01*
X1963623Y8860739D01*
X1962912Y8854440D01*
X1962912Y8774938D01*
X1963623Y8768588D01*
X1965502Y8763152D01*
X1968601Y8758224D01*
X1972665Y8754160D01*
X1977593Y8751062D01*
X1983028Y8749131D01*
X1987905Y8747963D01*
X1990801Y8745677D01*
X1992731Y8742527D01*
X1993392Y8738920D01*
X1993392Y8503818D01*
X1992630Y8499906D01*
X1990394Y8496604D01*
X1943150Y8449360D01*
X1939848Y8447176D01*
X1935988Y8446363D01*
X1932076Y8447176D01*
X1928774Y8449360D01*
X1924100Y8454034D01*
X1919224Y8457133D01*
X1913737Y8459012D01*
X1907438Y8459724D01*
X1838553Y8459724D01*
X1832254Y8459012D01*
X1826768Y8457133D01*
X1821891Y8454034D01*
X1817776Y8449970D01*
X1814728Y8445042D01*
X1812798Y8439607D01*
X1812086Y8433257D01*
X1812086Y8309406D01*
X1812798Y8303056D01*
X1814728Y8297621D01*
X1817776Y8292693D01*
X1821891Y8288629D01*
X1826768Y8285530D01*
X1832254Y8283651D01*
G37*
G36*
X3652316Y8311083D02*
G01*
X3665423Y8311083D01*
X3671722Y8311794D01*
X3677208Y8313724D01*
X3682085Y8316772D01*
X3686200Y8320887D01*
X3689299Y8325764D01*
X3691178Y8331250D01*
X3691890Y8337550D01*
X3691890Y8353145D01*
X3652316Y8353145D01*
G37*
G36*
X2234438Y8325612D02*
G01*
X2247646Y8325612D01*
X2247646Y8366759D01*
X2207920Y8366759D01*
X2207920Y8352078D01*
X2208631Y8345728D01*
X2210562Y8340293D01*
X2213660Y8335365D01*
X2217724Y8331301D01*
X2222652Y8328202D01*
X2228088Y8326323D01*
G37*
G36*
X2300681Y8325612D02*
G01*
X2313940Y8325612D01*
X2320239Y8326323D01*
X2325725Y8328202D01*
X2330602Y8331301D01*
X2334717Y8335365D01*
X2337765Y8340293D01*
X2339898Y8346338D01*
X2342032Y8349894D01*
X2345436Y8352332D01*
X2349500Y8353145D01*
X2353564Y8352332D01*
X2356967Y8349894D01*
X2359101Y8346338D01*
X2361234Y8340293D01*
X2364282Y8335365D01*
X2368397Y8331301D01*
X2373274Y8328202D01*
X2378760Y8326323D01*
X2385060Y8325612D01*
X2464562Y8325612D01*
X2470912Y8326323D01*
X2476347Y8328202D01*
X2481275Y8331301D01*
X2485339Y8335365D01*
X2488438Y8340293D01*
X2490368Y8345728D01*
X2491536Y8350605D01*
X2493822Y8353501D01*
X2496972Y8355431D01*
X2500579Y8356092D01*
X2588361Y8356092D01*
X2592425Y8355228D01*
X2595778Y8352840D01*
X2597962Y8349284D01*
X2599944Y8343493D01*
X2603042Y8338566D01*
X2607157Y8334502D01*
X2612034Y8331403D01*
X2617520Y8329523D01*
X2623820Y8328761D01*
X2702661Y8328761D01*
X2709011Y8329523D01*
X2714447Y8331403D01*
X2719374Y8334502D01*
X2723438Y8338566D01*
X2726537Y8343493D01*
X2728468Y8348929D01*
X2729179Y8355279D01*
X2729179Y8434120D01*
X2728468Y8440470D01*
X2726537Y8445906D01*
X2723438Y8450783D01*
X2719374Y8454898D01*
X2714447Y8457996D01*
X2709011Y8459876D01*
X2702661Y8460587D01*
X2623820Y8460587D01*
X2617520Y8459876D01*
X2612034Y8457996D01*
X2607157Y8454898D01*
X2603042Y8450783D01*
X2599944Y8445906D01*
X2597962Y8440115D01*
X2595778Y8436559D01*
X2592425Y8434171D01*
X2588361Y8433308D01*
X2500579Y8433308D01*
X2496972Y8433968D01*
X2493822Y8435898D01*
X2491536Y8438794D01*
X2490368Y8443671D01*
X2488438Y8449106D01*
X2485339Y8454034D01*
X2481275Y8458098D01*
X2476347Y8461197D01*
X2470912Y8463076D01*
X2464562Y8463788D01*
X2385060Y8463788D01*
X2378760Y8463076D01*
X2373274Y8461197D01*
X2368397Y8458098D01*
X2364282Y8454034D01*
X2361234Y8449106D01*
X2359101Y8443061D01*
X2356967Y8439505D01*
X2353564Y8437067D01*
X2349500Y8436254D01*
X2345436Y8437067D01*
X2342032Y8439505D01*
X2339898Y8443061D01*
X2337765Y8449106D01*
X2334717Y8454034D01*
X2330602Y8458098D01*
X2325725Y8461197D01*
X2320239Y8463076D01*
X2313940Y8463788D01*
X2300681Y8463788D01*
X2300681Y8422640D01*
X2348433Y8422640D01*
X2352344Y8421878D01*
X2355596Y8419693D01*
X2357831Y8416391D01*
X2358593Y8412480D01*
X2358593Y8376920D01*
X2357831Y8373008D01*
X2355596Y8369706D01*
X2352344Y8367522D01*
X2348433Y8366759D01*
X2300681Y8366759D01*
G37*
G36*
X5287010Y8343849D02*
G01*
X5377637Y8343849D01*
X5377637Y8395919D01*
X5369356Y8395919D01*
X5356606Y8395055D01*
X5344464Y8392515D01*
X5332780Y8388350D01*
X5321757Y8382660D01*
X5311648Y8375497D01*
X5302554Y8367014D01*
X5294731Y8357412D01*
X5288280Y8346795D01*
G37*
G36*
X5550357Y8343849D02*
G01*
X5640984Y8343849D01*
X5639714Y8346795D01*
X5633262Y8357412D01*
X5625439Y8367014D01*
X5616346Y8375497D01*
X5606237Y8382660D01*
X5595213Y8388350D01*
X5583529Y8392515D01*
X5571388Y8395055D01*
X5558637Y8395919D01*
X5550357Y8395919D01*
G37*
G36*
X889000Y8393125D02*
G01*
X903528Y8394039D01*
X917803Y8396732D01*
X931671Y8401253D01*
X944829Y8407450D01*
X957122Y8415223D01*
X968349Y8424519D01*
X978306Y8435136D01*
X986840Y8446922D01*
X993851Y8459673D01*
X999236Y8473186D01*
X1002842Y8487308D01*
X1004671Y8501735D01*
X1004671Y8516264D01*
X1002842Y8530691D01*
X999236Y8544814D01*
X993851Y8558326D01*
X986840Y8571077D01*
X978306Y8582863D01*
X968349Y8593480D01*
X957122Y8602776D01*
X944829Y8610549D01*
X931671Y8616746D01*
X917803Y8621268D01*
X903528Y8623960D01*
X889000Y8624874D01*
X874471Y8623960D01*
X860196Y8621268D01*
X846328Y8616746D01*
X833170Y8610549D01*
X820877Y8602776D01*
X809650Y8593480D01*
X799693Y8582863D01*
X791159Y8571077D01*
X784148Y8558326D01*
X778764Y8544814D01*
X775157Y8530691D01*
X773328Y8516264D01*
X773328Y8501735D01*
X775157Y8487308D01*
X778764Y8473186D01*
X784148Y8459673D01*
X791159Y8446922D01*
X799693Y8435136D01*
X809650Y8424519D01*
X820877Y8415223D01*
X833170Y8407450D01*
X846328Y8401253D01*
X860196Y8396732D01*
X874471Y8394039D01*
G37*
G36*
X3652316Y8410854D02*
G01*
X3691890Y8410854D01*
X3691890Y8426450D01*
X3691178Y8432749D01*
X3689299Y8438235D01*
X3686200Y8443112D01*
X3682085Y8447227D01*
X3677208Y8450275D01*
X3671722Y8452205D01*
X3665423Y8452916D01*
X3652316Y8452916D01*
G37*
G36*
X2207920Y8422640D02*
G01*
X2247646Y8422640D01*
X2247646Y8463788D01*
X2234438Y8463788D01*
X2228088Y8463076D01*
X2222652Y8461197D01*
X2217724Y8458098D01*
X2213660Y8454034D01*
X2210562Y8449106D01*
X2208631Y8443671D01*
X2207920Y8437321D01*
G37*
G36*
X5104587Y8454085D02*
G01*
X5147665Y8454085D01*
X5147665Y8503615D01*
X5078069Y8503615D01*
X5078069Y8480552D01*
X5078780Y8474202D01*
X5080711Y8468766D01*
X5083810Y8463838D01*
X5087874Y8459774D01*
X5092801Y8456676D01*
X5098237Y8454796D01*
G37*
G36*
X5260340Y8454085D02*
G01*
X5303418Y8454085D01*
X5309768Y8454796D01*
X5315204Y8456676D01*
X5320131Y8459774D01*
X5324195Y8463838D01*
X5327294Y8468766D01*
X5329174Y8474202D01*
X5329885Y8480552D01*
X5329885Y8503615D01*
X5260340Y8503615D01*
G37*
G36*
X1743557Y8532876D02*
G01*
X1812442Y8532876D01*
X1818741Y8533587D01*
X1824228Y8535466D01*
X1829104Y8538565D01*
X1833219Y8542629D01*
X1836267Y8547557D01*
X1838198Y8552992D01*
X1838909Y8559342D01*
X1838909Y8683193D01*
X1838198Y8689543D01*
X1836267Y8694978D01*
X1833219Y8699906D01*
X1829155Y8703919D01*
X1821484Y8708644D01*
X1818233Y8711793D01*
X1816709Y8716010D01*
X1817116Y8720480D01*
X1819452Y8724341D01*
X1822246Y8727287D01*
X1827631Y8735263D01*
X1831644Y8744051D01*
X1834032Y8753398D01*
X1834896Y8763000D01*
X1834032Y8772601D01*
X1831644Y8781948D01*
X1827631Y8790736D01*
X1822246Y8798712D01*
X1815592Y8805672D01*
X1807819Y8811412D01*
X1799183Y8815781D01*
X1789988Y8818575D01*
X1780438Y8819845D01*
X1770786Y8819388D01*
X1761337Y8817356D01*
X1752396Y8813800D01*
X1744167Y8808720D01*
X1736953Y8802370D01*
X1730857Y8794851D01*
X1726184Y8786418D01*
X1722983Y8777325D01*
X1721357Y8767826D01*
X1721357Y8758174D01*
X1722983Y8748674D01*
X1726184Y8739581D01*
X1730857Y8731148D01*
X1737156Y8723426D01*
X1738934Y8720074D01*
X1739392Y8716314D01*
X1738426Y8712708D01*
X1736191Y8709609D01*
X1726895Y8703970D01*
X1722780Y8699906D01*
X1719732Y8694978D01*
X1717802Y8689543D01*
X1717090Y8683193D01*
X1717090Y8559342D01*
X1717802Y8552992D01*
X1719732Y8547557D01*
X1722780Y8542629D01*
X1726895Y8538565D01*
X1731772Y8535466D01*
X1737258Y8533587D01*
G37*
G36*
X4740554Y8576310D02*
G01*
X4756150Y8576310D01*
X4762449Y8577021D01*
X4767935Y8578900D01*
X4772812Y8581999D01*
X4776927Y8586114D01*
X4779975Y8590991D01*
X4781905Y8596477D01*
X4782616Y8602776D01*
X4782616Y8615883D01*
X4740554Y8615883D01*
G37*
G36*
X4667250Y8576310D02*
G01*
X4682845Y8576310D01*
X4682845Y8615883D01*
X4640783Y8615883D01*
X4640783Y8602776D01*
X4641494Y8596477D01*
X4643424Y8590991D01*
X4646472Y8586114D01*
X4650587Y8581999D01*
X4655464Y8578900D01*
X4660950Y8577021D01*
G37*
G36*
X5078069Y8576310D02*
G01*
X5147665Y8576310D01*
X5147665Y8625890D01*
X5104587Y8625890D01*
X5098237Y8625179D01*
X5092801Y8623249D01*
X5087874Y8620201D01*
X5083810Y8616086D01*
X5080711Y8611209D01*
X5078780Y8605723D01*
X5078069Y8599424D01*
G37*
G36*
X5260340Y8576310D02*
G01*
X5329885Y8576310D01*
X5329885Y8599424D01*
X5329174Y8605723D01*
X5327294Y8611209D01*
X5324195Y8616086D01*
X5320131Y8620201D01*
X5315204Y8623249D01*
X5309768Y8625179D01*
X5303418Y8625890D01*
X5260340Y8625890D01*
G37*
G36*
X5461050Y8584133D02*
G01*
X5472836Y8584590D01*
X5484469Y8586724D01*
X5495645Y8590534D01*
X5506110Y8595918D01*
X5515711Y8602827D01*
X5524246Y8611006D01*
X5531459Y8620353D01*
X5537250Y8630666D01*
X5541467Y8641689D01*
X5544007Y8653221D01*
X5544870Y8664956D01*
X5544007Y8676741D01*
X5541467Y8688273D01*
X5537250Y8699296D01*
X5531459Y8709609D01*
X5524246Y8718956D01*
X5515711Y8727135D01*
X5506110Y8734044D01*
X5495645Y8739428D01*
X5484469Y8743238D01*
X5472836Y8745372D01*
X5461050Y8745829D01*
X5449316Y8744508D01*
X5437886Y8741511D01*
X5427014Y8736888D01*
X5416956Y8730742D01*
X5407863Y8723223D01*
X5399989Y8714435D01*
X5393486Y8704580D01*
X5388457Y8693861D01*
X5385054Y8682583D01*
X5383326Y8670899D01*
X5383326Y8659063D01*
X5385054Y8647379D01*
X5388457Y8636101D01*
X5393486Y8625382D01*
X5399989Y8615527D01*
X5407863Y8606739D01*
X5416956Y8599220D01*
X5427014Y8593074D01*
X5437886Y8588451D01*
X5449316Y8585454D01*
G37*
G36*
X3652316Y8641283D02*
G01*
X3665423Y8641283D01*
X3671722Y8641994D01*
X3677208Y8643924D01*
X3682085Y8646972D01*
X3686200Y8651087D01*
X3689299Y8655964D01*
X3691178Y8661450D01*
X3691890Y8667750D01*
X3691890Y8683345D01*
X3652316Y8683345D01*
G37*
G36*
X889000Y8647125D02*
G01*
X903528Y8648039D01*
X917803Y8650732D01*
X931671Y8655253D01*
X944829Y8661450D01*
X957122Y8669223D01*
X968349Y8678519D01*
X978306Y8689136D01*
X986840Y8700922D01*
X993851Y8713673D01*
X999236Y8727186D01*
X1002842Y8741308D01*
X1004671Y8755735D01*
X1004671Y8770264D01*
X1002842Y8784691D01*
X999236Y8798814D01*
X993851Y8812326D01*
X986840Y8825077D01*
X978306Y8836863D01*
X968349Y8847480D01*
X957122Y8856776D01*
X944829Y8864549D01*
X931671Y8870746D01*
X917803Y8875268D01*
X903528Y8877960D01*
X889000Y8878874D01*
X874471Y8877960D01*
X860196Y8875268D01*
X846328Y8870746D01*
X833170Y8864549D01*
X820877Y8856776D01*
X809650Y8847480D01*
X799693Y8836863D01*
X791159Y8825077D01*
X784148Y8812326D01*
X778764Y8798814D01*
X775157Y8784691D01*
X773328Y8770264D01*
X773328Y8755735D01*
X775157Y8741308D01*
X778764Y8727186D01*
X784148Y8713673D01*
X791159Y8700922D01*
X799693Y8689136D01*
X809650Y8678519D01*
X820877Y8669223D01*
X833170Y8661450D01*
X846328Y8655253D01*
X860196Y8650732D01*
X874471Y8648039D01*
G37*
G36*
X4880457Y8671915D02*
G01*
X4891074Y8671915D01*
X4891074Y8701481D01*
X4853990Y8701481D01*
X4853990Y8698382D01*
X4854702Y8692083D01*
X4856632Y8686596D01*
X4859680Y8681720D01*
X4863795Y8677605D01*
X4868672Y8674506D01*
X4874158Y8672626D01*
G37*
G36*
X4938725Y8671915D02*
G01*
X4949342Y8671915D01*
X4955641Y8672626D01*
X4961128Y8674506D01*
X4966004Y8677605D01*
X4970119Y8681720D01*
X4973167Y8686596D01*
X4975098Y8692083D01*
X4975809Y8698382D01*
X4975809Y8701481D01*
X4938725Y8701481D01*
G37*
G36*
X2633776Y8679383D02*
G01*
X2646883Y8679383D01*
X2646883Y8721445D01*
X2607310Y8721445D01*
X2607310Y8705850D01*
X2608021Y8699550D01*
X2609900Y8694064D01*
X2612999Y8689187D01*
X2617114Y8685072D01*
X2621991Y8682024D01*
X2627477Y8680094D01*
G37*
G36*
X2240076Y8679383D02*
G01*
X2253183Y8679383D01*
X2253183Y8721445D01*
X2213610Y8721445D01*
X2213610Y8705850D01*
X2214321Y8699550D01*
X2216200Y8694064D01*
X2219299Y8689187D01*
X2223414Y8685072D01*
X2228291Y8682024D01*
X2233777Y8680094D01*
G37*
G36*
X2699562Y8679383D02*
G01*
X2712618Y8679383D01*
X2718968Y8680094D01*
X2724404Y8682024D01*
X2729331Y8685072D01*
X2733395Y8689187D01*
X2734614Y8691067D01*
X2737408Y8694013D01*
X2741168Y8695639D01*
X2745232Y8695639D01*
X2748991Y8694013D01*
X2751785Y8691067D01*
X2753004Y8689187D01*
X2757068Y8685072D01*
X2761996Y8682024D01*
X2767431Y8680094D01*
X2773781Y8679383D01*
X2852623Y8679383D01*
X2858922Y8680094D01*
X2864408Y8682024D01*
X2869285Y8685072D01*
X2873400Y8689187D01*
X2876499Y8694064D01*
X2878378Y8699550D01*
X2879090Y8705850D01*
X2879090Y8794750D01*
X2878378Y8801049D01*
X2876499Y8806535D01*
X2873400Y8811412D01*
X2869285Y8815527D01*
X2864408Y8818575D01*
X2858922Y8820505D01*
X2852623Y8821216D01*
X2818790Y8821216D01*
X2814878Y8821978D01*
X2811576Y8824163D01*
X2809392Y8827465D01*
X2808630Y8831376D01*
X2808630Y8840470D01*
X2809392Y8844330D01*
X2811576Y8847632D01*
X2814878Y8849817D01*
X2818790Y8850630D01*
X2824429Y8850630D01*
X2830728Y8851341D01*
X2836214Y8853220D01*
X2841091Y8856319D01*
X2845206Y8860383D01*
X2848305Y8865311D01*
X2850184Y8870746D01*
X2850896Y8877096D01*
X2850896Y9008618D01*
X2851658Y9012529D01*
X2853893Y9015780D01*
X2925114Y9087053D01*
X2928416Y9089237D01*
X2932328Y9089999D01*
X3098749Y9089999D01*
X3102610Y9089237D01*
X3105912Y9087053D01*
X3108096Y9083751D01*
X3108909Y9079839D01*
X3108909Y9023807D01*
X3109620Y9017508D01*
X3111500Y9012021D01*
X3114598Y9007144D01*
X3118662Y9003030D01*
X3123590Y8999982D01*
X3129026Y8998051D01*
X3135376Y8997340D01*
X3290824Y8997340D01*
X3297174Y8998051D01*
X3302609Y8999982D01*
X3307537Y9003030D01*
X3311601Y9007144D01*
X3314700Y9012021D01*
X3316579Y9017508D01*
X3317290Y9023807D01*
X3317290Y9233408D01*
X3316579Y9239758D01*
X3314700Y9245193D01*
X3311601Y9250121D01*
X3307537Y9254185D01*
X3302609Y9257284D01*
X3297174Y9259214D01*
X3290824Y9259925D01*
X3261867Y9259925D01*
X3257956Y9260687D01*
X3254705Y9262872D01*
X3252470Y9266174D01*
X3251708Y9270085D01*
X3251708Y9301480D01*
X3252419Y9305290D01*
X3254552Y9308541D01*
X3257346Y9311487D01*
X3262731Y9319463D01*
X3266744Y9328251D01*
X3269132Y9337598D01*
X3269996Y9347200D01*
X3269132Y9356801D01*
X3266744Y9366148D01*
X3262731Y9374936D01*
X3257346Y9382912D01*
X3250692Y9389872D01*
X3242919Y9395612D01*
X3234283Y9399981D01*
X3225088Y9402775D01*
X3215538Y9404045D01*
X3205886Y9403588D01*
X3196437Y9401556D01*
X3187496Y9398000D01*
X3179267Y9392920D01*
X3172053Y9386570D01*
X3165957Y9379051D01*
X3161284Y9370618D01*
X3158083Y9361525D01*
X3156458Y9352026D01*
X3156458Y9342374D01*
X3158083Y9332874D01*
X3161284Y9323781D01*
X3165957Y9315348D01*
X3172256Y9307626D01*
X3173933Y9304629D01*
X3174492Y9301226D01*
X3174492Y9270085D01*
X3173730Y9266174D01*
X3171494Y9262872D01*
X3168243Y9260687D01*
X3164332Y9259925D01*
X3135376Y9259925D01*
X3129026Y9259214D01*
X3123590Y9257284D01*
X3118662Y9254185D01*
X3114598Y9250121D01*
X3111500Y9245193D01*
X3109620Y9239758D01*
X3108909Y9233408D01*
X3108909Y9177375D01*
X3108096Y9173514D01*
X3105912Y9170212D01*
X3102610Y9168028D01*
X3098749Y9167215D01*
X2912618Y9167215D01*
X2904591Y9166453D01*
X2897378Y9164269D01*
X2890672Y9160713D01*
X2884474Y9155582D01*
X2849575Y9120733D01*
X2846832Y9118752D01*
X2843530Y9117787D01*
X2840177Y9117990D01*
X2836214Y9119819D01*
X2830728Y9121698D01*
X2824429Y9122410D01*
X2715564Y9122410D01*
X2709265Y9121698D01*
X2703779Y9119819D01*
X2698902Y9116720D01*
X2694787Y9112656D01*
X2691739Y9107728D01*
X2689809Y9102293D01*
X2689098Y9095943D01*
X2689098Y8877096D01*
X2689809Y8870746D01*
X2691739Y8865311D01*
X2694787Y8860383D01*
X2698902Y8856319D01*
X2703779Y8853220D01*
X2709265Y8851341D01*
X2715564Y8850630D01*
X2721254Y8850630D01*
X2725115Y8849817D01*
X2728417Y8847632D01*
X2730601Y8844330D01*
X2731414Y8840470D01*
X2731414Y8830462D01*
X2730500Y8826296D01*
X2728010Y8822893D01*
X2724302Y8820759D01*
X2720086Y8820353D01*
X2712618Y8821216D01*
X2699562Y8821216D01*
X2699562Y8779154D01*
X2728061Y8779154D01*
X2731668Y8778494D01*
X2734767Y8776614D01*
X2737916Y8772093D01*
X2743047Y8765844D01*
X2744317Y8764574D01*
X2746502Y8761323D01*
X2747264Y8757412D01*
X2747264Y8731605D01*
X2746502Y8727744D01*
X2744317Y8724442D01*
X2741015Y8722207D01*
X2737104Y8721445D01*
X2699562Y8721445D01*
G37*
G36*
X2305862Y8679383D02*
G01*
X2318918Y8679383D01*
X2325268Y8680094D01*
X2330704Y8682024D01*
X2335631Y8685072D01*
X2339695Y8689187D01*
X2340914Y8691067D01*
X2343708Y8694013D01*
X2347468Y8695639D01*
X2351532Y8695639D01*
X2355291Y8694013D01*
X2358085Y8691067D01*
X2359304Y8689187D01*
X2363368Y8685072D01*
X2368296Y8682024D01*
X2373731Y8680094D01*
X2380081Y8679383D01*
X2458923Y8679383D01*
X2465222Y8680094D01*
X2470708Y8682024D01*
X2475585Y8685072D01*
X2479700Y8689187D01*
X2482799Y8694064D01*
X2484678Y8699550D01*
X2485390Y8705850D01*
X2485390Y8757412D01*
X2486152Y8761272D01*
X2488387Y8764574D01*
X2566924Y8843162D01*
X2570022Y8846921D01*
X2573528Y8849614D01*
X2577896Y8850630D01*
X2594406Y8850630D01*
X2600756Y8851341D01*
X2606192Y8853220D01*
X2611120Y8856319D01*
X2615184Y8860383D01*
X2618282Y8865311D01*
X2620213Y8870746D01*
X2620924Y8877096D01*
X2620924Y9095943D01*
X2620213Y9102293D01*
X2618282Y9107728D01*
X2615184Y9112656D01*
X2611120Y9116720D01*
X2606192Y9119819D01*
X2600756Y9121698D01*
X2594406Y9122410D01*
X2588768Y9122410D01*
X2584856Y9123222D01*
X2581605Y9125407D01*
X2579370Y9128709D01*
X2578608Y9132570D01*
X2578608Y9460230D01*
X2579370Y9464090D01*
X2581605Y9467392D01*
X2584856Y9469577D01*
X2588768Y9470390D01*
X2714447Y9470390D01*
X2720746Y9471101D01*
X2726232Y9472980D01*
X2731109Y9476079D01*
X2735224Y9480143D01*
X2738272Y9485071D01*
X2740202Y9490506D01*
X2740914Y9496856D01*
X2740914Y9715703D01*
X2740202Y9722053D01*
X2738272Y9727488D01*
X2735224Y9732416D01*
X2731109Y9736480D01*
X2726232Y9739579D01*
X2720746Y9741458D01*
X2714447Y9742170D01*
X2365552Y9742170D01*
X2359253Y9741458D01*
X2353767Y9739579D01*
X2348890Y9736480D01*
X2344775Y9732416D01*
X2341727Y9727488D01*
X2339797Y9722053D01*
X2339086Y9715703D01*
X2339086Y9655048D01*
X2338324Y9651136D01*
X2336139Y9647885D01*
X2332837Y9645650D01*
X2328926Y9644888D01*
X1224788Y9644888D01*
X1216761Y9644075D01*
X1209548Y9641890D01*
X1202842Y9638334D01*
X1196644Y9633204D01*
X1022248Y9458858D01*
X1018946Y9456674D01*
X1015085Y9455861D01*
X1011174Y9456674D01*
X1007871Y9458858D01*
X1005687Y9462160D01*
X1004925Y9466021D01*
X1004925Y9473641D01*
X940358Y9473641D01*
X940358Y9409074D01*
X947978Y9409074D01*
X951839Y9408312D01*
X955141Y9406128D01*
X957326Y9402826D01*
X958138Y9398914D01*
X957326Y9395053D01*
X955141Y9391751D01*
X943864Y9380423D01*
X940409Y9378188D01*
X936345Y9377476D01*
X931671Y9378746D01*
X917803Y9383268D01*
X903528Y9385960D01*
X889000Y9386874D01*
X874471Y9385960D01*
X860196Y9383268D01*
X846328Y9378746D01*
X833170Y9372549D01*
X820877Y9364776D01*
X809650Y9355480D01*
X799693Y9344863D01*
X791159Y9333077D01*
X784148Y9320326D01*
X778764Y9306814D01*
X775157Y9292691D01*
X773328Y9278264D01*
X773328Y9263735D01*
X775157Y9249308D01*
X778764Y9235186D01*
X784148Y9221673D01*
X791159Y9208922D01*
X799693Y9197136D01*
X809650Y9186519D01*
X820877Y9177223D01*
X833170Y9169450D01*
X846328Y9163253D01*
X860196Y9158732D01*
X874471Y9156039D01*
X889000Y9155125D01*
X903528Y9156039D01*
X917803Y9158732D01*
X931671Y9163253D01*
X944829Y9169450D01*
X957122Y9177223D01*
X968349Y9186519D01*
X978306Y9197136D01*
X986840Y9208922D01*
X993851Y9221673D01*
X999236Y9235186D01*
X1002842Y9249308D01*
X1004671Y9263735D01*
X1004671Y9278264D01*
X1002842Y9292691D01*
X999236Y9306814D01*
X996035Y9314789D01*
X995324Y9318650D01*
X996137Y9322460D01*
X998321Y9325711D01*
X1237284Y9564674D01*
X1240586Y9566910D01*
X1244498Y9567672D01*
X2328926Y9567672D01*
X2332837Y9566910D01*
X2336139Y9564674D01*
X2338324Y9561423D01*
X2339086Y9557512D01*
X2339086Y9496856D01*
X2339797Y9490506D01*
X2341727Y9485071D01*
X2344775Y9480143D01*
X2348890Y9476079D01*
X2353767Y9472980D01*
X2359253Y9471101D01*
X2365552Y9470390D01*
X2491232Y9470390D01*
X2495143Y9469577D01*
X2498394Y9467392D01*
X2500630Y9464090D01*
X2501392Y9460230D01*
X2501392Y9132570D01*
X2500630Y9128709D01*
X2498394Y9125407D01*
X2495143Y9123222D01*
X2491232Y9122410D01*
X2485593Y9122410D01*
X2479243Y9121698D01*
X2473807Y9119819D01*
X2468880Y9116720D01*
X2464816Y9112656D01*
X2461717Y9107728D01*
X2459786Y9102293D01*
X2459075Y9095943D01*
X2459075Y8877096D01*
X2459786Y8870746D01*
X2461717Y8865311D01*
X2464409Y8860993D01*
X2465730Y8857843D01*
X2465933Y8854440D01*
X2464968Y8851188D01*
X2462987Y8848394D01*
X2438806Y8824163D01*
X2435504Y8821978D01*
X2431592Y8821216D01*
X2380081Y8821216D01*
X2373731Y8820505D01*
X2368296Y8818575D01*
X2363368Y8815527D01*
X2359304Y8811412D01*
X2358085Y8809532D01*
X2355291Y8806586D01*
X2351532Y8804960D01*
X2347468Y8804960D01*
X2343708Y8806586D01*
X2340914Y8809532D01*
X2339695Y8811412D01*
X2335631Y8815527D01*
X2330704Y8818575D01*
X2325268Y8820505D01*
X2318918Y8821216D01*
X2305862Y8821216D01*
X2305862Y8779154D01*
X2343404Y8779154D01*
X2347315Y8778392D01*
X2350617Y8776157D01*
X2352802Y8772855D01*
X2353564Y8768994D01*
X2353564Y8731605D01*
X2352802Y8727744D01*
X2350617Y8724442D01*
X2347315Y8722207D01*
X2343404Y8721445D01*
X2305862Y8721445D01*
G37*
G36*
X3652316Y8741054D02*
G01*
X3691890Y8741054D01*
X3691890Y8756650D01*
X3691178Y8762949D01*
X3689299Y8768435D01*
X3686200Y8773312D01*
X3682085Y8777427D01*
X3677208Y8780475D01*
X3671722Y8782405D01*
X3665423Y8783116D01*
X3652316Y8783116D01*
G37*
G36*
X2607310Y8779154D02*
G01*
X2646883Y8779154D01*
X2646883Y8821216D01*
X2633776Y8821216D01*
X2627477Y8820505D01*
X2621991Y8818575D01*
X2617114Y8815527D01*
X2612999Y8811412D01*
X2609900Y8806535D01*
X2608021Y8801049D01*
X2607310Y8794750D01*
G37*
G36*
X2213610Y8779154D02*
G01*
X2253183Y8779154D01*
X2253183Y8821216D01*
X2240076Y8821216D01*
X2233777Y8820505D01*
X2228291Y8818575D01*
X2223414Y8815527D01*
X2219299Y8811412D01*
X2216200Y8806535D01*
X2214321Y8801049D01*
X2213610Y8794750D01*
G37*
G36*
X2343861Y8850630D02*
G01*
X2364435Y8850630D01*
X2370734Y8851341D01*
X2376220Y8853220D01*
X2381097Y8856319D01*
X2385212Y8860383D01*
X2388260Y8865311D01*
X2390190Y8870746D01*
X2390902Y8877096D01*
X2390902Y8925153D01*
X2343861Y8925153D01*
G37*
G36*
X2255570Y8850630D02*
G01*
X2276144Y8850630D01*
X2276144Y8925153D01*
X2229104Y8925153D01*
X2229104Y8877096D01*
X2229815Y8870746D01*
X2231694Y8865311D01*
X2234793Y8860383D01*
X2238908Y8856319D01*
X2243785Y8853220D01*
X2249271Y8851341D01*
G37*
G36*
X889000Y8901125D02*
G01*
X903528Y8902039D01*
X917803Y8904732D01*
X931671Y8909253D01*
X944829Y8915450D01*
X957122Y8923223D01*
X968349Y8932519D01*
X978306Y8943136D01*
X986840Y8954922D01*
X993851Y8967673D01*
X995578Y8971991D01*
X997762Y8975344D01*
X1001064Y8977579D01*
X1005027Y8978392D01*
X1290828Y8978392D01*
X1298854Y8979204D01*
X1306118Y8981389D01*
X1312773Y8984945D01*
X1318971Y8990076D01*
X1646224Y9317278D01*
X1649526Y9319463D01*
X1653387Y9320276D01*
X1717446Y9320276D01*
X1723745Y9320987D01*
X1729232Y9322866D01*
X1734108Y9325965D01*
X1738223Y9330029D01*
X1741271Y9334957D01*
X1743202Y9340392D01*
X1743913Y9346742D01*
X1743913Y9470593D01*
X1743202Y9476943D01*
X1741271Y9482378D01*
X1738223Y9487306D01*
X1734108Y9491370D01*
X1729232Y9494469D01*
X1723745Y9496348D01*
X1717446Y9497060D01*
X1648561Y9497060D01*
X1642262Y9496348D01*
X1636776Y9494469D01*
X1631899Y9491370D01*
X1627784Y9487306D01*
X1624736Y9482378D01*
X1622806Y9476943D01*
X1622094Y9470593D01*
X1622094Y9406585D01*
X1621332Y9402673D01*
X1619097Y9399371D01*
X1278331Y9058605D01*
X1275029Y9056370D01*
X1271117Y9055608D01*
X1005027Y9055608D01*
X1001064Y9056420D01*
X997762Y9058656D01*
X995578Y9062008D01*
X993851Y9066326D01*
X986840Y9079077D01*
X978306Y9090863D01*
X968349Y9101480D01*
X957122Y9110776D01*
X944829Y9118549D01*
X931671Y9124746D01*
X917803Y9129268D01*
X903528Y9131960D01*
X889000Y9132874D01*
X874471Y9131960D01*
X860196Y9129268D01*
X846328Y9124746D01*
X833170Y9118549D01*
X820877Y9110776D01*
X809650Y9101480D01*
X799693Y9090863D01*
X791159Y9079077D01*
X784148Y9066326D01*
X778764Y9052814D01*
X775157Y9038691D01*
X773328Y9024264D01*
X773328Y9009735D01*
X775157Y8995308D01*
X778764Y8981186D01*
X784148Y8967673D01*
X791159Y8954922D01*
X799693Y8943136D01*
X809650Y8932519D01*
X820877Y8923223D01*
X833170Y8915450D01*
X846328Y8909253D01*
X860196Y8904732D01*
X874471Y8902039D01*
G37*
G36*
X5461050Y9034170D02*
G01*
X5472836Y9034576D01*
X5484469Y9036761D01*
X5495645Y9040571D01*
X5506110Y9045956D01*
X5515711Y9052814D01*
X5524246Y9061043D01*
X5531459Y9070340D01*
X5537250Y9080652D01*
X5541467Y9091676D01*
X5544007Y9103207D01*
X5544870Y9114993D01*
X5544007Y9126778D01*
X5541467Y9138310D01*
X5537250Y9149334D01*
X5531459Y9159646D01*
X5524246Y9168942D01*
X5515711Y9177172D01*
X5506110Y9184030D01*
X5495645Y9189415D01*
X5484469Y9193225D01*
X5472836Y9195409D01*
X5461050Y9195816D01*
X5449316Y9194546D01*
X5437886Y9191548D01*
X5427014Y9186926D01*
X5416956Y9180779D01*
X5407863Y9173210D01*
X5399989Y9164421D01*
X5393486Y9154566D01*
X5388457Y9143898D01*
X5385054Y9132570D01*
X5383326Y9120886D01*
X5383326Y9109100D01*
X5385054Y9097416D01*
X5388457Y9086088D01*
X5393486Y9075420D01*
X5399989Y9065564D01*
X5407863Y9056776D01*
X5416956Y9049207D01*
X5427014Y9043060D01*
X5437886Y9038437D01*
X5449316Y9035440D01*
G37*
G36*
X2229104Y9047886D02*
G01*
X2276144Y9047886D01*
X2276144Y9122410D01*
X2255570Y9122410D01*
X2249271Y9121698D01*
X2243785Y9119819D01*
X2238908Y9116720D01*
X2234793Y9112656D01*
X2231694Y9107728D01*
X2229815Y9102293D01*
X2229104Y9095943D01*
G37*
G36*
X2343861Y9047886D02*
G01*
X2390902Y9047886D01*
X2390902Y9095943D01*
X2390190Y9102293D01*
X2388260Y9107728D01*
X2385212Y9112656D01*
X2381097Y9116720D01*
X2376220Y9119819D01*
X2370734Y9121698D01*
X2364435Y9122410D01*
X2343861Y9122410D01*
G37*
G36*
X3845255Y9064345D02*
G01*
X3853179Y9064345D01*
X3860952Y9065818D01*
X3868318Y9068663D01*
X3876243Y9073692D01*
X3879799Y9075064D01*
X3883609Y9075064D01*
X3887114Y9073692D01*
X3895090Y9068663D01*
X3902405Y9065818D01*
X3910228Y9064345D01*
X3918153Y9064345D01*
X3925976Y9065818D01*
X3933342Y9068663D01*
X3941267Y9073692D01*
X3944823Y9075064D01*
X3948582Y9075064D01*
X3952138Y9073692D01*
X3960063Y9068663D01*
X3967429Y9065818D01*
X3975252Y9064345D01*
X3983177Y9064345D01*
X3990949Y9065818D01*
X3998315Y9068663D01*
X4006240Y9073692D01*
X4009796Y9075064D01*
X4013606Y9075064D01*
X4017162Y9073692D01*
X4025087Y9068663D01*
X4029252Y9067038D01*
X4029252Y9127439D01*
X4025595Y9129572D01*
X4023156Y9132976D01*
X4022242Y9137142D01*
X4022242Y9216085D01*
X4023156Y9220200D01*
X4025595Y9223603D01*
X4029252Y9225737D01*
X4029252Y9286189D01*
X4025087Y9284563D01*
X4017162Y9279534D01*
X4013606Y9278112D01*
X4009796Y9278112D01*
X4006240Y9279534D01*
X3998315Y9284563D01*
X3990949Y9287408D01*
X3983177Y9288881D01*
X3975252Y9288881D01*
X3967429Y9287408D01*
X3960063Y9284563D01*
X3952138Y9279534D01*
X3948582Y9278112D01*
X3944823Y9278112D01*
X3941267Y9279534D01*
X3933342Y9284563D01*
X3925976Y9287408D01*
X3918153Y9288881D01*
X3910228Y9288881D01*
X3902405Y9287408D01*
X3895090Y9284563D01*
X3887114Y9279534D01*
X3883609Y9278112D01*
X3879799Y9278112D01*
X3876243Y9279534D01*
X3868318Y9284563D01*
X3860952Y9287408D01*
X3853179Y9288881D01*
X3845255Y9288881D01*
X3837432Y9287408D01*
X3830015Y9284512D01*
X3823258Y9280347D01*
X3817416Y9275013D01*
X3812641Y9268663D01*
X3809085Y9261551D01*
X3806901Y9253931D01*
X3806139Y9245549D01*
X3806139Y9107627D01*
X3806901Y9099296D01*
X3809085Y9091625D01*
X3812641Y9084513D01*
X3817416Y9078214D01*
X3823258Y9072829D01*
X3830015Y9068663D01*
X3837432Y9065818D01*
G37*
G36*
X4938725Y9078518D02*
G01*
X4975809Y9078518D01*
X4975809Y9081617D01*
X4975098Y9087916D01*
X4973167Y9093403D01*
X4970119Y9098280D01*
X4966004Y9102394D01*
X4961128Y9105493D01*
X4955641Y9107373D01*
X4949342Y9108084D01*
X4938725Y9108084D01*
G37*
G36*
X4853990Y9078518D02*
G01*
X4891074Y9078518D01*
X4891074Y9108084D01*
X4880457Y9108084D01*
X4874158Y9107373D01*
X4868672Y9105493D01*
X4863795Y9102394D01*
X4859680Y9098280D01*
X4856632Y9093403D01*
X4854702Y9087916D01*
X4853990Y9081617D01*
G37*
G36*
X4740554Y9164116D02*
G01*
X4782616Y9164116D01*
X4782616Y9177223D01*
X4781905Y9183522D01*
X4779975Y9189008D01*
X4776927Y9193885D01*
X4772812Y9198000D01*
X4767935Y9201099D01*
X4762449Y9202978D01*
X4756150Y9203690D01*
X4740554Y9203690D01*
G37*
G36*
X4640783Y9164116D02*
G01*
X4682845Y9164116D01*
X4682845Y9203690D01*
X4667250Y9203690D01*
X4660950Y9202978D01*
X4655464Y9201099D01*
X4650587Y9198000D01*
X4646472Y9193885D01*
X4643424Y9189008D01*
X4641494Y9183522D01*
X4640783Y9177223D01*
G37*
G36*
X3446576Y9327083D02*
G01*
X3459683Y9327083D01*
X3459683Y9369145D01*
X3420110Y9369145D01*
X3420110Y9353550D01*
X3420821Y9347250D01*
X3422700Y9341764D01*
X3425799Y9336887D01*
X3429914Y9332772D01*
X3434791Y9329724D01*
X3440277Y9327794D01*
G37*
G36*
X5369356Y9384080D02*
G01*
X5377637Y9384080D01*
X5377637Y9436150D01*
X5287010Y9436150D01*
X5288280Y9433204D01*
X5294731Y9422587D01*
X5302554Y9412986D01*
X5311648Y9404502D01*
X5321757Y9397339D01*
X5332780Y9391650D01*
X5344464Y9387484D01*
X5356606Y9384944D01*
G37*
G36*
X5550357Y9384080D02*
G01*
X5558637Y9384080D01*
X5571388Y9384944D01*
X5583529Y9387484D01*
X5595213Y9391650D01*
X5606237Y9397339D01*
X5616346Y9404502D01*
X5625439Y9412986D01*
X5633262Y9422587D01*
X5639714Y9433204D01*
X5640984Y9436150D01*
X5550357Y9436150D01*
G37*
G36*
X799592Y9409074D02*
G01*
X837641Y9409074D01*
X837641Y9473641D01*
X773074Y9473641D01*
X773074Y9435592D01*
X773785Y9429242D01*
X775716Y9423806D01*
X778814Y9418878D01*
X782878Y9414814D01*
X787806Y9411716D01*
X793242Y9409785D01*
G37*
G36*
X3420110Y9426854D02*
G01*
X3459683Y9426854D01*
X3459683Y9468916D01*
X3446576Y9468916D01*
X3440277Y9468205D01*
X3434791Y9466275D01*
X3429914Y9463227D01*
X3425799Y9459112D01*
X3422700Y9454235D01*
X3420821Y9448749D01*
X3420110Y9442450D01*
G37*
G36*
X5550357Y9513874D02*
G01*
X5640984Y9513874D01*
X5639714Y9516821D01*
X5633262Y9527387D01*
X5625439Y9537039D01*
X5616346Y9545523D01*
X5606237Y9552635D01*
X5595213Y9558375D01*
X5583529Y9562490D01*
X5571388Y9565030D01*
X5558637Y9565894D01*
X5550357Y9565894D01*
G37*
G36*
X5287010Y9513874D02*
G01*
X5377637Y9513874D01*
X5377637Y9565894D01*
X5369356Y9565894D01*
X5356606Y9565030D01*
X5344464Y9562490D01*
X5332780Y9558375D01*
X5321757Y9552635D01*
X5311648Y9545523D01*
X5302554Y9537039D01*
X5294731Y9527387D01*
X5288280Y9516821D01*
G37*
G36*
X4270654Y9545116D02*
G01*
X4312716Y9545116D01*
X4312716Y9558223D01*
X4312005Y9564522D01*
X4310075Y9570008D01*
X4307027Y9574885D01*
X4302912Y9579000D01*
X4298035Y9582099D01*
X4292549Y9583978D01*
X4286250Y9584690D01*
X4270654Y9584690D01*
G37*
G36*
X4170883Y9545116D02*
G01*
X4212945Y9545116D01*
X4212945Y9584690D01*
X4197350Y9584690D01*
X4191050Y9583978D01*
X4185564Y9582099D01*
X4180687Y9579000D01*
X4176572Y9574885D01*
X4173524Y9570008D01*
X4171594Y9564522D01*
X4170883Y9558223D01*
G37*
G36*
X940358Y9576358D02*
G01*
X1004925Y9576358D01*
X1004925Y9614408D01*
X1004214Y9620758D01*
X1002284Y9626193D01*
X999185Y9631121D01*
X995121Y9635185D01*
X990193Y9638284D01*
X984758Y9640214D01*
X978408Y9640925D01*
X940358Y9640925D01*
G37*
G36*
X773074Y9576358D02*
G01*
X837641Y9576358D01*
X837641Y9640925D01*
X799592Y9640925D01*
X793242Y9640214D01*
X787806Y9638284D01*
X782878Y9635185D01*
X778814Y9631121D01*
X775716Y9626193D01*
X773785Y9620758D01*
X773074Y9614408D01*
G37*
G36*
X5040325Y9650018D02*
G01*
X5077409Y9650018D01*
X5077409Y9653117D01*
X5076698Y9659416D01*
X5074767Y9664903D01*
X5071719Y9669780D01*
X5067604Y9673894D01*
X5062728Y9676993D01*
X5057241Y9678873D01*
X5050942Y9679584D01*
X5040325Y9679584D01*
G37*
G36*
X4955590Y9650018D02*
G01*
X4992674Y9650018D01*
X4992674Y9679584D01*
X4982057Y9679584D01*
X4975758Y9678873D01*
X4970272Y9676993D01*
X4965395Y9673894D01*
X4961280Y9669780D01*
X4958232Y9664903D01*
X4956302Y9659416D01*
X4955590Y9653117D01*
G37*

%LPD*%
D10*
X2032000Y8965336D02*
G01*
X2032000Y9309100D01*
X1932431Y9408668D01*
X1872995Y9408668D01*
X1872995Y8371331D02*
G01*
X1919731Y8371331D01*
X2032000Y8483600D01*
X2032000Y8814562D01*
X1872995Y8371331D02*
G01*
X2070100Y8369300D01*
X1524000Y8814663D02*
G01*
X1524000Y8470900D01*
X1623568Y8371331D01*
X1683004Y8371331D01*
X1524000Y8965336D02*
G01*
X1717395Y9158731D01*
X1778000Y9158731D01*
X2540000Y9606279D02*
G01*
X1224279Y9606279D01*
X889000Y9271000D01*
X1683004Y9408665D02*
G01*
X1291338Y9017000D01*
X889000Y9017000D01*
X1778000Y8621268D02*
G01*
X1778000Y8763000D01*
X2540000Y9606279D02*
G01*
X2540000Y8986520D01*
X2419502Y8750300D02*
G01*
X2540000Y8870797D01*
X2540000Y8986520D01*
X2813202Y8750300D02*
G01*
X2769997Y8793505D01*
X2769997Y8986520D01*
X1778000Y9158731D02*
G01*
X1765300Y9146031D01*
X1765300Y8953500D01*
X4914900Y8782799D02*
G01*
X4922088Y8789987D01*
X5204000Y8789987D01*
X4914900Y8997200D02*
G01*
X4922113Y8989987D01*
X5204000Y8989987D01*
X4304207Y9176562D02*
G01*
X4337631Y9143138D01*
X4495800Y9143138D01*
X4304207Y8603411D02*
G01*
X4337657Y8636861D01*
X4495800Y8636861D01*
X4495800Y8787536D02*
G01*
X4501134Y8782202D01*
X4711700Y8782202D01*
X4914900Y8782812D02*
G01*
X4711700Y8782304D01*
X4914900Y8997187D02*
G01*
X4711700Y8997695D01*
X4495800Y8992463D02*
G01*
X4501134Y8997797D01*
X4711700Y8997797D01*
X3626002Y9398000D02*
G01*
X3625989Y9067800D01*
X3486010Y9067800D02*
G01*
X3485997Y8712200D01*
X3485997Y8712200D02*
G01*
X3485997Y8382000D01*
X3485997Y8382000D02*
G01*
X3216630Y8651367D01*
X3213100Y8651367D01*
X3213100Y9128633D02*
G01*
X2912109Y9128633D01*
X2769997Y8986520D01*
X3626002Y9398000D02*
G01*
X3956202Y9728200D01*
X4699000Y9728200D01*
X4858499Y9568700D01*
X5016500Y9568700D01*
X4109211Y9176575D02*
G01*
X4102100Y9183687D01*
X4102100Y9347200D01*
X4239259Y9176512D02*
G01*
X4239259Y9039860D01*
X3979163Y8779763D01*
X3979163Y8603487D01*
X3849192Y8603424D02*
G01*
X3767467Y8521700D01*
X3721100Y8521700D01*
X4174208Y8603424D02*
G01*
X4178300Y8599332D01*
X4178300Y8369300D01*
X4044213Y8603424D02*
G01*
X4038600Y8597811D01*
X4038600Y8267700D01*
X3914190Y8603424D02*
G01*
X3914190Y8773109D01*
X3733800Y8953500D01*
X3213100Y9128633D02*
G01*
X3213100Y9347200D01*
X5016500Y9568700D02*
G01*
X5204000Y9381200D01*
X5204000Y9239999D01*
X4038600Y8267700D02*
G01*
X4076700Y8229600D01*
X4076700Y8128000D01*
X4178300Y8369300D02*
G01*
X4305300Y8242300D01*
X4305300Y8128000D01*
X3914190Y8603424D02*
G01*
X3914190Y8181390D01*
X3860800Y8128000D01*
X3721100Y8521700D02*
G01*
X3784600Y8458200D01*
X3784600Y8267700D01*
X3644900Y8128000D01*
X3632200Y8128000D01*
X2424836Y8394700D02*
G01*
X2663253Y8394687D01*
X2823209Y8394700D02*
G01*
X3098800Y8394700D01*
X3213100Y8509000D01*
X3213100Y8651239D01*
X4241800Y9378797D02*
G01*
X4174210Y9311208D01*
X4174210Y9176562D01*
D11*
G01*
X4305300Y8128000D03*
D12*
G01*
X2424824Y8394700D03*
G01*
X2274175Y8394700D03*
D11*
G01*
X3632200Y8128000D03*
G01*
X4076700Y8128000D03*
G01*
X3860800Y8128000D03*
D13*
G01*
X2823133Y8394700D03*
G01*
X2663240Y8394700D03*
D14*
G01*
X3485997Y9398000D03*
G01*
X3626002Y9398000D03*
G01*
X3626002Y8712200D03*
G01*
X3485997Y8712200D03*
D15*
G01*
X4711700Y9137802D03*
G01*
X4711700Y8997797D03*
D16*
G01*
X5016500Y9633686D03*
G01*
X5016500Y9568687D03*
G01*
X4914900Y8717813D03*
G01*
X4914900Y8782812D03*
G01*
X4914900Y9062186D03*
G01*
X4914900Y8997187D03*
D17*
G01*
X3626002Y9067774D03*
G01*
X3485997Y9067774D03*
D18*
G01*
X1778000Y8621268D03*
G01*
X1872995Y8371331D03*
G01*
X1683004Y8371331D03*
G01*
X1778000Y9158731D03*
G01*
X1683004Y9408668D03*
G01*
X1872995Y9408668D03*
D19*
G01*
X1524000Y8814675D03*
D20*
G01*
X1524000Y8965336D03*
D21*
G01*
X5204002Y8539962D03*
G01*
X5204002Y8789974D03*
G01*
X5204002Y8989974D03*
G01*
X5204002Y9239986D03*
D22*
G01*
X4304207Y9176562D03*
G01*
X4239209Y9176562D03*
G01*
X4174210Y9176562D03*
G01*
X4109211Y9176562D03*
G01*
X4044213Y9176562D03*
G01*
X3979189Y9176562D03*
G01*
X3914190Y9176562D03*
G01*
X3849192Y9176562D03*
G01*
X4304207Y8603411D03*
G01*
X4239209Y8603411D03*
G01*
X4174210Y8603411D03*
G01*
X4109211Y8603411D03*
G01*
X4044213Y8603411D03*
G01*
X3979189Y8603411D03*
G01*
X3914190Y8603411D03*
G01*
X3849192Y8603411D03*
D23*
G01*
X2540000Y9606279D03*
D24*
G01*
X2769997Y8986520D03*
G01*
X2540000Y8986520D03*
G01*
X2310002Y8986520D03*
D14*
G01*
X3626002Y8382000D03*
G01*
X3485997Y8382000D03*
G01*
X2673197Y8750300D03*
G01*
X2813202Y8750300D03*
G01*
X2279497Y8750300D03*
G01*
X2419502Y8750300D03*
D15*
G01*
X4711700Y8642197D03*
G01*
X4711700Y8782202D03*
D25*
G01*
X3213100Y8651374D03*
G01*
X3213100Y9128625D03*
D19*
G01*
X4495800Y9143124D03*
D20*
G01*
X4495800Y8992463D03*
D19*
G01*
X4495800Y8636875D03*
D20*
G01*
X4495800Y8787536D03*
D19*
G01*
X2032000Y8965324D03*
D20*
G01*
X2032000Y8814663D03*
D15*
G01*
X4241800Y9378797D03*
G01*
X4241800Y9518802D03*
D26*
G01*
X889000Y9525000D03*
D27*
G01*
X889000Y9271000D03*
G01*
X889000Y9017000D03*
G01*
X889000Y8763000D03*
G01*
X889000Y8509000D03*
G01*
X889000Y8255000D03*
D28*
G01*
X5463997Y9474987D03*
G01*
X5463997Y8304987D03*
D29*
G01*
X4178300Y8369300D03*
G01*
X2070100Y8369300D03*
G01*
X3721100Y8521700D03*
G01*
X4038600Y8267700D03*
G01*
X1778000Y8763000D03*
G01*
X3733800Y8953500D03*
G01*
X1765300Y8953500D03*
G01*
X3441700Y9664700D03*
G01*
X3276600Y9664700D03*
G01*
X3098800Y9664700D03*
G01*
X3098800Y8128000D03*
G01*
X3276600Y8128000D03*
G01*
X3441700Y8128000D03*
G01*
X4445000Y9652000D03*
G01*
X4660900Y9652000D03*
G01*
X4445000Y8128000D03*
G01*
X4660900Y8128000D03*
G01*
X1524000Y9715500D03*
G01*
X1778000Y9715500D03*
G01*
X2032000Y9715500D03*
G01*
X1524000Y8064500D03*
G01*
X1778000Y8064500D03*
G01*
X2032000Y8064500D03*
G01*
X4102100Y9347200D03*
G01*
X3213100Y9347200D03*
M02*
