G04 Layer: TopPasteMaskLayer*
G04 EasyEDA v6.5.50, 2025-07-01 14:26:41*
G04 10da637b71844612bdca41047c5aba70,f23c0848bd594b818c0f9a27fb038be7,10*
G04 Gerber Generator version 0.2*
G04 Scale: 100 percent, Rotated: No, Reflected: No *
G04 Dimensions in millimeters *
G04 leading zeros omitted , absolute positions ,4 integer and 5 decimal *
%FSLAX45Y45*%
%MOMM*%

%AMMACRO1*21,1,$1,$2,0,0,$3*%
%ADD10R,1.2700X1.2700*%
%ADD11R,0.8000X0.8000*%
%ADD12R,0.8000X0.9000*%
%ADD13R,0.9000X0.8000*%
%ADD14R,0.7000X0.4000*%
%ADD15R,0.7000X1.2500*%
%ADD16R,2.0000X1.2000*%
%ADD17O,0.3430016X1.7314926000000002*%
%ADD18R,3.5000X2.2000*%
%ADD19R,1.1000X2.2000*%
%ADD20MACRO1,1.566X2.1075X0.0000*%
%ADD21C,0.0137*%

%LPD*%
G36*
X2389022Y8439708D02*
G01*
X2383993Y8434679D01*
X2383993Y8411921D01*
X2420975Y8411921D01*
X2420975Y8378901D01*
X2383993Y8378901D01*
X2383993Y8354720D01*
X2389022Y8349691D01*
X2468981Y8349691D01*
X2474010Y8354720D01*
X2474010Y8434679D01*
X2468981Y8439708D01*
G37*
G36*
X2230018Y8439708D02*
G01*
X2224989Y8434679D01*
X2224989Y8354720D01*
X2230018Y8349691D01*
X2309977Y8349691D01*
X2315006Y8354720D01*
X2315006Y8377478D01*
X2278024Y8377478D01*
X2278024Y8410498D01*
X2315006Y8410498D01*
X2315006Y8434679D01*
X2309977Y8439708D01*
G37*
G36*
X3608578Y9110522D02*
G01*
X3581146Y9081160D01*
X3581146Y9053525D01*
X3608578Y9024112D01*
X3658920Y9024112D01*
X3665321Y9030512D01*
X3665321Y9104122D01*
X3658920Y9110522D01*
G37*
G36*
X3451860Y9109405D02*
G01*
X3445459Y9103004D01*
X3445459Y9029395D01*
X3451860Y9022994D01*
X3502202Y9022994D01*
X3529584Y9052356D01*
X3529584Y9080042D01*
X3502202Y9109405D01*
G37*
G36*
X1484020Y8855506D02*
G01*
X1478991Y8850477D01*
X1478991Y8770518D01*
X1484020Y8765489D01*
X1563979Y8765489D01*
X1569008Y8770518D01*
X1569008Y8850477D01*
X1563979Y8855506D01*
X1541221Y8855506D01*
X1541221Y8818473D01*
X1508201Y8818473D01*
X1508201Y8855506D01*
G37*
G36*
X1484020Y9014510D02*
G01*
X1478991Y9009481D01*
X1478991Y8929522D01*
X1484020Y8924493D01*
X1506778Y8924493D01*
X1506778Y8961526D01*
X1539798Y8961526D01*
X1539798Y8924493D01*
X1563979Y8924493D01*
X1569008Y8929522D01*
X1569008Y9009481D01*
X1563979Y9014510D01*
G37*
G36*
X4455820Y9192310D02*
G01*
X4450791Y9187281D01*
X4450791Y9107322D01*
X4455820Y9102293D01*
X4478578Y9102293D01*
X4478578Y9139326D01*
X4511598Y9139326D01*
X4511598Y9102293D01*
X4535779Y9102293D01*
X4540808Y9107322D01*
X4540808Y9187281D01*
X4535779Y9192310D01*
G37*
G36*
X4455820Y9033306D02*
G01*
X4450791Y9028277D01*
X4450791Y8948318D01*
X4455820Y8943289D01*
X4535779Y8943289D01*
X4540808Y8948318D01*
X4540808Y9028277D01*
X4535779Y9033306D01*
X4513021Y9033306D01*
X4513021Y8996273D01*
X4480001Y8996273D01*
X4480001Y9033306D01*
G37*
G36*
X4455820Y8677706D02*
G01*
X4450791Y8672677D01*
X4450791Y8592718D01*
X4455820Y8587689D01*
X4535779Y8587689D01*
X4540808Y8592718D01*
X4540808Y8672677D01*
X4535779Y8677706D01*
X4513021Y8677706D01*
X4513021Y8640673D01*
X4480001Y8640673D01*
X4480001Y8677706D01*
G37*
G36*
X4455820Y8836710D02*
G01*
X4450791Y8831681D01*
X4450791Y8751722D01*
X4455820Y8746693D01*
X4478578Y8746693D01*
X4478578Y8783726D01*
X4511598Y8783726D01*
X4511598Y8746693D01*
X4535779Y8746693D01*
X4540808Y8751722D01*
X4540808Y8831681D01*
X4535779Y8836710D01*
G37*
G36*
X1992020Y9014510D02*
G01*
X1986991Y9009481D01*
X1986991Y8929522D01*
X1992020Y8924493D01*
X2014778Y8924493D01*
X2014778Y8961526D01*
X2047798Y8961526D01*
X2047798Y8924493D01*
X2071979Y8924493D01*
X2077008Y8929522D01*
X2077008Y9009481D01*
X2071979Y9014510D01*
G37*
G36*
X1992020Y8855506D02*
G01*
X1986991Y8850477D01*
X1986991Y8770518D01*
X1992020Y8765489D01*
X2071979Y8765489D01*
X2077008Y8770518D01*
X2077008Y8850477D01*
X2071979Y8855506D01*
X2049221Y8855506D01*
X2049221Y8818473D01*
X2016201Y8818473D01*
X2016201Y8855506D01*
G37*
D10*
G01*
X4305300Y8128000D03*
G01*
X3632200Y8128000D03*
G01*
X4076700Y8128000D03*
G01*
X3860800Y8128000D03*
D11*
G01*
X2823133Y8394700D03*
G01*
X2663240Y8394700D03*
D12*
G01*
X3485997Y9398000D03*
G01*
X3626002Y9398000D03*
G01*
X3626002Y8712200D03*
G01*
X3485997Y8712200D03*
D13*
G01*
X4711700Y9137802D03*
G01*
X4711700Y8997797D03*
D14*
G01*
X5016500Y9633686D03*
G01*
X5016500Y9568687D03*
G01*
X4914900Y8717813D03*
G01*
X4914900Y8782812D03*
G01*
X4914900Y9062186D03*
G01*
X4914900Y8997187D03*
D15*
G01*
X1778000Y8621268D03*
G01*
X1872995Y8371331D03*
G01*
X1683004Y8371331D03*
G01*
X1778000Y9158731D03*
G01*
X1683004Y9408668D03*
G01*
X1872995Y9408668D03*
D16*
G01*
X5204002Y8539962D03*
G01*
X5204002Y8789974D03*
G01*
X5204002Y8989974D03*
G01*
X5204002Y9239986D03*
D17*
G01*
X4304207Y9176562D03*
G01*
X4239209Y9176562D03*
G01*
X4174210Y9176562D03*
G01*
X4109211Y9176562D03*
G01*
X4044213Y9176562D03*
G01*
X3979189Y9176562D03*
G01*
X3914190Y9176562D03*
G01*
X3849192Y9176562D03*
G01*
X4304207Y8603411D03*
G01*
X4239209Y8603411D03*
G01*
X4174210Y8603411D03*
G01*
X4109211Y8603411D03*
G01*
X4044213Y8603411D03*
G01*
X3979189Y8603411D03*
G01*
X3914190Y8603411D03*
G01*
X3849192Y8603411D03*
D18*
G01*
X2540000Y9606279D03*
D19*
G01*
X2769997Y8986520D03*
G01*
X2540000Y8986520D03*
G01*
X2310002Y8986520D03*
D12*
G01*
X3626002Y8382000D03*
G01*
X3485997Y8382000D03*
G01*
X2673197Y8750300D03*
G01*
X2813202Y8750300D03*
G01*
X2279497Y8750300D03*
G01*
X2419502Y8750300D03*
D13*
G01*
X4711700Y8642197D03*
G01*
X4711700Y8782202D03*
D20*
G01*
X3213100Y8651374D03*
G01*
X3213100Y9128625D03*
D13*
G01*
X4241800Y9378797D03*
G01*
X4241800Y9518802D03*
M02*
