G04 Layer: TopSolderMaskLayer*
G04 EasyEDA v6.5.50, 2025-07-01 14:26:41*
G04 10da637b71844612bdca41047c5aba70,f23c0848bd594b818c0f9a27fb038be7,10*
G04 Gerber Generator version 0.2*
G04 Scale: 100 percent, Rotated: No, Reflected: No *
G04 Dimensions in millimeters *
G04 leading zeros omitted , absolute positions ,4 integer and 5 decimal *
%FSLAX45Y45*%
%MOMM*%

%AMMACRO1*4,1,8,-0.6561,-0.6858,-0.6858,-0.656,-0.6858,0.6561,-0.6561,0.6858,0.656,0.6858,0.6858,0.6561,0.6858,-0.656,0.656,-0.6858,-0.6561,-0.6858,0*%
%AMMACRO2*4,1,8,-0.4243,-0.4828,-0.454,-0.453,-0.454,0.4531,-0.4243,0.4828,0.4243,0.4828,0.454,0.4531,0.454,-0.453,0.4243,-0.4828,-0.4243,-0.4828,0*%
%AMMACRO3*4,1,8,-0.4211,-0.4508,-0.4508,-0.421,-0.4508,0.4211,-0.4211,0.4508,0.421,0.4508,0.4508,0.4211,0.4508,-0.421,0.421,-0.4508,-0.4211,-0.4508,0*%
%AMMACRO4*4,1,8,-0.4211,-0.5008,-0.4508,-0.471,-0.4508,0.4711,-0.4211,0.5008,0.421,0.5008,0.4508,0.4711,0.4508,-0.471,0.421,-0.5008,-0.4211,-0.5008,0*%
%AMMACRO5*4,1,8,-0.4711,-0.4508,-0.5008,-0.421,-0.5008,0.4211,-0.4711,0.4508,0.471,0.4508,0.5008,0.4211,0.5008,-0.421,0.471,-0.4508,-0.4711,-0.4508,0*%
%AMMACRO6*4,1,8,-0.3711,-0.2508,-0.4008,-0.221,-0.4008,0.2211,-0.3711,0.2508,0.371,0.2508,0.4008,0.2211,0.4008,-0.221,0.371,-0.2508,-0.3711,-0.2508,0*%
%AMMACRO7*4,1,8,-0.9211,-0.9508,-0.9508,-0.921,-0.9508,0.9211,-0.9211,0.9508,0.921,0.9508,0.9508,0.9211,0.9508,-0.921,0.921,-0.9508,-0.9211,-0.9508,0*%
%AMMACRO8*4,1,8,-0.4211,-0.4828,-0.4508,-0.453,-0.4508,0.4531,-0.4211,0.4828,0.421,0.4828,0.4508,0.4531,0.4508,-0.453,0.421,-0.4828,-0.4211,-0.4828,0*%
%AMMACRO9*4,1,8,-0.3711,-0.6758,-0.4008,-0.646,-0.4008,0.646,-0.3711,0.6758,0.371,0.6758,0.4008,0.646,0.4008,-0.646,0.371,-0.6758,-0.3711,-0.6758,0*%
%AMMACRO10*4,1,8,-0.4531,-0.454,-0.4828,-0.4243,-0.4828,0.4243,-0.4531,0.454,0.453,0.454,0.4828,0.4243,0.4828,-0.4243,0.453,-0.454,-0.4531,-0.454,0*%
%AMMACRO11*4,1,8,-1.0211,-0.6508,-1.0508,-0.621,-1.0508,0.6211,-1.0211,0.6508,1.021,0.6508,1.0508,0.6211,1.0508,-0.621,1.021,-0.6508,-1.0211,-0.6508,0*%
%AMMACRO12*4,1,8,-1.7711,-1.1508,-1.8008,-1.121,-1.8008,1.1211,-1.7711,1.1508,1.771,1.1508,1.8008,1.1211,1.8008,-1.121,1.771,-1.1508,-1.7711,-1.1508,0*%
%AMMACRO13*4,1,8,-0.5711,-1.1508,-0.6008,-1.121,-0.6008,1.1211,-0.5711,1.1508,0.571,1.1508,0.6008,1.1211,0.6008,-1.121,0.571,-1.1508,-0.5711,-1.1508,0*%
%AMMACRO14*4,1,8,-0.8041,-1.1045,-0.8338,-1.0748,-0.8338,1.0748,-0.8041,1.1045,0.804,1.1045,0.8338,1.0748,0.8338,-1.0748,0.804,-1.1045,-0.8041,-1.1045,0*%
%ADD10MACRO1*%
%ADD11MACRO2*%
%ADD12MACRO3*%
%ADD13MACRO4*%
%ADD14MACRO5*%
%ADD15MACRO6*%
%ADD16MACRO7*%
%ADD17C,1.9016*%
%ADD18MACRO8*%
%ADD19MACRO9*%
%ADD20MACRO10*%
%ADD21MACRO11*%
%ADD22O,3.3015936X1.4015974000000002*%
%ADD23O,0.4446016X1.8330926000000003*%
%ADD24MACRO12*%
%ADD25MACRO13*%
%ADD26MACRO14*%
%ADD27C,0.0100*%

%LPD*%
D10*
G01*
X4305300Y8128000D03*
D11*
G01*
X2424824Y8394700D03*
G01*
X2274175Y8394700D03*
D10*
G01*
X3632200Y8128000D03*
G01*
X4076700Y8128000D03*
G01*
X3860800Y8128000D03*
D12*
G01*
X2823143Y8394710D03*
G01*
X2663243Y8394694D03*
D13*
G01*
X3486000Y9398000D03*
G01*
X3625999Y9398000D03*
G01*
X3625999Y8712200D03*
G01*
X3486000Y8712200D03*
D14*
G01*
X4711700Y9137799D03*
G01*
X4711700Y8997800D03*
D15*
G01*
X5016501Y9633689D03*
G01*
X5016501Y9568690D03*
G01*
X4914898Y8717810D03*
G01*
X4914898Y8782809D03*
G01*
X4914901Y9062189D03*
G01*
X4914901Y8997190D03*
D16*
G01*
X889000Y9525000D03*
D17*
G01*
X889000Y9271000D03*
G01*
X889000Y9017000D03*
G01*
X889000Y8763000D03*
G01*
X889000Y8509000D03*
G01*
X889000Y8255000D03*
D18*
G01*
X3625999Y9067787D03*
G01*
X3486000Y9067787D03*
D19*
G01*
X1778000Y8621267D03*
G01*
X1872996Y8371332D03*
G01*
X1683003Y8371332D03*
G01*
X1778000Y9158732D03*
G01*
X1683003Y9408667D03*
G01*
X1872996Y9408667D03*
D20*
G01*
X1524000Y8814675D03*
G01*
X1524000Y8965324D03*
D21*
G01*
X5204000Y8539975D03*
G01*
X5204000Y8789987D03*
G01*
X5204000Y8989987D03*
G01*
X5204000Y9239999D03*
D22*
G01*
X5463997Y9474987D03*
G01*
X5463997Y8304987D03*
D23*
G01*
X4304207Y9176562D03*
G01*
X4239209Y9176562D03*
G01*
X4174210Y9176562D03*
G01*
X4109211Y9176562D03*
G01*
X4044213Y9176562D03*
G01*
X3979189Y9176562D03*
G01*
X3914190Y9176562D03*
G01*
X3849192Y9176562D03*
G01*
X4304207Y8603411D03*
G01*
X4239209Y8603411D03*
G01*
X4174210Y8603411D03*
G01*
X4109211Y8603411D03*
G01*
X4044213Y8603411D03*
G01*
X3979189Y8603411D03*
G01*
X3914190Y8603411D03*
G01*
X3849192Y8603411D03*
D24*
G01*
X2540000Y9606280D03*
D25*
G01*
X2770000Y8986519D03*
G01*
X2540000Y8986519D03*
G01*
X2309999Y8986519D03*
D13*
G01*
X3625999Y8382000D03*
G01*
X3486000Y8382000D03*
G01*
X2673200Y8750300D03*
G01*
X2813199Y8750300D03*
G01*
X2279500Y8750300D03*
G01*
X2419499Y8750300D03*
D14*
G01*
X4711700Y8642200D03*
G01*
X4711700Y8782199D03*
D26*
G01*
X3213100Y8651374D03*
G01*
X3213100Y9128625D03*
D20*
G01*
X4495800Y9143124D03*
G01*
X4495800Y8992475D03*
G01*
X4495800Y8636875D03*
G01*
X4495800Y8787524D03*
G01*
X2032000Y8965324D03*
G01*
X2032000Y8814675D03*
D14*
G01*
X4241800Y9378800D03*
G01*
X4241800Y9518799D03*
M02*
